<?xml version="1.0" encoding="UTF-8"?>
<svg width="901px" height="451px" viewBox="0 0 901 451" version="1.1" xmlns="http://www.w3.org/2000/svg" xmlns:xlink="http://www.w3.org/1999/xlink">
    <!-- Generator: Sketch 62 (91390) - https://sketch.com -->
    <title>Group 18</title>
    <desc>Created with Sketch.</desc>
    <g id="Material-Components" stroke="none" stroke-width="1" fill="none" fill-rule="evenodd">
        <g id="Group-18" transform="translate(0.500000, 0.750000)">
            <rect id="Rectangle" fill="#F9F9F9" x="0" y="0" width="900" height="450"></rect>
            <rect id="Rectangle" fill="#FFFFFF" x="24.680165" y="25.25" width="846" height="402"></rect>
            <g id="chat(1)" transform="translate(147.060796, 205.553751)" fill="#1B223A" fill-rule="nonzero">
                <path d="M44.6428609,-2.59404491e-15 L5.35713912,-2.59404491e-15 C2.3984707,-2.59404491e-15 0,2.20661101 0,4.9286081 L0,31.2145501 C0,33.9365472 2.3984707,36.1431582 5.35713912,36.1431582 L11.6964553,36.1431582 L10.7250553,44.1767894 C10.6167616,45.0786669 11.3236528,45.8904433 12.3039465,45.9900744 C12.8101543,46.0414782 13.3161528,45.8915985 13.69471,45.5781698 L25.0910818,36.1431582 L44.6428609,36.1431582 C47.6015293,36.1431582 50,33.9365472 50,31.2145501 L50,4.9286081 C50,2.20661101 47.6015293,-2.59404491e-15 44.6428609,-2.59404491e-15 Z M46.4286088,31.2145501 C46.4286088,32.1219145 45.6290139,32.8574515 44.6427562,32.8574515 L24.4053262,32.8574515 C23.9640946,32.8575478 23.5385578,33.0080051 23.2106423,33.2796561 L14.7928189,40.2503637 L15.4660188,34.682673 C15.5754635,33.780988 14.8697232,32.9683452 13.8895341,32.867559 C13.8236162,32.8608207 13.7573844,32.8573553 13.6910479,32.8574515 L5.35713912,32.8574515 C4.37088144,32.8574515 3.5713912,32.1219145 3.5713912,31.2145501 L3.5713912,4.9286081 C3.5713912,4.02124365 4.37088144,3.28570665 5.35713912,3.28570665 L44.6428609,3.28570665 C45.6291186,3.28570665 46.4286088,4.02124365 46.4286088,4.9286081 L46.4286088,31.2145501 L46.4286088,31.2145501 Z" id="Shape"></path>
            </g>
            <g id="chat(1)" transform="translate(319.219557, 222.016148) scale(-1, 1) translate(-319.219557, -222.016148) translate(294.219557, 199.016148)" fill="#1B223A" fill-rule="nonzero">
                <path d="M44.6428609,-2.59404491e-15 L5.35713912,-2.59404491e-15 C2.3984707,-2.59404491e-15 0,2.20661101 0,4.9286081 L0,31.2145501 C0,33.9365472 2.3984707,36.1431582 5.35713912,36.1431582 L11.6964553,36.1431582 L10.7250553,44.1767894 C10.6167616,45.0786669 11.3236528,45.8904433 12.3039465,45.9900744 C12.8101543,46.0414782 13.3161528,45.8915985 13.69471,45.5781698 L25.0910818,36.1431582 L44.6428609,36.1431582 C47.6015293,36.1431582 50,33.9365472 50,31.2145501 L50,4.9286081 C50,2.20661101 47.6015293,-2.59404491e-15 44.6428609,-2.59404491e-15 Z M46.4286088,31.2145501 C46.4286088,32.1219145 45.6290139,32.8574515 44.6427562,32.8574515 L24.4053262,32.8574515 C23.9640946,32.8575478 23.5385578,33.0080051 23.2106423,33.2796561 L14.7928189,40.2503637 L15.4660188,34.682673 C15.5754635,33.780988 14.8697232,32.9683452 13.8895341,32.867559 C13.8236162,32.8608207 13.7573844,32.8573553 13.6910479,32.8574515 L5.35713912,32.8574515 C4.37088144,32.8574515 3.5713912,32.1219145 3.5713912,31.2145501 L3.5713912,4.9286081 C3.5713912,4.02124365 4.37088144,3.28570665 5.35713912,3.28570665 L44.6428609,3.28570665 C45.6291186,3.28570665 46.4286088,4.02124365 46.4286088,4.9286081 L46.4286088,31.2145501 L46.4286088,31.2145501 Z" id="Shape"></path>
            </g>
            <g id="comment" transform="translate(212.140176, 195.516148)" fill="#1B223A" fill-rule="nonzero">
                <path d="M8.15118026,52.9242615 L4.18319141,52.9242615 L6.98904264,49.9162187 C8.50192536,48.2943166 9.44666896,46.1847984 9.70066057,43.8963741 C5.75283326,41.1189241 2.86600714,37.4647988 1.32069063,33.27419 C-0.223530148,29.0867529 -0.417584998,24.4771303 0.75956421,19.9435104 C2.17196794,14.503613 5.48470666,9.54534075 10.0873458,5.98190193 C15.0889425,2.10975313 21.3153528,0.0629636792 28.0935759,0.0629636792 C36.632318,0.0629636792 43.8295504,2.69298945 48.9068624,7.66852974 C53.4809029,12.1510503 56,18.1973256 56,24.6937441 C56,27.849916 55.4005228,30.9209225 54.2183332,33.8214806 C52.994944,36.8229451 51.2035251,39.4954949 48.8938232,41.7646542 C43.8097176,46.7598119 36.6169776,49.400175 28.0934663,49.400175 C24.9293094,49.400175 21.627528,48.9473299 18.6796694,48.1163503 C15.8893776,51.1850073 12.1083213,52.9242615 8.15118026,52.9242615 Z M28.0935759,3.5870502 C14.5021758,3.5870502 6.16241939,12.2766253 3.92635089,20.888553 C1.81333354,29.0268435 4.92818233,36.7167527 12.2586563,41.4592334 L13.077719,41.9891385 L13.0525171,43.0142953 C13.0025515,45.0434643 12.5513274,46.9979227 11.7436604,48.7646647 C13.710397,48.0512721 15.4950222,46.7579324 16.8925239,44.9879012 L17.5874397,44.1077018 L18.6179795,44.4381437 C21.5099555,45.3654483 24.8750704,45.8760885 28.0935759,45.8760885 C45.008672,45.8760885 52.7127919,34.8958571 52.7127919,24.6937441 C52.7127919,19.1989884 50.5734769,14.0763763 46.6888736,10.269658 C42.2278035,5.8979112 35.7975863,3.5870502 28.0935759,3.5870502 Z" id="Shape"></path>
            </g>
            <g id="cloud(2)" transform="translate(63.680165, 201.483852)" fill="#1B223A" fill-rule="nonzero">
                <path d="M52.858584,19.1754 L52.3660059,19.1754 C51.5061523,14.7861756 47.5024316,11.4007711 42.6054688,11.10774 C42.1955371,8.37706222 40.8323145,5.84460444 38.6657324,3.84226444 C36.0447852,1.42004667 32.5874707,0.0859777778 28.930332,0.0859777778 C21.3923633,0.0859777778 15.234248,5.67194222 15.0127148,12.6163556 C6.68585938,12.8818267 0,19.2490111 0,27.0377733 C0,34.9944867 6.97759766,41.4677889 15.5541699,41.4677889 L33.8087598,41.4677889 L49.7828906,52.91414 L49.7828906,41.4677889 L52.9856641,41.4677889 C56.2116699,41.4677889 59.2400098,40.2979022 61.5127246,38.1736622 C63.7853125,36.0496578 65.0237402,33.2312356 65.0002117,30.2373244 C64.9508691,24.1377311 59.5044531,19.1754 52.858584,19.1754 Z M58.8096387,35.6845467 C57.2571289,37.1354511 55.1888086,37.9344556 52.9855371,37.9344556 L45.9741699,37.9344556 L45.9741699,45.7205089 L35.108125,37.9344556 L15.5541699,37.9344556 C9.07765625,37.9344556 3.80859375,33.0462067 3.80859375,27.0377733 C3.80859375,21.02934 9.07765625,16.1410911 15.5541699,16.1410911 L18.8153418,16.1410911 L18.8153418,13.0036089 C18.8153418,7.82916 23.3530273,3.61942889 28.9305859,3.61942889 C31.5729883,3.61942889 34.0758691,4.58756222 35.9780078,6.34551333 C37.8801465,8.10346444 38.9277637,10.4183867 38.9277637,12.8636889 L38.9277637,14.6475511 L41.9233496,14.62058 C45.6764648,14.6250556 48.7285449,17.45926 48.7285449,20.9421844 L48.7285449,22.7088511 L52.8587109,22.7088511 C57.4200098,22.7088511 61.1578906,26.0979067 61.1915092,30.2637067 C61.2075293,32.3085644 60.3617676,34.2338778 58.8096387,35.6845467 Z" id="Shape"></path>
            </g>
            <text id="1" font-family="Roboto-Medium, Roboto" font-size="12" font-weight="400" letter-spacing="1.07142857" fill="#00BCD6">
                <tspan x="90.3366707" y="229.516148">1</tspan>
            </text>
            <text id="2" font-family="Roboto-Medium, Roboto" font-size="12" font-weight="400" letter-spacing="1.07142857" fill="#FF186E">
                <tspan x="168.070965" y="228.516148">2</tspan>
            </text>
            <g id="chat(1)" transform="translate(757.055631, 193.086047)" fill="#1B223A" fill-rule="nonzero">
                <path d="M44.6428609,-2.59404491e-15 L5.35713912,-2.59404491e-15 C2.3984707,-2.59404491e-15 0,2.20661101 0,4.9286081 L0,31.2145501 C0,33.9365472 2.3984707,36.1431582 5.35713912,36.1431582 L11.6964553,36.1431582 L10.7250553,44.1767894 C10.6167616,45.0786669 11.3236528,45.8904433 12.3039465,45.9900744 C12.8101543,46.0414782 13.3161528,45.8915985 13.69471,45.5781698 L25.0910818,36.1431582 L44.6428609,36.1431582 C47.6015293,36.1431582 50,33.9365472 50,31.2145501 L50,4.9286081 C50,2.20661101 47.6015293,-2.59404491e-15 44.6428609,-2.59404491e-15 Z M46.4286088,31.2145501 C46.4286088,32.1219145 45.6290139,32.8574515 44.6427562,32.8574515 L24.4053262,32.8574515 C23.9640946,32.8575478 23.5385578,33.0080051 23.2106423,33.2796561 L14.7928189,40.2503637 L15.4660188,34.682673 C15.5754635,33.780988 14.8697232,32.9683452 13.8895341,32.867559 C13.8236162,32.8608207 13.7573844,32.8573553 13.6910479,32.8574515 L5.35713912,32.8574515 C4.37088144,32.8574515 3.5713912,32.1219145 3.5713912,31.2145501 L3.5713912,4.9286081 C3.5713912,4.02124365 4.37088144,3.28570665 5.35713912,3.28570665 L44.6428609,3.28570665 C45.6291186,3.28570665 46.4286088,4.02124365 46.4286088,4.9286081 L46.4286088,31.2145501 L46.4286088,31.2145501 Z" id="Shape"></path>
            </g>
            <g id="cloud(2)" transform="translate(673.675000, 189.016148)" fill="#1B223A" fill-rule="nonzero">
                <path d="M52.858584,19.1754 L52.3660059,19.1754 C51.5061523,14.7861756 47.5024316,11.4007711 42.6054688,11.10774 C42.1955371,8.37706222 40.8323145,5.84460444 38.6657324,3.84226444 C36.0447852,1.42004667 32.5874707,0.0859777778 28.930332,0.0859777778 C21.3923633,0.0859777778 15.234248,5.67194222 15.0127148,12.6163556 C6.68585938,12.8818267 0,19.2490111 0,27.0377733 C0,34.9944867 6.97759766,41.4677889 15.5541699,41.4677889 L33.8087598,41.4677889 L49.7828906,52.91414 L49.7828906,41.4677889 L52.9856641,41.4677889 C56.2116699,41.4677889 59.2400098,40.2979022 61.5127246,38.1736622 C63.7853125,36.0496578 65.0237402,33.2312356 65.0002117,30.2373244 C64.9508691,24.1377311 59.5044531,19.1754 52.858584,19.1754 Z M58.8096387,35.6845467 C57.2571289,37.1354511 55.1888086,37.9344556 52.9855371,37.9344556 L45.9741699,37.9344556 L45.9741699,45.7205089 L35.108125,37.9344556 L15.5541699,37.9344556 C9.07765625,37.9344556 3.80859375,33.0462067 3.80859375,27.0377733 C3.80859375,21.02934 9.07765625,16.1410911 15.5541699,16.1410911 L18.8153418,16.1410911 L18.8153418,13.0036089 C18.8153418,7.82916 23.3530273,3.61942889 28.9305859,3.61942889 C31.5729883,3.61942889 34.0758691,4.58756222 35.9780078,6.34551333 C37.8801465,8.10346444 38.9277637,10.4183867 38.9277637,12.8636889 L38.9277637,14.6475511 L41.9233496,14.62058 C45.6764648,14.6250556 48.7285449,17.45926 48.7285449,20.9421844 L48.7285449,22.7088511 L52.8587109,22.7088511 C57.4200098,22.7088511 61.1578906,26.0979067 61.1915092,30.2637067 C61.2075293,32.3085644 60.3617676,34.2338778 58.8096387,35.6845467 Z" id="Shape"></path>
            </g>
            <text id="FIZZ" font-family="Roboto-Medium, Roboto" font-size="12" font-weight="400" letter-spacing="1.07142857" fill="#00BCD6">
                <tspan x="690.357594" y="219.048443">FIZZ</tspan>
            </text>
            <text id="BUZZ" font-family="Roboto-Medium, Roboto" font-size="12" font-weight="400" letter-spacing="1.07142857" fill="#FF186E">
                <tspan x="765.511671" y="216.048443">BUZZ</tspan>
            </text>
            <text id="FIZZ" font-family="Roboto-Medium, Roboto" font-size="12" font-weight="400" letter-spacing="1.07142857" fill="#FF88CE">
                <tspan x="226.666264" y="226.516148">FIZZ</tspan>
            </text>
            <text id="4" font-family="Roboto-Medium, Roboto" font-size="12" font-weight="400" letter-spacing="1.07142857" fill="#00BCD6">
                <tspan x="316.773686" y="221.516148">4</tspan>
            </text>
            <g id="chat(1)" transform="translate(453.679568, 199.586047)" fill="#1B223A" fill-rule="nonzero">
                <path d="M44.6428609,-2.59404491e-15 L5.35713912,-2.59404491e-15 C2.3984707,-2.59404491e-15 0,2.20661101 0,4.9286081 L0,31.2145501 C0,33.9365472 2.3984707,36.1431582 5.35713912,36.1431582 L11.6964553,36.1431582 L10.7250553,44.1767894 C10.6167616,45.0786669 11.3236528,45.8904433 12.3039465,45.9900744 C12.8101543,46.0414782 13.3161528,45.8915985 13.69471,45.5781698 L25.0910818,36.1431582 L44.6428609,36.1431582 C47.6015293,36.1431582 50,33.9365472 50,31.2145501 L50,4.9286081 C50,2.20661101 47.6015293,-2.59404491e-15 44.6428609,-2.59404491e-15 Z M46.4286088,31.2145501 C46.4286088,32.1219145 45.6290139,32.8574515 44.6427562,32.8574515 L24.4053262,32.8574515 C23.9640946,32.8575478 23.5385578,33.0080051 23.2106423,33.2796561 L14.7928189,40.2503637 L15.4660188,34.682673 C15.5754635,33.780988 14.8697232,32.9683452 13.8895341,32.867559 C13.8236162,32.8608207 13.7573844,32.8573553 13.6910479,32.8574515 L5.35713912,32.8574515 C4.37088144,32.8574515 3.5713912,32.1219145 3.5713912,31.2145501 L3.5713912,4.9286081 C3.5713912,4.02124365 4.37088144,3.28570665 5.35713912,3.28570665 L44.6428609,3.28570665 C45.6291186,3.28570665 46.4286088,4.02124365 46.4286088,4.9286081 L46.4286088,31.2145501 L46.4286088,31.2145501 Z" id="Shape"></path>
            </g>
            <g id="chat(1)" transform="translate(625.838329, 216.048443) scale(-1, 1) translate(-625.838329, -216.048443) translate(600.838329, 193.048443)" fill="#1B223A" fill-rule="nonzero">
                <path d="M44.6428609,-2.59404491e-15 L5.35713912,-2.59404491e-15 C2.3984707,-2.59404491e-15 0,2.20661101 0,4.9286081 L0,31.2145501 C0,33.9365472 2.3984707,36.1431582 5.35713912,36.1431582 L11.6964553,36.1431582 L10.7250553,44.1767894 C10.6167616,45.0786669 11.3236528,45.8904433 12.3039465,45.9900744 C12.8101543,46.0414782 13.3161528,45.8915985 13.69471,45.5781698 L25.0910818,36.1431582 L44.6428609,36.1431582 C47.6015293,36.1431582 50,33.9365472 50,31.2145501 L50,4.9286081 C50,2.20661101 47.6015293,-2.59404491e-15 44.6428609,-2.59404491e-15 Z M46.4286088,31.2145501 C46.4286088,32.1219145 45.6290139,32.8574515 44.6427562,32.8574515 L24.4053262,32.8574515 C23.9640946,32.8575478 23.5385578,33.0080051 23.2106423,33.2796561 L14.7928189,40.2503637 L15.4660188,34.682673 C15.5754635,33.780988 14.8697232,32.9683452 13.8895341,32.867559 C13.8236162,32.8608207 13.7573844,32.8573553 13.6910479,32.8574515 L5.35713912,32.8574515 C4.37088144,32.8574515 3.5713912,32.1219145 3.5713912,31.2145501 L3.5713912,4.9286081 C3.5713912,4.02124365 4.37088144,3.28570665 5.35713912,3.28570665 L44.6428609,3.28570665 C45.6291186,3.28570665 46.4286088,4.02124365 46.4286088,4.9286081 L46.4286088,31.2145501 L46.4286088,31.2145501 Z" id="Shape"></path>
            </g>
            <g id="comment" transform="translate(518.758949, 189.548443)" fill="#1B223A" fill-rule="nonzero">
                <path d="M8.15118026,52.9242615 L4.18319141,52.9242615 L6.98904264,49.9162187 C8.50192536,48.2943166 9.44666896,46.1847984 9.70066057,43.8963741 C5.75283326,41.1189241 2.86600714,37.4647988 1.32069063,33.27419 C-0.223530148,29.0867529 -0.417584998,24.4771303 0.75956421,19.9435104 C2.17196794,14.503613 5.48470666,9.54534075 10.0873458,5.98190193 C15.0889425,2.10975313 21.3153528,0.0629636792 28.0935759,0.0629636792 C36.632318,0.0629636792 43.8295504,2.69298945 48.9068624,7.66852974 C53.4809029,12.1510503 56,18.1973256 56,24.6937441 C56,27.849916 55.4005228,30.9209225 54.2183332,33.8214806 C52.994944,36.8229451 51.2035251,39.4954949 48.8938232,41.7646542 C43.8097176,46.7598119 36.6169776,49.400175 28.0934663,49.400175 C24.9293094,49.400175 21.627528,48.9473299 18.6796694,48.1163503 C15.8893776,51.1850073 12.1083213,52.9242615 8.15118026,52.9242615 Z M28.0935759,3.5870502 C14.5021758,3.5870502 6.16241939,12.2766253 3.92635089,20.888553 C1.81333354,29.0268435 4.92818233,36.7167527 12.2586563,41.4592334 L13.077719,41.9891385 L13.0525171,43.0142953 C13.0025515,45.0434643 12.5513274,46.9979227 11.7436604,48.7646647 C13.710397,48.0512721 15.4950222,46.7579324 16.8925239,44.9879012 L17.5874397,44.1077018 L18.6179795,44.4381437 C21.5099555,45.3654483 24.8750704,45.8760885 28.0935759,45.8760885 C45.008672,45.8760885 52.7127919,34.8958571 52.7127919,24.6937441 C52.7127919,19.1989884 50.5734769,14.0763763 46.6888736,10.269658 C42.2278035,5.8979112 35.7975863,3.5870502 28.0935759,3.5870502 Z" id="Shape"></path>
            </g>
            <g id="cloud(2)" transform="translate(370.298937, 195.516148)" fill="#1B223A" fill-rule="nonzero">
                <path d="M52.858584,19.1754 L52.3660059,19.1754 C51.5061523,14.7861756 47.5024316,11.4007711 42.6054688,11.10774 C42.1955371,8.37706222 40.8323145,5.84460444 38.6657324,3.84226444 C36.0447852,1.42004667 32.5874707,0.0859777778 28.930332,0.0859777778 C21.3923633,0.0859777778 15.234248,5.67194222 15.0127148,12.6163556 C6.68585938,12.8818267 0,19.2490111 0,27.0377733 C0,34.9944867 6.97759766,41.4677889 15.5541699,41.4677889 L33.8087598,41.4677889 L49.7828906,52.91414 L49.7828906,41.4677889 L52.9856641,41.4677889 C56.2116699,41.4677889 59.2400098,40.2979022 61.5127246,38.1736622 C63.7853125,36.0496578 65.0237402,33.2312356 65.0002117,30.2373244 C64.9508691,24.1377311 59.5044531,19.1754 52.858584,19.1754 Z M58.8096387,35.6845467 C57.2571289,37.1354511 55.1888086,37.9344556 52.9855371,37.9344556 L45.9741699,37.9344556 L45.9741699,45.7205089 L35.108125,37.9344556 L15.5541699,37.9344556 C9.07765625,37.9344556 3.80859375,33.0462067 3.80859375,27.0377733 C3.80859375,21.02934 9.07765625,16.1410911 15.5541699,16.1410911 L18.8153418,16.1410911 L18.8153418,13.0036089 C18.8153418,7.82916 23.3530273,3.61942889 28.9305859,3.61942889 C31.5729883,3.61942889 34.0758691,4.58756222 35.9780078,6.34551333 C37.8801465,8.10346444 38.9277637,10.4183867 38.9277637,12.8636889 L38.9277637,14.6475511 L41.9233496,14.62058 C45.6764648,14.6250556 48.7285449,17.45926 48.7285449,20.9421844 L48.7285449,22.7088511 L52.8587109,22.7088511 C57.4200098,22.7088511 61.1578906,26.0979067 61.1915092,30.2637067 C61.2075293,32.3085644 60.3617676,34.2338778 58.8096387,35.6845467 Z" id="Shape"></path>
            </g>
            <text id="BUZZ" font-family="Roboto-Medium, Roboto" font-size="12" font-weight="400" letter-spacing="1.07142857" fill="#00BCD6">
                <tspan x="383.753992" y="225.548443">BUZZ</tspan>
            </text>
            <text id="FIZZ" font-family="Roboto-Medium, Roboto" font-size="12" font-weight="400" letter-spacing="1.07142857" fill="#FF186E">
                <tspan x="464.161696" y="222.548443">FIZZ</tspan>
            </text>
            <text id="7" font-family="Roboto-Medium, Roboto" font-size="12" font-weight="400" letter-spacing="1.07142857" fill="#FF88CE">
                <tspan x="543.813078" y="220.548443">7</tspan>
            </text>
            <text id="8" font-family="Roboto-Medium, Roboto" font-size="12" font-weight="400" letter-spacing="1.07142857" fill="#00BCD6">
                <tspan x="623.392459" y="215.548443">8</tspan>
            </text>
            <text id="FizzBuzz" font-family="Roboto-Medium, Roboto" font-size="36" font-weight="400" letter-spacing="3.21428571" fill="#1B223A">
                <tspan x="361.180165" y="119.25">FizzBuzz</tspan>
            </text>
            <g id="man-silhouette" transform="translate(251.455821, 326.336741) scale(-1, 1) translate(-251.455821, -326.336741) translate(223.455821, 290.336741)" fill="#1B223A" fill-rule="nonzero">
                <path d="M1.54403173,23.6206738 L12.95294,16.5834781 C13.2212877,16.4182297 13.4256449,16.1893562 13.542789,15.9251355 L19.7018861,1.97445953 C20.2096827,0.823464691 21.5529696,0.282651762 22.9261877,0.282651762 C27.9277771,0.282651762 37.6507389,0.282651762 42.6616173,0.282651762 C43.8743427,0.282651762 45.0891324,0.676773603 45.7053001,1.64396274 L54.6598585,15.6891926 C55.0510269,16.3015837 55.1418523,17.0239932 54.9106604,17.6938236 L50.5752959,30.3379768 C50.1820632,31.4849951 48.9569525,32.2290547 47.6286311,32.2290547 C47.3417054,32.2290547 47.0501353,32.1945912 46.7611454,32.1216875 C45.1324809,31.7121012 44.1994564,30.2509342 44.6783539,28.8560434 L48.4734105,17.8294686 C48.5993275,17.4636246 48.5503024,17.0699446 48.3371724,16.7350294 L43.0367881,8.40235699 L43.0367881,67.8299215 C43.0367881,70.0095213 40.958125,71.7768839 38.4114016,71.7768839 C35.8651942,71.7768839 33.7860151,70.0095213 33.7860151,67.8299215 L33.7860151,38.0127486 L31.6015611,38.0127486 L31.6015611,67.8299215 C31.6015611,70.0095213 29.521866,71.7768839 26.9761746,71.7768839 C24.4299672,71.7768839 22.3507882,70.0095213 22.3507882,67.8299215 L22.3507882,10.783878 L18.7683456,18.9327447 C18.5541834,19.4161183 18.1883015,19.8349833 17.6985669,20.1367604 L5.13266697,27.8906216 C4.5897788,28.2264205 3.96277394,28.3872505 3.34041356,28.3872505 C2.3867469,28.3872505 1.44701369,28.0081512 0.846327551,27.2936949 C-0.146043108,26.1148641 0.167201297,24.4703333 1.54403173,23.6206738 Z" id="Path"></path>
            </g>
            <g id="gymnast" transform="translate(146.303506, 296.017549)" fill="#1B223A" fill-rule="nonzero">
                <path d="M64.7924137,0.0504013917 C64.7770111,0.0504013917 50.7082814,0.0504013917 50.6959593,0.0504013917 L33.9333158,0.0504013917 L17.1783736,0.0504013917 L17.1783736,0.0596800449 C17.169132,0.0596800449 3.10040224,0.0596800449 3.0865399,0.0596800449 C1.38301296,0.0596800449 -0.000140023586,1.44838514 -0.000140023586,3.16648242 C-0.000140023586,4.87375461 1.38301296,6.26555259 3.0865399,6.26555259 C3.1019425,6.26555259 17.1706723,6.26555259 17.1783736,6.26555259 L24.2081177,6.26555259 L24.2081177,6.53617998 L24.1819332,62.0967553 C24.1819332,64.4164186 26.0518082,66.2937995 28.3575766,66.2937995 C30.663345,66.2937995 32.5378407,64.4164186 32.5378407,62.0967553 L32.5378407,28.0765734 L34.4061754,28.0765734 L34.4061754,62.1369628 L34.4354404,62.1694381 C34.4662456,64.4519868 36.3160971,66.292253 38.5941409,66.292253 C40.8845067,66.292253 42.7497608,64.4256973 42.7497608,62.1276842 L42.7312777,6.45885787 L42.7174154,6.26864548 L50.6944191,6.26864548 L50.6944191,6.26245971 C50.7098216,6.26245971 64.7785514,6.26245971 64.7893332,6.26245971 C66.5005615,6.26245971 67.8791143,4.87220817 67.8791143,3.15256444 C67.8852547,1.44838514 66.5082628,0.0504013917 64.7924137,0.0504013917 Z" id="Path"></path>
            </g>
            <path d="M132.152694,305.006029 C130.511546,301.808125 128.533336,300.207458 126.218624,300.207458 L113.272267,300.207458 C110.956995,300.207458 108.978561,301.809169 107.33831,305.006029 L98.7070688,322.230871 C98.3469153,322.947249 98.1672309,323.741171 98.1672309,324.606372 C98.1672309,325.80471 98.4814264,326.821419 99.1111626,327.656348 C99.7402261,328.49605 100.504473,328.913142 101.403792,328.913142 C102.550163,328.913142 103.448809,328.271473 104.101188,326.983812 L111.754197,311.690089 L113.271707,311.646248 L104.944236,340.607376 C104.741797,341.055486 104.641026,341.550121 104.641026,342.087703 C104.641026,342.86537 104.854338,343.538801 105.281747,344.106506 C105.708484,344.67585 106.214021,344.959777 106.799257,344.959777 L113.272379,344.959777 L113.272379,357.159682 C113.272379,358.535027 113.643518,359.715918 114.385122,360.702504 C115.126727,361.68894 116.014388,362.18283 117.048891,362.18283 L122.44357,362.18283 C123.4774,362.18283 124.365174,361.68894 125.107339,360.702504 C125.849728,359.715918 126.220194,358.535027 126.220194,357.159682 L126.220194,344.959777 L132.693989,344.959777 C133.278552,344.959777 133.784089,344.676 134.211386,344.106506 C134.638123,343.538801 134.852219,342.866265 134.852219,342.087703 C134.852219,341.55027 134.751336,341.055486 134.549009,340.607376 L126.220866,311.646248 L127.738264,311.690089 L135.392057,326.983812 C136.043539,328.271622 136.94297,328.913142 138.089229,328.913142 C138.987987,328.913142 139.752235,328.49605 140.381859,327.656348 C141.011034,326.820524 141.325902,325.80471 141.325902,324.606372 C141.325902,323.741171 141.145546,322.947249 140.786625,322.230871 L132.152694,305.006029 Z" id="Path" fill="#1B223A" fill-rule="nonzero"></path>
            <path d="M111.803749,281.913857 C109.615723,283.872415 108.521627,286.241503 108.521627,289.022316 C108.521627,291.804918 109.615556,294.173112 111.803749,296.132564 C113.991774,298.090973 116.639797,299.071296 119.74665,299.071296 C122.853503,299.071296 125.501359,298.092017 127.689551,296.132564 C129.877577,294.174155 130.971506,291.804918 130.971506,289.022316 C130.971506,286.241503 129.877577,283.873309 127.689551,281.913857 C125.501192,279.955299 122.853503,278.975125 119.74665,278.975125 C116.639797,278.975125 113.991774,279.954404 111.803749,281.913857 Z" id="Path" fill="#1B223A" fill-rule="nonzero"></path>
            <path d="M172.116993,277.937291 C169.928967,279.895849 168.834871,282.264938 168.834871,285.04575 C168.834871,287.828352 169.9288,290.196546 172.116993,292.155999 C174.305018,294.114407 176.953041,295.09473 180.059894,295.09473 C183.166747,295.09473 185.814603,294.115451 188.002795,292.155999 C190.190821,290.19759 191.28475,287.828352 191.28475,285.04575 C191.28475,282.264938 190.190821,279.896744 188.002795,277.937291 C185.814436,275.978733 183.166747,274.998559 180.059894,274.998559 C176.953041,274.998559 174.305018,275.977838 172.116993,277.937291 Z" id="Path" fill="#1B223A" fill-rule="nonzero"></path>
            <path d="M238.759059,271.865771 C236.571033,273.824329 235.476937,276.193418 235.476937,278.97423 C235.476937,281.756832 236.570867,284.125026 238.759059,286.084479 C240.947085,288.042888 243.595107,289.02321 246.70196,289.02321 C249.808813,289.02321 252.456669,288.043931 254.644862,286.084479 C256.832887,284.12607 257.926817,281.756832 257.926817,278.97423 C257.926817,276.193418 256.832887,273.825224 254.644862,271.865771 C252.456503,269.907213 249.808813,268.927039 246.70196,268.927039 C243.595107,268.927039 240.947085,269.906318 238.759059,271.865771 Z" id="Path" fill="#1B223A" fill-rule="nonzero"></path>
            <g id="man-silhouette" transform="translate(411.214945, 290.336741)" fill="#1B223A" fill-rule="nonzero">
                <path d="M1.54403173,23.6206738 L12.95294,16.5834781 C13.2212877,16.4182297 13.4256449,16.1893562 13.542789,15.9251355 L19.7018861,1.97445953 C20.2096827,0.823464691 21.5529696,0.282651762 22.9261877,0.282651762 C27.9277771,0.282651762 37.6507389,0.282651762 42.6616173,0.282651762 C43.8743427,0.282651762 45.0891324,0.676773603 45.7053001,1.64396274 L54.6598585,15.6891926 C55.0510269,16.3015837 55.1418523,17.0239932 54.9106604,17.6938236 L50.5752959,30.3379768 C50.1820632,31.4849951 48.9569525,32.2290547 47.6286311,32.2290547 C47.3417054,32.2290547 47.0501353,32.1945912 46.7611454,32.1216875 C45.1324809,31.7121012 44.1994564,30.2509342 44.6783539,28.8560434 L48.4734105,17.8294686 C48.5993275,17.4636246 48.5503024,17.0699446 48.3371724,16.7350294 L43.0367881,8.40235699 L43.0367881,67.8299215 C43.0367881,70.0095213 40.958125,71.7768839 38.4114016,71.7768839 C35.8651942,71.7768839 33.7860151,70.0095213 33.7860151,67.8299215 L33.7860151,38.0127486 L31.6015611,38.0127486 L31.6015611,67.8299215 C31.6015611,70.0095213 29.521866,71.7768839 26.9761746,71.7768839 C24.4299672,71.7768839 22.3507882,70.0095213 22.3507882,67.8299215 L22.3507882,10.783878 L18.7683456,18.9327447 C18.5541834,19.4161183 18.1883015,19.8349833 17.6985669,20.1367604 L5.13266697,27.8906216 C4.5897788,28.2264205 3.96277394,28.3872505 3.34041356,28.3872505 C2.3867469,28.3872505 1.44701369,28.0081512 0.846327551,27.2936949 C-0.146043108,26.1148641 0.167201297,24.4703333 1.54403173,23.6206738 Z" id="Path"></path>
            </g>
            <g id="gymnast" transform="translate(343.303506, 296.616337)" fill="#1B223A" fill-rule="nonzero">
                <path d="M64.7924137,0.0504013917 C64.7770111,0.0504013917 50.7082814,0.0504013917 50.6959593,0.0504013917 L33.9333158,0.0504013917 L17.1783736,0.0504013917 L17.1783736,0.0596800449 C17.169132,0.0596800449 3.10040224,0.0596800449 3.0865399,0.0596800449 C1.38301296,0.0596800449 -0.000140023586,1.44838514 -0.000140023586,3.16648242 C-0.000140023586,4.87375461 1.38301296,6.26555259 3.0865399,6.26555259 C3.1019425,6.26555259 17.1706723,6.26555259 17.1783736,6.26555259 L24.2081177,6.26555259 L24.2081177,6.53617998 L24.1819332,62.0967553 C24.1819332,64.4164186 26.0518082,66.2937995 28.3575766,66.2937995 C30.663345,66.2937995 32.5378407,64.4164186 32.5378407,62.0967553 L32.5378407,28.0765734 L34.4061754,28.0765734 L34.4061754,62.1369628 L34.4354404,62.1694381 C34.4662456,64.4519868 36.3160971,66.292253 38.5941409,66.292253 C40.8845067,66.292253 42.7497608,64.4256973 42.7497608,62.1276842 L42.7312777,6.45885787 L42.7174154,6.26864548 L50.6944191,6.26864548 L50.6944191,6.26245971 C50.7098216,6.26245971 64.7785514,6.26245971 64.7893332,6.26245971 C66.5005615,6.26245971 67.8791143,4.87220817 67.8791143,3.15256444 C67.8852547,1.44838514 66.5082628,0.0504013917 64.7924137,0.0504013917 Z" id="Path"></path>
            </g>
            <path d="M329.152694,305.006029 C327.511546,301.808125 325.533336,300.207458 323.218624,300.207458 L310.272267,300.207458 C307.956995,300.207458 305.978561,301.809169 304.33831,305.006029 L295.707069,322.230871 C295.346915,322.947249 295.167231,323.741171 295.167231,324.606372 C295.167231,325.80471 295.481426,326.821419 296.111163,327.656348 C296.740226,328.49605 297.504473,328.913142 298.403792,328.913142 C299.550163,328.913142 300.448809,328.271473 301.101188,326.983812 L308.754197,311.690089 L310.271707,311.646248 L301.944236,340.607376 C301.741797,341.055486 301.641026,341.550121 301.641026,342.087703 C301.641026,342.86537 301.854338,343.538801 302.281747,344.106506 C302.708484,344.67585 303.214021,344.959777 303.799257,344.959777 L310.272379,344.959777 L310.272379,357.159682 C310.272379,358.535027 310.643518,359.715918 311.385122,360.702504 C312.126727,361.68894 313.014388,362.18283 314.048891,362.18283 L319.44357,362.18283 C320.4774,362.18283 321.365174,361.68894 322.107339,360.702504 C322.849728,359.715918 323.220194,358.535027 323.220194,357.159682 L323.220194,344.959777 L329.693989,344.959777 C330.278552,344.959777 330.784089,344.676 331.211386,344.106506 C331.638123,343.538801 331.852219,342.866265 331.852219,342.087703 C331.852219,341.55027 331.751336,341.055486 331.549009,340.607376 L323.220866,311.646248 L324.738264,311.690089 L332.392057,326.983812 C333.043539,328.271622 333.94297,328.913142 335.089229,328.913142 C335.987987,328.913142 336.752235,328.49605 337.381859,327.656348 C338.011034,326.820524 338.325902,325.80471 338.325902,324.606372 C338.325902,323.741171 338.145546,322.947249 337.786625,322.230871 L329.152694,305.006029 Z" id="Path" fill="#1B223A" fill-rule="nonzero"></path>
            <path d="M308.803749,281.913857 C306.615723,283.872415 305.521627,286.241503 305.521627,289.022316 C305.521627,291.804918 306.615556,294.173112 308.803749,296.132564 C310.991774,298.090973 313.639797,299.071296 316.74665,299.071296 C319.853503,299.071296 322.501359,298.092017 324.689551,296.132564 C326.877577,294.174155 327.971506,291.804918 327.971506,289.022316 C327.971506,286.241503 326.877577,283.873309 324.689551,281.913857 C322.501192,279.955299 319.853503,278.975125 316.74665,278.975125 C313.639797,278.975125 310.991774,279.954404 308.803749,281.913857 Z" id="Path" fill="#1B223A" fill-rule="nonzero"></path>
            <path d="M369.116993,277.937291 C366.928967,279.895849 365.834871,282.264938 365.834871,285.04575 C365.834871,287.828352 366.9288,290.196546 369.116993,292.155999 C371.305018,294.114407 373.953041,295.09473 377.059894,295.09473 C380.166747,295.09473 382.814603,294.115451 385.002795,292.155999 C387.190821,290.19759 388.28475,287.828352 388.28475,285.04575 C388.28475,282.264938 387.190821,279.896744 385.002795,277.937291 C382.814436,275.978733 380.166747,274.998559 377.059894,274.998559 C373.953041,274.998559 371.305018,275.977838 369.116993,277.937291 Z" id="Path" fill="#1B223A" fill-rule="nonzero"></path>
            <path d="M435.759059,271.865771 C433.571033,273.824329 432.476937,276.193418 432.476937,278.97423 C432.476937,281.756832 433.570867,284.125026 435.759059,286.084479 C437.947085,288.042888 440.595107,289.02321 443.70196,289.02321 C446.808813,289.02321 449.456669,288.043931 451.644862,286.084479 C453.832887,284.12607 454.926817,281.756832 454.926817,278.97423 C454.926817,276.193418 453.832887,273.825224 451.644862,271.865771 C449.456503,269.907213 446.808813,268.927039 443.70196,268.927039 C440.595107,268.927039 437.947085,269.906318 435.759059,271.865771 Z" id="Path" fill="#1B223A" fill-rule="nonzero"></path>
            <path d="M619.758976,313.957415 L631.167885,306.920219 C631.436232,306.754971 631.64059,306.526097 631.757734,306.261877 L637.916831,292.311201 C638.424627,291.160206 639.767914,290.619393 641.141132,290.619393 C646.142722,290.619393 655.865684,290.619393 660.876562,290.619393 C662.089287,290.619393 663.304077,291.013515 663.920245,291.980704 L672.874803,306.025934 C673.265972,306.638325 673.356797,307.360734 673.125605,308.030565 L668.790241,320.674718 C668.397008,321.821736 667.171897,322.565796 665.843576,322.565796 C665.55665,322.565796 665.26508,322.531332 664.97609,322.458429 C663.347426,322.048842 662.414401,320.587675 662.893299,319.192784 L666.688355,308.16621 C666.814272,307.800366 666.765247,307.406686 666.552117,307.071771 L661.251733,298.739098 L661.251733,358.166663 C661.251733,360.346262 659.17307,362.113625 656.626346,362.113625 C654.080139,362.113625 652.00096,360.346262 652.00096,358.166663 L652.00096,328.34949 L649.816506,328.34949 L649.816506,358.166663 C649.816506,360.346262 647.736811,362.113625 645.191119,362.113625 C642.644912,362.113625 640.565733,360.346262 640.565733,358.166663 L640.565733,301.120619 L636.98329,309.269486 C636.769128,309.752859 636.403246,310.171724 635.913512,310.473502 L623.347612,318.227363 C622.804723,318.563162 622.177719,318.723992 621.555358,318.723992 C620.601692,318.723992 619.661958,318.344892 619.061272,317.630436 C618.068902,316.451605 618.382146,314.807074 619.758976,313.957415 Z" id="Path" fill="#1B223A" fill-rule="nonzero" transform="translate(645.866318, 326.366509) scale(-1, 1) translate(-645.866318, -326.366509) "></path>
            <g id="gymnast" transform="translate(540.303506, 296.616337)" fill="#1B223A" fill-rule="nonzero">
                <path d="M64.7924137,0.0504013917 C64.7770111,0.0504013917 50.7082814,0.0504013917 50.6959593,0.0504013917 L33.9333158,0.0504013917 L17.1783736,0.0504013917 L17.1783736,0.0596800449 C17.169132,0.0596800449 3.10040224,0.0596800449 3.0865399,0.0596800449 C1.38301296,0.0596800449 -0.000140023586,1.44838514 -0.000140023586,3.16648242 C-0.000140023586,4.87375461 1.38301296,6.26555259 3.0865399,6.26555259 C3.1019425,6.26555259 17.1706723,6.26555259 17.1783736,6.26555259 L24.2081177,6.26555259 L24.2081177,6.53617998 L24.1819332,62.0967553 C24.1819332,64.4164186 26.0518082,66.2937995 28.3575766,66.2937995 C30.663345,66.2937995 32.5378407,64.4164186 32.5378407,62.0967553 L32.5378407,28.0765734 L34.4061754,28.0765734 L34.4061754,62.1369628 L34.4354404,62.1694381 C34.4662456,64.4519868 36.3160971,66.292253 38.5941409,66.292253 C40.8845067,66.292253 42.7497608,64.4256973 42.7497608,62.1276842 L42.7312777,6.45885787 L42.7174154,6.26864548 L50.6944191,6.26864548 L50.6944191,6.26245971 C50.7098216,6.26245971 64.7785514,6.26245971 64.7893332,6.26245971 C66.5005615,6.26245971 67.8791143,4.87220817 67.8791143,3.15256444 C67.8852547,1.44838514 66.5082628,0.0504013917 64.7924137,0.0504013917 Z" id="Path"></path>
            </g>
            <path d="M526.152694,305.006029 C524.511546,301.808125 522.533336,300.207458 520.218624,300.207458 L507.272267,300.207458 C504.956995,300.207458 502.978561,301.809169 501.33831,305.006029 L492.707069,322.230871 C492.346915,322.947249 492.167231,323.741171 492.167231,324.606372 C492.167231,325.80471 492.481426,326.821419 493.111163,327.656348 C493.740226,328.49605 494.504473,328.913142 495.403792,328.913142 C496.550163,328.913142 497.448809,328.271473 498.101188,326.983812 L505.754197,311.690089 L507.271707,311.646248 L498.944236,340.607376 C498.741797,341.055486 498.641026,341.550121 498.641026,342.087703 C498.641026,342.86537 498.854338,343.538801 499.281747,344.106506 C499.708484,344.67585 500.214021,344.959777 500.799257,344.959777 L507.272379,344.959777 L507.272379,357.159682 C507.272379,358.535027 507.643518,359.715918 508.385122,360.702504 C509.126727,361.68894 510.014388,362.18283 511.048891,362.18283 L516.44357,362.18283 C517.4774,362.18283 518.365174,361.68894 519.107339,360.702504 C519.849728,359.715918 520.220194,358.535027 520.220194,357.159682 L520.220194,344.959777 L526.693989,344.959777 C527.278552,344.959777 527.784089,344.676 528.211386,344.106506 C528.638123,343.538801 528.852219,342.866265 528.852219,342.087703 C528.852219,341.55027 528.751336,341.055486 528.549009,340.607376 L520.220866,311.646248 L521.738264,311.690089 L529.392057,326.983812 C530.043539,328.271622 530.94297,328.913142 532.089229,328.913142 C532.987987,328.913142 533.752235,328.49605 534.381859,327.656348 C535.011034,326.820524 535.325902,325.80471 535.325902,324.606372 C535.325902,323.741171 535.145546,322.947249 534.786625,322.230871 L526.152694,305.006029 Z" id="Path" fill="#1B223A" fill-rule="nonzero"></path>
            <path d="M505.803749,281.913857 C503.615723,283.872415 502.521627,286.241503 502.521627,289.022316 C502.521627,291.804918 503.615556,294.173112 505.803749,296.132564 C507.991774,298.090973 510.639797,299.071296 513.74665,299.071296 C516.853503,299.071296 519.501359,298.092017 521.689551,296.132564 C523.877577,294.174155 524.971506,291.804918 524.971506,289.022316 C524.971506,286.241503 523.877577,283.873309 521.689551,281.913857 C519.501192,279.955299 516.853503,278.975125 513.74665,278.975125 C510.639797,278.975125 507.991774,279.954404 505.803749,281.913857 Z" id="Path" fill="#1B223A" fill-rule="nonzero"></path>
            <path d="M566.116993,277.937291 C563.928967,279.895849 562.834871,282.264938 562.834871,285.04575 C562.834871,287.828352 563.9288,290.196546 566.116993,292.155999 C568.305018,294.114407 570.953041,295.09473 574.059894,295.09473 C577.166747,295.09473 579.814603,294.115451 582.002795,292.155999 C584.190821,290.19759 585.28475,287.828352 585.28475,285.04575 C585.28475,282.264938 584.190821,279.896744 582.002795,277.937291 C579.814436,275.978733 577.166747,274.998559 574.059894,274.998559 C570.953041,274.998559 568.305018,275.977838 566.116993,277.937291 Z" id="Path" fill="#1B223A" fill-rule="nonzero"></path>
            <g id="gymnast" transform="translate(744.255278, 296.616337)" fill="#1B223A" fill-rule="nonzero">
                <path d="M64.7924137,0.0504013917 C64.7770111,0.0504013917 50.7082814,0.0504013917 50.6959593,0.0504013917 L33.9333158,0.0504013917 L17.1783736,0.0504013917 L17.1783736,0.0596800449 C17.169132,0.0596800449 3.10040224,0.0596800449 3.0865399,0.0596800449 C1.38301296,0.0596800449 -0.000140023586,1.44838514 -0.000140023586,3.16648242 C-0.000140023586,4.87375461 1.38301296,6.26555259 3.0865399,6.26555259 C3.1019425,6.26555259 17.1706723,6.26555259 17.1783736,6.26555259 L24.2081177,6.26555259 L24.2081177,6.53617998 L24.1819332,62.0967553 C24.1819332,64.4164186 26.0518082,66.2937995 28.3575766,66.2937995 C30.663345,66.2937995 32.5378407,64.4164186 32.5378407,62.0967553 L32.5378407,28.0765734 L34.4061754,28.0765734 L34.4061754,62.1369628 L34.4354404,62.1694381 C34.4662456,64.4519868 36.3160971,66.292253 38.5941409,66.292253 C40.8845067,66.292253 42.7497608,64.4256973 42.7497608,62.1276842 L42.7312777,6.45885787 L42.7174154,6.26864548 L50.6944191,6.26864548 L50.6944191,6.26245971 C50.7098216,6.26245971 64.7785514,6.26245971 64.7893332,6.26245971 C66.5005615,6.26245971 67.8791143,4.87220817 67.8791143,3.15256444 C67.8852547,1.44838514 66.5082628,0.0504013917 64.7924137,0.0504013917 Z" id="Path"></path>
            </g>
            <path d="M730.104467,305.006029 C728.463319,301.808125 726.485109,300.207458 724.170397,300.207458 L711.22404,300.207458 C708.908768,300.207458 706.930333,301.809169 705.290083,305.006029 L696.658842,322.230871 C696.298688,322.947249 696.119004,323.741171 696.119004,324.606372 C696.119004,325.80471 696.433199,326.821419 697.062935,327.656348 C697.691999,328.49605 698.456246,328.913142 699.355565,328.913142 C700.501936,328.913142 701.400582,328.271473 702.052961,326.983812 L709.70597,311.690089 L711.223479,311.646248 L702.896009,340.607376 C702.69357,341.055486 702.592799,341.550121 702.592799,342.087703 C702.592799,342.86537 702.806111,343.538801 703.23352,344.106506 C703.660257,344.67585 704.165794,344.959777 704.751029,344.959777 L711.224152,344.959777 L711.224152,357.159682 C711.224152,358.535027 711.595291,359.715918 712.336895,360.702504 C713.0785,361.68894 713.966161,362.18283 715.000663,362.18283 L720.395343,362.18283 C721.429173,362.18283 722.316946,361.68894 723.059111,360.702504 C723.8015,359.715918 724.171966,358.535027 724.171966,357.159682 L724.171966,344.959777 L730.645762,344.959777 C731.230324,344.959777 731.735862,344.676 732.163159,344.106506 C732.589895,343.538801 732.803992,342.866265 732.803992,342.087703 C732.803992,341.55027 732.703109,341.055486 732.500782,340.607376 L724.172639,311.646248 L725.690036,311.690089 L733.34383,326.983812 C733.995312,328.271622 734.894743,328.913142 736.041002,328.913142 C736.93976,328.913142 737.704007,328.49605 738.333632,327.656348 C738.962807,326.820524 739.277675,325.80471 739.277675,324.606372 C739.277675,323.741171 739.097318,322.947249 738.738398,322.230871 L730.104467,305.006029 Z" id="Path" fill="#1B223A" fill-rule="nonzero"></path>
            <path d="M709.755521,281.913857 C707.567496,283.872415 706.4734,286.241503 706.4734,289.022316 C706.4734,291.804918 707.567329,294.173112 709.755521,296.132564 C711.943547,298.090973 714.59157,299.071296 717.698423,299.071296 C720.805276,299.071296 723.453132,298.092017 725.641324,296.132564 C727.82935,294.174155 728.923279,291.804918 728.923279,289.022316 C728.923279,286.241503 727.82935,283.873309 725.641324,281.913857 C723.452965,279.955299 720.805276,278.975125 717.698423,278.975125 C714.59157,278.975125 711.943547,279.954404 709.755521,281.913857 Z" id="Path" fill="#1B223A" fill-rule="nonzero"></path>
            <path d="M770.068765,277.937291 C767.88074,279.895849 766.786644,282.264938 766.786644,285.04575 C766.786644,287.828352 767.880573,290.196546 770.068765,292.155999 C772.256791,294.114407 774.904814,295.09473 778.011667,295.09473 C781.11852,295.09473 783.766376,294.115451 785.954568,292.155999 C788.142594,290.19759 789.236523,287.828352 789.236523,285.04575 C789.236523,282.264938 788.142594,279.896744 785.954568,277.937291 C783.766209,275.978733 781.11852,274.998559 778.011667,274.998559 C774.904814,274.998559 772.256791,275.977838 770.068765,277.937291 Z" id="Path" fill="#1B223A" fill-rule="nonzero"></path>
            <path d="M632.759059,271.865771 C630.571033,273.824329 629.476937,276.193418 629.476937,278.97423 C629.476937,281.756832 630.570867,284.125026 632.759059,286.084479 C634.947085,288.042888 637.595107,289.02321 640.70196,289.02321 C643.808813,289.02321 646.456669,288.043931 648.644862,286.084479 C650.832887,284.12607 651.926817,281.756832 651.926817,278.97423 C651.926817,276.193418 650.832887,273.825224 648.644862,271.865771 C646.456503,269.907213 643.808813,268.927039 640.70196,268.927039 C637.595107,268.927039 634.947085,269.906318 632.759059,271.865771 Z" id="Path" fill="#1B223A" fill-rule="nonzero"></path>
        </g>
    </g>
</svg>