<?xml version="1.0" encoding="UTF-8"?>
<svg width="900px" height="351px" viewBox="0 0 900 351" version="1.1" xmlns="http://www.w3.org/2000/svg" xmlns:xlink="http://www.w3.org/1999/xlink">
    <!-- Generator: Sketch 62 (91390) - https://sketch.com -->
    <title>Group 19</title>
    <desc>Created with Sketch.</desc>
    <g id="Material-Components" stroke="none" stroke-width="1" fill="none" fill-rule="evenodd">
        <g id="Group-19" transform="translate(0.000000, 0.500000)">
            <rect id="Rectangle" fill="#F9F9F9" x="0" y="0" width="900" height="350"></rect>
            <rect id="Rectangle" stroke="#1B223A" stroke-width="3" fill="#FFFFFF" x="56.3735655" y="132.5" width="100.626435" height="39"></rect>
            <rect id="Rectangle" stroke="#1B223A" stroke-width="3" fill="#FFFFFF" x="157" y="132.5" width="100.626435" height="39"></rect>
            <rect id="Rectangle" stroke="#1B223A" stroke-width="3" fill="#FFFFFF" x="56.3735655" y="171.5" width="100.626435" height="39"></rect>
            <rect id="Rectangle" stroke="#1B223A" stroke-width="3" fill="#FFFFFF" x="157" y="171.5" width="100.626435" height="39"></rect>
            <rect id="Rectangle" stroke="#1B223A" stroke-width="3" fill="#FFFFFF" x="56.3735655" y="210.5" width="100.626435" height="39"></rect>
            <rect id="Rectangle" stroke="#1B223A" stroke-width="3" fill="#FFFFFF" x="157" y="210.5" width="100.626435" height="39"></rect>
            <rect id="Rectangle" stroke="#1B223A" stroke-width="3" fill="#FFFFFF" x="56.3735655" y="249.5" width="100.626435" height="39"></rect>
            <rect id="Rectangle" stroke="#1B223A" stroke-width="3" fill="#FFFFFF" x="157" y="249.5" width="100.626435" height="39"></rect>
            <g id="smart-key" transform="translate(93.186783, 138.500000)" fill-rule="nonzero">
                <path d="M24.6763125,12.8353887 C27.612457,9.89924414 27.612457,5.13822656 24.6763125,2.20208203 C21.740168,-0.7340625 16.9791504,-0.7340625 14.0430059,2.20208203 C11.5416563,4.70343164 11.1721465,8.52888867 12.9328945,11.4224766 L0.0123398437,24.343084 L2.53531055,26.8660547 L4.05369141,25.3476738 L5.7022207,26.9962031 L8.03576953,24.6626543 L6.38724023,23.014125 L8.80395117,20.5974141 L10.4524805,22.2459434 L12.7860293,19.9123945 L11.1375,18.2638652 L15.455918,13.9454473 C18.3495059,15.706248 22.1749629,15.3367383 24.6763125,12.8353887 Z M19.6068516,7.27149023 C18.8502715,6.51491016 18.8506406,5.2884668 19.6072207,4.53188672 C20.3634316,3.77567578 21.589875,3.77530664 22.3464551,4.53188672 C23.1030352,5.2884668 23.102666,6.51491016 22.3464551,7.27112109 C21.589875,8.02770117 20.3634844,8.02812305 19.6068516,7.27149023 Z" id="Shape" fill="#FF88CE"></path>
                <path d="M15.4558652,13.9454473 L11.1374473,18.2638652 L12.7859766,19.9123945 L10.4524277,22.2459434 L8.80389844,20.5974141 L6.3871875,23.014125 L8.0357168,24.6626543 L5.70216797,26.9962031 L4.05369141,25.3476738 L2.53531055,26.8660547 L1.27385156,25.6045957 L19.6069043,7.27154297 C20.3634844,8.02812305 21.5899277,8.02775391 22.3465078,7.27117383 C23.1027188,6.51496289 23.1030879,5.28851953 22.3465078,4.53193945 L24.6763125,2.20213477 C27.612457,5.1382793 27.612457,9.89929687 24.6763125,12.8354414 C22.1749629,15.3367383 18.3495059,15.706248 15.4558652,13.9454473 Z" id="Path" fill="#FF186E"></path>
            </g>
            <text id="Value" font-family="Roboto-Medium, Roboto" font-size="24" font-weight="400" letter-spacing="2.14285714" fill="#009BB3">
                <tspan x="171.864557" y="161">Value</tspan>
            </text>
            <g id="smart-key" transform="translate(93.186783, 177.500000)" fill-rule="nonzero">
                <path d="M24.6763125,12.8353887 C27.612457,9.89924414 27.612457,5.13822656 24.6763125,2.20208203 C21.740168,-0.7340625 16.9791504,-0.7340625 14.0430059,2.20208203 C11.5416563,4.70343164 11.1721465,8.52888867 12.9328945,11.4224766 L0.0123398437,24.343084 L2.53531055,26.8660547 L4.05369141,25.3476738 L5.7022207,26.9962031 L8.03576953,24.6626543 L6.38724023,23.014125 L8.80395117,20.5974141 L10.4524805,22.2459434 L12.7860293,19.9123945 L11.1375,18.2638652 L15.455918,13.9454473 C18.3495059,15.706248 22.1749629,15.3367383 24.6763125,12.8353887 Z M19.6068516,7.27149023 C18.8502715,6.51491016 18.8506406,5.2884668 19.6072207,4.53188672 C20.3634316,3.77567578 21.589875,3.77530664 22.3464551,4.53188672 C23.1030352,5.2884668 23.102666,6.51491016 22.3464551,7.27112109 C21.589875,8.02770117 20.3634844,8.02812305 19.6068516,7.27149023 Z" id="Shape" fill="#FF88CE"></path>
                <path d="M15.4558652,13.9454473 L11.1374473,18.2638652 L12.7859766,19.9123945 L10.4524277,22.2459434 L8.80389844,20.5974141 L6.3871875,23.014125 L8.0357168,24.6626543 L5.70216797,26.9962031 L4.05369141,25.3476738 L2.53531055,26.8660547 L1.27385156,25.6045957 L19.6069043,7.27154297 C20.3634844,8.02812305 21.5899277,8.02775391 22.3465078,7.27117383 C23.1027188,6.51496289 23.1030879,5.28851953 22.3465078,4.53193945 L24.6763125,2.20213477 C27.612457,5.1382793 27.612457,9.89929687 24.6763125,12.8354414 C22.1749629,15.3367383 18.3495059,15.706248 15.4558652,13.9454473 Z" id="Path" fill="#FF186E"></path>
            </g>
            <text id="Value" font-family="Roboto-Medium, Roboto" font-size="24" font-weight="400" letter-spacing="2.14285714" fill="#009BB3">
                <tspan x="171.864557" y="200">Value</tspan>
            </text>
            <g id="smart-key" transform="translate(93.186783, 216.500000)" fill-rule="nonzero">
                <path d="M24.6763125,12.8353887 C27.612457,9.89924414 27.612457,5.13822656 24.6763125,2.20208203 C21.740168,-0.7340625 16.9791504,-0.7340625 14.0430059,2.20208203 C11.5416563,4.70343164 11.1721465,8.52888867 12.9328945,11.4224766 L0.0123398437,24.343084 L2.53531055,26.8660547 L4.05369141,25.3476738 L5.7022207,26.9962031 L8.03576953,24.6626543 L6.38724023,23.014125 L8.80395117,20.5974141 L10.4524805,22.2459434 L12.7860293,19.9123945 L11.1375,18.2638652 L15.455918,13.9454473 C18.3495059,15.706248 22.1749629,15.3367383 24.6763125,12.8353887 Z M19.6068516,7.27149023 C18.8502715,6.51491016 18.8506406,5.2884668 19.6072207,4.53188672 C20.3634316,3.77567578 21.589875,3.77530664 22.3464551,4.53188672 C23.1030352,5.2884668 23.102666,6.51491016 22.3464551,7.27112109 C21.589875,8.02770117 20.3634844,8.02812305 19.6068516,7.27149023 Z" id="Shape" fill="#FF88CE"></path>
                <path d="M15.4558652,13.9454473 L11.1374473,18.2638652 L12.7859766,19.9123945 L10.4524277,22.2459434 L8.80389844,20.5974141 L6.3871875,23.014125 L8.0357168,24.6626543 L5.70216797,26.9962031 L4.05369141,25.3476738 L2.53531055,26.8660547 L1.27385156,25.6045957 L19.6069043,7.27154297 C20.3634844,8.02812305 21.5899277,8.02775391 22.3465078,7.27117383 C23.1027188,6.51496289 23.1030879,5.28851953 22.3465078,4.53193945 L24.6763125,2.20213477 C27.612457,5.1382793 27.612457,9.89929687 24.6763125,12.8354414 C22.1749629,15.3367383 18.3495059,15.706248 15.4558652,13.9454473 Z" id="Path" fill="#FF186E"></path>
            </g>
            <text id="Value" font-family="Roboto-Medium, Roboto" font-size="24" font-weight="400" letter-spacing="2.14285714" fill="#009BB3">
                <tspan x="171.864557" y="239">Value</tspan>
            </text>
            <g id="smart-key" transform="translate(93.186783, 255.500000)" fill-rule="nonzero">
                <path d="M24.6763125,12.8353887 C27.612457,9.89924414 27.612457,5.13822656 24.6763125,2.20208203 C21.740168,-0.7340625 16.9791504,-0.7340625 14.0430059,2.20208203 C11.5416563,4.70343164 11.1721465,8.52888867 12.9328945,11.4224766 L0.0123398437,24.343084 L2.53531055,26.8660547 L4.05369141,25.3476738 L5.7022207,26.9962031 L8.03576953,24.6626543 L6.38724023,23.014125 L8.80395117,20.5974141 L10.4524805,22.2459434 L12.7860293,19.9123945 L11.1375,18.2638652 L15.455918,13.9454473 C18.3495059,15.706248 22.1749629,15.3367383 24.6763125,12.8353887 Z M19.6068516,7.27149023 C18.8502715,6.51491016 18.8506406,5.2884668 19.6072207,4.53188672 C20.3634316,3.77567578 21.589875,3.77530664 22.3464551,4.53188672 C23.1030352,5.2884668 23.102666,6.51491016 22.3464551,7.27112109 C21.589875,8.02770117 20.3634844,8.02812305 19.6068516,7.27149023 Z" id="Shape" fill="#FF88CE"></path>
                <path d="M15.4558652,13.9454473 L11.1374473,18.2638652 L12.7859766,19.9123945 L10.4524277,22.2459434 L8.80389844,20.5974141 L6.3871875,23.014125 L8.0357168,24.6626543 L5.70216797,26.9962031 L4.05369141,25.3476738 L2.53531055,26.8660547 L1.27385156,25.6045957 L19.6069043,7.27154297 C20.3634844,8.02812305 21.5899277,8.02775391 22.3465078,7.27117383 C23.1027188,6.51496289 23.1030879,5.28851953 22.3465078,4.53193945 L24.6763125,2.20213477 C27.612457,5.1382793 27.612457,9.89929687 24.6763125,12.8354414 C22.1749629,15.3367383 18.3495059,15.706248 15.4558652,13.9454473 Z" id="Path" fill="#FF186E"></path>
            </g>
            <text id="Value" font-family="Roboto-Medium, Roboto" font-size="24" font-weight="400" letter-spacing="2.14285714" fill="#009BB3">
                <tspan x="171.864557" y="278">Value</tspan>
            </text>
            <text id="Hash-Tables" font-family="Roboto-Medium, Roboto" font-size="24" font-weight="400" letter-spacing="2.14285714" fill="#1B223A">
                <tspan x="78.8621652" y="77.5">Hash Tables</tspan>
            </text>
            <text id="Input" font-family="Roboto-Medium, Roboto" font-size="24" font-weight="400" letter-spacing="2.14285714" fill="#1B223A">
                <tspan x="369.258371" y="77.5">Input</tspan>
            </text>
            <text id="Hash-Sum" font-family="Roboto-Medium, Roboto" font-size="24" font-weight="400" letter-spacing="2.14285714" fill="#1B223A">
                <tspan x="708.13058" y="77.5">Hash Sum</tspan>
            </text>
            <text id="Under-the-covers" font-family="Roboto-Regular, Roboto" font-size="14" font-weight="normal" letter-spacing="1.25" fill="#1B223A">
                <tspan x="93.6760406" y="105.5">Under the covers</tspan>
            </text>
            <rect id="Rectangle" fill="#1B223A" x="708" y="116" width="137" height="49.5"></rect>
            <path id="Line-4" d="M505.534825,133.93078 L519.5,141 L505.465519,147.930608 L505.495,141.93 L468.99505,141.749988 L467.995062,141.745037 L468.004963,139.745062 L469.00495,139.750012 L505.504,139.93 L505.534825,133.93078 Z" fill="#1B223A" fill-rule="nonzero"></path>
            <path id="Line-4" d="M693.784825,134.05578 L707.75,141.125 L693.715519,148.055608 L693.745,142.055 L657.24505,141.874988 L656.245062,141.870037 L656.254963,139.870062 L657.25495,139.875012 L693.754,140.055 L693.784825,134.05578 Z" fill="#1B223A" fill-rule="nonzero"></path>
            <rect id="Rectangle" fill="#00BCD6" x="520" y="116" width="137" height="49.5"></rect>
            <rect id="Rectangle" fill="#F7A9C6" x="332" y="116" width="137" height="49.5"></rect>
            <text id="C" font-family="Roboto-Medium, Roboto" font-size="16" font-weight="400" letter-spacing="1.42857143" fill="#1B223A">
                <tspan x="394.899554" y="148">C</tspan>
            </text>
            <text id="Hash-Function" font-family="Roboto-Medium, Roboto" font-size="16" font-weight="400" letter-spacing="1.42857143" fill="#1B223A">
                <tspan x="527.022321" y="146">Hash Function</tspan>
            </text>
            <text id="4590398" font-family="Roboto-Medium, Roboto" font-size="16" font-weight="400" letter-spacing="1.42857143" fill="#FFFFFF">
                <tspan x="739.84375" y="146">4590398</tspan>
            </text>
            <rect id="Rectangle" fill="#1B223A" x="708.25" y="181.5" width="137" height="49.5"></rect>
            <path id="Line-4" d="M505.784825,199.43078 L519.75,206.5 L505.715519,213.430608 L505.745,207.43 L469.24505,207.249988 L468.245062,207.245037 L468.254963,205.245062 L469.25495,205.250012 L505.754,205.43 L505.784825,199.43078 Z" fill="#1B223A" fill-rule="nonzero"></path>
            <path id="Line-4" d="M694.034825,199.55578 L708,206.625 L693.965519,213.555608 L693.995,207.555 L657.49505,207.374988 L656.495062,207.370037 L656.504963,205.370062 L657.50495,205.375012 L694.004,205.555 L694.034825,199.55578 Z" fill="#1B223A" fill-rule="nonzero"></path>
            <rect id="Rectangle" fill="#00BCD6" x="520.25" y="181.5" width="137" height="49.5"></rect>
            <rect id="Rectangle" fill="#F7A9C6" x="332.25" y="181.5" width="137" height="49.5"></rect>
            <text id="Word" font-family="Roboto-Medium, Roboto" font-size="16" font-weight="400" letter-spacing="1.42857143" fill="#1B223A">
                <tspan x="381.223214" y="212.5">Word</tspan>
            </text>
            <text id="Hash-Function" font-family="Roboto-Medium, Roboto" font-size="16" font-weight="400" letter-spacing="1.42857143" fill="#1B223A">
                <tspan x="527.272321" y="211.5">Hash Function</tspan>
            </text>
            <text id="8493755" font-family="Roboto-Medium, Roboto" font-size="16" font-weight="400" letter-spacing="1.42857143" fill="#FFFFFF">
                <tspan x="740.09375" y="211.5">8493755</tspan>
            </text>
            <rect id="Rectangle" fill="#1B223A" x="708.25" y="244.25" width="137" height="49.5"></rect>
            <path id="Line-4" d="M505.784825,262.18078 L519.75,269.25 L505.715519,276.180608 L505.745,270.18 L469.24505,269.999988 L468.245062,269.995037 L468.254963,267.995062 L469.25495,268.000012 L505.754,268.18 L505.784825,262.18078 Z" fill="#1B223A" fill-rule="nonzero"></path>
            <path id="Line-4" d="M694.034825,262.30578 L708,269.375 L693.965519,276.305608 L693.995,270.305 L657.49505,270.124988 L656.495062,270.120037 L656.504963,268.120062 L657.50495,268.125012 L694.004,268.305 L694.034825,262.30578 Z" fill="#1B223A" fill-rule="nonzero"></path>
            <rect id="Rectangle" fill="#00BCD6" x="520.25" y="244.25" width="137" height="49.5"></rect>
            <rect id="Rectangle" fill="#F7A9C6" x="332.25" y="244.25" width="137" height="49.5"></rect>
            <text id="A-Sentence" font-family="Roboto-Medium, Roboto" font-size="16" font-weight="400" letter-spacing="1.42857143" fill="#1B223A">
                <tspan x="346.862723" y="274.25">A Sentence</tspan>
            </text>
            <text id="Hash-Function" font-family="Roboto-Medium, Roboto" font-size="16" font-weight="400" letter-spacing="1.42857143" fill="#1B223A">
                <tspan x="527.272321" y="274.25">Hash Function</tspan>
            </text>
            <text id="5740574" font-family="Roboto-Medium, Roboto" font-size="16" font-weight="400" letter-spacing="1.42857143" fill="#FFFFFF">
                <tspan x="740.09375" y="274.25">5740574</tspan>
            </text>
        </g>
    </g>
</svg>