<?xml version="1.0" encoding="UTF-8"?>
<svg width="900px" height="461px" viewBox="0 0 900 461" version="1.1" xmlns="http://www.w3.org/2000/svg" xmlns:xlink="http://www.w3.org/1999/xlink">
    <!-- Generator: Sketch 62 (91390) - https://sketch.com -->
    <title>Group 17</title>
    <desc>Created with Sketch.</desc>
    <g id="Material-Components" stroke="none" stroke-width="1" fill="none" fill-rule="evenodd">
        <g id="Group-17">
            <rect id="Rectangle" fill="#F9F9F9" x="0" y="0" width="900" height="461"></rect>
            <g id="exercise" transform="translate(331.000000, 43.000000)" fill-rule="nonzero">
                <path d="M119,375 C56.4435188,375 5.55040341,315.198218 5.55040341,241.691846 L5.40909091,146.197301 L16.2272727,146.17558 L16.3685852,241.680985 C16.3685852,308.189007 62.4085764,362.288136 119,362.288136 C175.591424,362.288136 221.631415,308.189007 221.631415,241.691846 L221.631415,146.186441 L232.449597,146.186441 L232.449597,241.691846 C232.449597,315.198218 181.556481,375 119,375 Z" id="Path" fill="#32475C"></path>
                <path d="M238,139.663665 C237.997194,146.775013 233.091802,152.539076 227.03983,152.542373 C220.49774,152.542373 214.517134,148.199036 211.590046,141.324153 L210.954545,139.830508 L154.030666,106.382336 L153.773815,106.23143 C152.868863,107.906886 151.779921,109.434875 150.535122,110.775922 C149.190832,112.227553 147.679474,113.44981 146.045455,114.40678 L146.045455,139.830508 L91.9545455,139.830508 L91.9545455,114.40678 C88.7969695,112.552575 86.1261978,109.727282 84.2263541,106.231462 L83.8476772,106.453919 L27.0454545,139.830508 L26.4099269,141.324153 C23.4801679,148.196152 17.5012592,152.537496 10.9601705,152.542373 C6.305742,152.541221 2.15934367,149.086577 0.618312058,143.925872 C-0.922719557,138.765167 0.477612413,133.02361 4.11099023,129.605403 L75.2066477,62.7727754 C79.0471633,59.1754656 83.8112196,57.2123898 88.7226136,57.2033898 L149.277589,57.2033898 C154.188914,57.2124436 158.952891,59.1755165 162.793352,62.7727754 L233.889023,129.605403 C236.486078,132.05255 238,135.751997 238,139.663665 L238,139.663665 Z" id="Path" fill="#F0DCD4"></path>
                <path d="M156.863636,93.8373941 C156.863636,98.1084484 155.85223,102.295258 153.942849,105.929555 L154.030666,106.382368 L153.773815,106.231462 C152.868863,107.906917 151.779921,109.434907 150.535122,110.775953 C149.19083,112.227574 147.679473,113.44982 146.045455,114.40678 L146.045455,139.830508 L91.9545455,139.830508 L91.9545455,114.40678 C88.7969695,112.552575 86.1261978,109.727282 84.2263541,106.231462 L83.8476772,106.453919 L84.0573201,105.929555 C82.1478868,102.295275 81.1363636,98.1084663 81.1363636,93.8373941 L81.1363636,58.8241525 C83.5616996,57.7526913 86.1315294,57.2033898 88.7226136,57.2033898 L149.277589,57.2033898 C151.868607,57.2033898 154.43837,57.7526967 156.863636,58.8241525 L156.863636,93.8373941 Z" id="Path" fill="#00BCD6"></path>
                <polygon id="Path" fill="#0095AE" points="69.9997216 234.795286 59.5 241.525424 64.9090909 286.016949 75.7272727 286.016949 86.5454545 254.237288"></polygon>
                <polygon id="Path" fill="#E1BAAA" points="93.5252102 219.717426 69.9997216 234.795286 86.5454545 254.237288 92.6347386 252.035752"></polygon>
                <path d="M156.863636,181.811441 L156.863636,205.34428 C156.863104,219.296216 149.118229,231.616067 137.76939,235.717691 L119,242.502648 L119,139.830508 L146.045455,139.830508 C153.096644,152.263927 156.860589,166.870258 156.863636,181.811441 L156.863636,181.811441 Z" id="Path" fill="#F0DCD4"></path>
                <path d="M119,139.830508 L119,292.372881 L91.9545455,292.372881 L84.7402245,203.389831 L82.9822159,181.708157 C81.7900471,166.952287 84.9584335,152.164091 91.9545455,139.830508 L119,139.830508 Z" id="Path" fill="#F0DCD4"></path>
                <path d="M129.818182,12.7118644 L137.275587,3.94905985 C139.427459,1.42051706 142.346021,0 145.389224,0 C148.432424,0 151.350983,1.42051278 153.502853,3.94905345 C155.654723,6.47759412 156.863633,9.90703359 156.863636,13.4829343 L156.863636,27.9308422 C156.863634,42.2478841 162.953007,55.6176648 173.090909,63.559322 L156.863596,63.559322 C144.914185,63.559322 135.227273,52.1767523 135.227273,38.1356409 L129.818182,25.4237288 L129.818182,12.7118644 Z" id="Path" fill="#F7A9C6"></path>
                <path d="M135.227273,31.779661 L135.089672,49.1060355 C135.227273,55.0223835 127.962079,63.559322 119,63.559322 C110.037925,63.559322 102.772727,55.0223787 102.772727,44.4915254 L102.772727,31.779661 L135.227273,31.779661 Z" id="Path" fill="#F0DCD4"></path>
                <path d="M135.227273,31.779661 L135.227273,25.4237288 C135.227273,14.8928755 127.962075,6.3559322 119,6.3559322 C110.037925,6.3559322 102.772727,14.8928755 102.772727,25.4237288 L102.772727,31.779661 L135.227273,31.779661 Z" id="Path" fill="#F7A9C6"></path>
                <path d="M119,241.525424 C116.012642,241.525424 113.590909,238.679776 113.590909,235.169492 L113.590909,203.389831 L124.409091,203.389831 L124.409091,235.169492 C124.409091,238.679776 121.987358,241.525424 119,241.525424 Z" id="Path" fill="#E1BAAA"></path>
                <polygon id="Path" fill="#0095AE" points="91.9545455 292.372881 86.5454545 305.084746 108.181818 343.220339 119 343.220339 119 292.372881"></polygon>
                <path d="M154.098347,159.883475 C152.268957,152.769706 149.555375,146.012462 146.045455,139.830508 L91.9545455,139.830508 C84.9584335,152.164091 81.7900471,166.952287 82.9822159,181.708157 L84.7402381,203.389831 L156.863637,203.389831 L156.863637,181.811441 C156.864478,174.382109 155.932686,166.993262 154.098347,159.883475 L154.098347,159.883475 Z" id="Path" fill="#F583C6"></path>
                <polygon id="Path" fill="#F82268" points="113.590909 171.610169 124.409091 171.610169 124.409091 203.389831 113.590909 203.389831"></polygon>
            </g>
            <g id="jump-rope" transform="translate(148.500000, 274.500000) rotate(-35.000000) translate(-148.500000, -274.500000) translate(78.000000, 204.000000)" fill-rule="nonzero">
                <path d="M117.467596,15.0123691 C108.34418,5.0173418 95.5580684,-0.305408203 81.46275,0.0134941406 C78.3321094,0.0853710938 75.1879746,0.4494375 72.0947871,1.09109766 C68.4571523,0.280898438 64.6093945,-0.0236835937 60.636334,0.223892578 C60.578502,0.227472656 60.5206699,0.23353125 60.4631133,0.242068359 C44.5226777,2.59693359 29.980125,12.8461465 19.5141797,29.1019043 C9.98373633,43.9044258 5.08949414,62.2322227 6.42183398,78.1283203 C6.51216211,79.2064746 7.41489258,80.0213555 8.477625,80.0213555 C8.53545703,80.0213555 8.59383984,80.018877 8.65249805,80.0139199 C9.78903516,79.9186348 10.6333828,78.9200684 10.5380977,77.7832559 C9.27928711,62.7637266 13.9333887,45.4011738 22.9874063,31.3380762 C32.7797461,16.1285273 46.2697559,6.54410742 60.9805723,4.3415332 C61.2961699,4.32253125 61.6087383,4.30738477 61.9221328,4.29609375 C61.4341406,4.50649219 60.9491777,4.72432617 60.4683457,4.94932031 C53.6124961,8.15817188 47.729877,12.6770566 42.9983906,18.3630469 C32.8921055,30.243123 21.8574785,53.8575938 35.2709297,66.6500391 C42.2019609,73.2605156 51.8086875,76.7805586 62.3189707,76.5698848 C72.4640859,76.3638926 82.1644453,72.5701113 88.9327207,66.1612207 C88.9396055,66.1546113 88.9467656,66.148002 88.9536504,66.1411172 C95.1331406,60.1224551 99.153293,52.6712109 100.57899,44.5929023 C101.91133,37.0447207 100.965088,29.3318555 97.842709,22.2881895 C94.2331641,14.1451641 88.2208359,7.91610352 80.7605039,4.1683125 C81.0257051,4.15784766 81.2909063,4.14986133 81.5569336,4.14352734 C94.4372285,3.84775781 106.10966,8.69738672 114.413789,17.7943652 C128.459813,33.24075 130.373227,56.5723945 130.392229,77.3586035 C130.39333,78.4987207 131.317816,79.4221055 132.457658,79.4221055 L132.459586,79.4221055 C133.600254,79.4210039 134.523089,78.495416 134.523089,77.354748 C134.503811,55.7798203 132.46234,31.5013828 117.467596,15.0123691 L117.467596,15.0123691 Z M94.0668281,23.9620137 C99.9769863,37.2947754 96.8427656,52.6836035 86.081877,63.1718555 C73.1167617,75.4352754 50.7096035,75.665502 38.1220488,63.6606738 C27.3699727,53.4065039 36.3408223,32.5641152 46.1593242,21.0222188 C52.7810918,13.0648066 61.8797227,7.59554883 71.9780215,5.31834375 C81.7877109,7.76160938 89.8136953,14.3676797 94.0668281,23.9620137 Z" id="Shape" fill="#1B223A"></path>
                <path d="M13.5866719,83.819543 L3.37325977,83.819543 L3.37325977,73.0815117 C3.37325977,72.2826035 4.02097852,71.6348848 4.81988672,71.6348848 L12.1400449,71.6348848 C12.9389531,71.6348848 13.5866719,72.2826035 13.5866719,73.0815117 L13.5866719,83.819543 Z" id="Path" fill="#1B223A"></path>
                <path d="M137.564502,83.819543 L127.35109,83.819543 L127.35109,73.0815117 C127.35109,72.2826035 127.998809,71.6348848 128.797717,71.6348848 L136.117875,71.6348848 C136.916783,71.6348848 137.564502,72.2826035 137.564502,73.0815117 L137.564502,83.819543 Z" id="Path" fill="#1B223A"></path>
                <path d="M17.0221699,132.354387 L0,132.354387 L0,82.5973594 C0,81.2435391 1.09743164,80.145832 2.45152734,80.145832 L14.5706426,80.145832 C15.9244629,80.145832 17.0221699,81.2432637 17.0221699,82.5973594 L17.0221699,132.354387 Z" id="Path" fill="#F583C6"></path>
                <path d="M14.5706426,80.145832 L6.05969531,80.145832 C7.41351563,80.145832 8.51122266,81.2432637 8.51122266,82.5973594 L8.51122266,132.354387 L17.0221699,132.354387 L17.0221699,82.5973594 C17.0221699,81.2435391 15.9244629,80.145832 14.5706426,80.145832 Z" id="Path" fill="#F82268"></path>
                <path d="M141,132.354387 L123.97783,132.354387 L123.97783,82.5973594 C123.97783,81.2435391 125.075262,80.145832 126.429357,80.145832 L138.548473,80.145832 C139.902293,80.145832 141,81.2432637 141,82.5973594 L141,132.354387 Z" id="Path" fill="#F583C6"></path>
                <path d="M138.548473,80.145832 L130.037525,80.145832 C131.391346,80.145832 132.489053,81.2432637 132.489053,82.5973594 L132.489053,132.354387 L141,132.354387 L141,82.5973594 C141,81.2435391 139.902568,80.145832 138.548473,80.145832 Z" id="Path" fill="#F82268"></path>
                <path d="M8.51094727,141 C3.81058008,141 0,137.18942 0,132.489053 L0,129.084674 L17.0221699,129.084674 L17.0221699,132.489053 C17.0221699,137.18942 13.2115898,141 8.51094727,141 Z" id="Path" fill="#0095AE"></path>
                <path d="M8.51094727,129.084398 L8.51094727,132.488777 C8.51094727,135.63842 6.79856836,138.386543 4.25533594,139.858506 C5.5078125,140.583059 6.96022266,141 8.51094727,141 C13.2115898,141 17.0218945,137.18942 17.0218945,132.489053 L17.0218945,129.084674 L8.51094727,129.084674 L8.51094727,129.084398 Z" id="Path" fill="#0095AE"></path>
                <path d="M132.489053,141 C127.78841,141 123.978105,137.18942 123.978105,132.489053 L123.978105,129.084674 L141,129.084674 L141,132.489053 C141,137.18942 137.18942,141 132.489053,141 Z" id="Path" fill="#0095AE"></path>
                <path d="M132.489053,129.084398 L132.489053,132.488777 C132.489053,135.63842 130.776674,138.386543 128.233441,139.858506 C129.485643,140.583059 130.938053,141 132.489053,141 C137.18942,141 141,137.18942 141,132.489053 L141,129.084674 L132.489053,129.084674 L132.489053,129.084398 Z" id="Path" fill="#0095AE"></path>
            </g>
            <g id="jump-rope" transform="translate(755.591964, 311.639746) rotate(-12.000000) translate(-755.591964, -311.639746) translate(685.091964, 241.139746)" fill-rule="nonzero">
                <path d="M117.467596,15.0123691 C108.34418,5.0173418 95.5580684,-0.305408203 81.46275,0.0134941406 C78.3321094,0.0853710938 75.1879746,0.4494375 72.0947871,1.09109766 C68.4571523,0.280898438 64.6093945,-0.0236835937 60.636334,0.223892578 C60.578502,0.227472656 60.5206699,0.23353125 60.4631133,0.242068359 C44.5226777,2.59693359 29.980125,12.8461465 19.5141797,29.1019043 C9.98373633,43.9044258 5.08949414,62.2322227 6.42183398,78.1283203 C6.51216211,79.2064746 7.41489258,80.0213555 8.477625,80.0213555 C8.53545703,80.0213555 8.59383984,80.018877 8.65249805,80.0139199 C9.78903516,79.9186348 10.6333828,78.9200684 10.5380977,77.7832559 C9.27928711,62.7637266 13.9333887,45.4011738 22.9874063,31.3380762 C32.7797461,16.1285273 46.2697559,6.54410742 60.9805723,4.3415332 C61.2961699,4.32253125 61.6087383,4.30738477 61.9221328,4.29609375 C61.4341406,4.50649219 60.9491777,4.72432617 60.4683457,4.94932031 C53.6124961,8.15817188 47.729877,12.6770566 42.9983906,18.3630469 C32.8921055,30.243123 21.8574785,53.8575938 35.2709297,66.6500391 C42.2019609,73.2605156 51.8086875,76.7805586 62.3189707,76.5698848 C72.4640859,76.3638926 82.1644453,72.5701113 88.9327207,66.1612207 C88.9396055,66.1546113 88.9467656,66.148002 88.9536504,66.1411172 C95.1331406,60.1224551 99.153293,52.6712109 100.57899,44.5929023 C101.91133,37.0447207 100.965088,29.3318555 97.842709,22.2881895 C94.2331641,14.1451641 88.2208359,7.91610352 80.7605039,4.1683125 C81.0257051,4.15784766 81.2909063,4.14986133 81.5569336,4.14352734 C94.4372285,3.84775781 106.10966,8.69738672 114.413789,17.7943652 C128.459813,33.24075 130.373227,56.5723945 130.392229,77.3586035 C130.39333,78.4987207 131.317816,79.4221055 132.457658,79.4221055 L132.459586,79.4221055 C133.600254,79.4210039 134.523089,78.495416 134.523089,77.354748 C134.503811,55.7798203 132.46234,31.5013828 117.467596,15.0123691 L117.467596,15.0123691 Z M94.0668281,23.9620137 C99.9769863,37.2947754 96.8427656,52.6836035 86.081877,63.1718555 C73.1167617,75.4352754 50.7096035,75.665502 38.1220488,63.6606738 C27.3699727,53.4065039 36.3408223,32.5641152 46.1593242,21.0222188 C52.7810918,13.0648066 61.8797227,7.59554883 71.9780215,5.31834375 C81.7877109,7.76160938 89.8136953,14.3676797 94.0668281,23.9620137 Z" id="Shape" fill="#1B223A"></path>
                <path d="M13.5866719,83.819543 L3.37325977,83.819543 L3.37325977,73.0815117 C3.37325977,72.2826035 4.02097852,71.6348848 4.81988672,71.6348848 L12.1400449,71.6348848 C12.9389531,71.6348848 13.5866719,72.2826035 13.5866719,73.0815117 L13.5866719,83.819543 Z" id="Path" fill="#1B223A"></path>
                <path d="M137.564502,83.819543 L127.35109,83.819543 L127.35109,73.0815117 C127.35109,72.2826035 127.998809,71.6348848 128.797717,71.6348848 L136.117875,71.6348848 C136.916783,71.6348848 137.564502,72.2826035 137.564502,73.0815117 L137.564502,83.819543 Z" id="Path" fill="#1B223A"></path>
                <path d="M17.0221699,132.354387 L0,132.354387 L0,82.5973594 C0,81.2435391 1.09743164,80.145832 2.45152734,80.145832 L14.5706426,80.145832 C15.9244629,80.145832 17.0221699,81.2432637 17.0221699,82.5973594 L17.0221699,132.354387 Z" id="Path" fill="#F583C6"></path>
                <path d="M14.5706426,80.145832 L6.05969531,80.145832 C7.41351563,80.145832 8.51122266,81.2432637 8.51122266,82.5973594 L8.51122266,132.354387 L17.0221699,132.354387 L17.0221699,82.5973594 C17.0221699,81.2435391 15.9244629,80.145832 14.5706426,80.145832 Z" id="Path" fill="#F82268"></path>
                <path d="M141,132.354387 L123.97783,132.354387 L123.97783,82.5973594 C123.97783,81.2435391 125.075262,80.145832 126.429357,80.145832 L138.548473,80.145832 C139.902293,80.145832 141,81.2432637 141,82.5973594 L141,132.354387 Z" id="Path" fill="#F583C6"></path>
                <path d="M138.548473,80.145832 L130.037525,80.145832 C131.391346,80.145832 132.489053,81.2432637 132.489053,82.5973594 L132.489053,132.354387 L141,132.354387 L141,82.5973594 C141,81.2435391 139.902568,80.145832 138.548473,80.145832 Z" id="Path" fill="#F82268"></path>
                <path d="M8.51094727,141 C3.81058008,141 0,137.18942 0,132.489053 L0,129.084674 L17.0221699,129.084674 L17.0221699,132.489053 C17.0221699,137.18942 13.2115898,141 8.51094727,141 Z" id="Path" fill="#0095AE"></path>
                <path d="M8.51094727,129.084398 L8.51094727,132.488777 C8.51094727,135.63842 6.79856836,138.386543 4.25533594,139.858506 C5.5078125,140.583059 6.96022266,141 8.51094727,141 C13.2115898,141 17.0218945,137.18942 17.0218945,132.489053 L17.0218945,129.084674 L8.51094727,129.084674 L8.51094727,129.084398 Z" id="Path" fill="#0095AE"></path>
                <path d="M132.489053,141 C127.78841,141 123.978105,137.18942 123.978105,132.489053 L123.978105,129.084674 L141,129.084674 L141,132.489053 C141,137.18942 137.18942,141 132.489053,141 Z" id="Path" fill="#0095AE"></path>
                <path d="M132.489053,129.084398 L132.489053,132.488777 C132.489053,135.63842 130.776674,138.386543 128.233441,139.858506 C129.485643,140.583059 130.938053,141 132.489053,141 C137.18942,141 141,137.18942 141,132.489053 L141,129.084674 L132.489053,129.084674 L132.489053,129.084398 Z" id="Path" fill="#0095AE"></path>
            </g>
        </g>
    </g>
</svg>