<?xml version="1.0" encoding="UTF-8"?>
<svg width="914px" height="640px" viewBox="0 0 914 640" version="1.1" xmlns="http://www.w3.org/2000/svg" xmlns:xlink="http://www.w3.org/1999/xlink">
    <!-- Generator: Sketch 62 (91390) - https://sketch.com -->
    <title>Filled_Wellbeing_Wheel</title>
    <desc>Created with Sketch.</desc>
    <g id="Filled_Wellbeing_Wheel" stroke="none" stroke-width="1" fill="none" fill-rule="evenodd">
        <rect fill="#FFFFFF" x="0" y="0" width="914" height="640"></rect>
        <g id="Group-10" transform="translate(15.238095, 574.693878)">
            <g id="Group-9">
                <g id="Group-8">
                    <path d="M101.243937,30.8106894 C102.536374,31.5177121 103.799715,31.8712234 105.033959,31.8712234 C106.268203,31.8712234 107.71994,31.9996381 109.389169,32.2564675 C109.938914,33.025472 110.07635,33.5359987 109.801477,33.7880476 C109.389169,34.1661209 108.160695,35.3604271 106.87606,35.3604271 C106.019637,35.3604271 105.026211,35.3604271 103.895782,35.3604271 C102.127886,34.7805003 101.243937,34.2563739 101.243937,33.7880476 C101.243937,33.3197214 100.786683,32.3272686 99.8721755,30.8106894 L99.3013802,29.6376484 L101.243937,30.8106894 Z" id="Path-6" fill="#D4067F"></path>
                    <path d="M83.3473303,5.23087124 C87.7063357,5.70137605 90.5972494,5.70137605 92.0200715,5.23087124 C94.1543047,4.52511402 99.7016926,3.07435119 101.576271,3.07435119 C103.45085,3.07435119 108.056023,2.68543543 111.136341,5.23087124 C113.189887,6.92782844 115.030455,8.77523777 116.658045,10.7730992 C118.637471,11.0992176 120.311973,11.0992176 121.68155,10.7730992 C123.051128,10.4469809 124.975785,9.5755479 127.45552,8.15880034 C127.790233,8.69234043 127.790233,9.26144193 127.45552,9.86610484 C126.953451,10.7730992 126.945771,11.4394897 126.015518,12.0696046 C125.085265,12.6997195 122.179749,16.2068589 116.658045,17.7543155 C111.136341,19.301772 111.078288,19.0605729 110.191312,19.8997746 C109.304335,20.7389763 107.764791,22.4630506 106.645867,23.0068191 C105.526942,23.5505875 100.509155,27.7530185 100.509155,28.2607498 C100.509155,28.7684812 99.1130721,30.8721943 101.576271,33.1621588 C104.039471,35.4521234 107.698206,38.2630209 107.698206,38.7918036 C107.698206,39.3205864 107.311539,40.3017958 106.645867,40.3017958 C105.980194,40.3017958 101.491479,38.5809328 100.509155,37.9012222 C99.5268304,37.2215117 98.2679636,36.2684897 97.5403681,35.4239359 C96.8127726,34.5793821 83.3473303,35.4239359 78.6904377,32.147053 C74.1062577,33.8083299 70.9234379,36.2971529 69.1419783,39.613522 C68.2065653,40.1613342 67.5573119,40.1613342 67.1942178,39.613522 C66.6495767,38.7918036 66.5204531,37.7738434 67.1942178,36.5988896 C67.8679825,35.4239359 69.1419783,34.4958901 69.1419783,33.8290245 C69.1419783,33.3844474 69.1419783,32.8237902 69.1419783,32.147053 C66.8365185,32.8237902 64.9641681,32.8237902 63.524927,32.147053 C62.9512008,32.147053 61.333931,33.4453418 58.6731176,36.0419195 C57.3490439,36.1815485 56.6870071,35.7364957 56.6870071,34.706761 C56.6870071,33.1621588 59.9298734,29.5891291 60.766186,29.5891291 C61.6024987,29.5891291 63.524927,28.8462643 63.524927,28.2607498 C63.524927,27.6752354 64.7842953,25.9468795 66.5939867,24.4768493 C67.8004476,23.4968291 68.6497781,23.0068191 69.1419783,23.0068191 C69.7142971,21.3788439 70.224341,20.3431624 70.6721102,19.8997746 C71.1198793,19.4563869 71.4718319,18.7412338 71.727968,17.7543155 C65.2234707,17.497417 60.5030132,18.2125701 57.5665954,19.8997746 C53.1619687,22.4305815 47.8981601,27.0354868 38.9136928,30.8711239 C29.9292254,34.706761 14.7711033,33.8290245 14.7711033,33.8290245 C14.7711033,33.8290245 4.03027387,32.6533571 -2.59855629e-14,23.5248977 C7.08314916,25.0353656 13.0913241,23.1118382 18.0245247,17.7543155 C28.6891231,9.94174717 38.755836,5.76726576 48.2246633,5.23087124 C57.6934907,4.69447672 66.4471541,8.65380566 74.4856535,17.1088581 C78.7088504,16.7943611 82.8369345,17.477164 86.8699058,19.1572667 C91.1937276,19.652272 93.6209224,19.1846216 94.1514901,17.7543155 C94.9297498,16.3458933 95.1243148,14.6007677 94.7351849,12.5189385 C90.3937713,12.5189385 86.5978198,10.0895827 83.3473303,5.23087124 Z" id="Path-4" fill="#FF88CE"></path>
                    <path d="M98.5426258,4.01997019 C93.1466092,1.91671473 90.0557562,0.600919898 89.2700669,0.0725856952 C88.091533,-0.719915609 90.1737284,5.23843091 92.3820774,5.23843091 C93.8543102,5.23843091 95.4862503,5.05568866 97.2778979,4.69020416 L98.5426258,4.01997019 Z" id="Path-5" fill="#D4067F"></path>
                    <path d="M111.130952,5.23087124 C113.184497,6.92782844 115.025065,8.77523777 116.652656,10.7730992 C117.190362,10.8616885 117.705568,10.9262128 118.198272,10.9666719 C116.168391,12.1324676 114.602837,12.8047923 113.499882,12.9837003 C111.195059,13.3575609 109.20243,13.7277223 106.908594,13.7277223 L101.825727,13.7277223 L101.825727,13.7277223 C101.139646,18.2704406 99.2302277,21.4840138 96.0974711,23.368442 C91.3983362,26.1950844 84.8729489,21.6124486 84.2662246,20.6374843 C83.9707882,20.1627384 83.6720652,19.2700098 83.3700557,17.9592986 C84.5429058,18.2754289 85.7076243,18.675315 86.8645162,19.1572667 C91.188338,19.652272 93.6155328,19.1846216 94.1461005,17.7543155 C94.9243602,16.3458933 95.1189252,14.6007677 94.7297953,12.5189385 C90.3883817,12.5189385 86.5924302,10.0895827 83.3419407,5.23087124 C87.7009461,5.70137605 90.5918598,5.70137605 92.0146819,5.23087124 C94.1489151,4.52511402 99.696303,3.07435119 101.570882,3.07435119 C103.44546,3.07435119 108.050633,2.68543543 111.130952,5.23087124 Z" id="Combined-Shape" fill="#FF186E"></path>
                    <path d="M53.1192003,13.7885164 C56.9742423,13.7885164 60.3726366,13.5116361 64.1507513,14.8045054 C66.6694944,15.6664182 68.7973531,16.6791646 70.5343274,17.8427446 L70.3439664,17.7190317 C64.5778707,17.616879 60.3371959,18.3458668 57.6219421,19.9059952 C53.2173154,22.4368021 47.9535068,27.0417074 38.9690395,30.8773445 C30.0843995,34.6703633 15.1625349,33.8541684 14.8320348,33.8355625 C14.8264499,33.835245 9.3702352,33.2380199 4.77625279,29.5898443 C11.4595137,26.9300826 15.3837197,25.318536 16.5480227,24.7546996 C18.4465342,23.8353084 24.145172,21.7342389 26.7232379,20.3026963 C29.3013039,18.8711536 35.7839767,15.7546959 40.7726435,14.5021435 C45.0082284,13.7885164 49.2641583,13.7885164 53.1192003,13.7885164 Z" id="Combined-Shape" fill="#FF186E"></path>
                    <path d="M17.6074153,18.186451 C17.7736724,21.260041 18.3084399,24.1906618 19.2117178,26.9783133 C20.1328328,29.821013 21.8699273,32.0787198 24.4230012,33.7514335 C19.1703812,34.0881169 14.9517247,33.8568336 14.7777188,33.8470207 C14.7721339,33.8467028 4.0313045,32.6689993 0.00103063244,23.524731 C6.80640923,24.9784782 12.6194721,23.2567922 17.4402193,18.359673 Z" id="Combined-Shape" fill="#FFFFFF"></path>
                    <path d="M63.6896961,15.7782548 C65.4279728,15.7782548 66.7940526,16.0127731 67.7879355,16.4818097 L67.7879355,16.4818097 L69.1299866,17.6062272 C64.7230762,17.7479936 61.3838224,18.4714831 59.112225,19.7766957 C54.7075984,22.3075026 49.4437898,26.9124079 40.4593224,30.7480449 C36.2126347,32.5610353 30.5866483,33.3209785 25.834051,33.6183093 C28.9973366,32.4988855 32.9395715,30.5643842 36.4328975,28.5266455 C42.8682071,24.7727789 42.8693712,24.8846276 44.9602503,23.3348774 C47.0511293,21.7851271 51.7951113,17.2062565 55.3613915,16.4818097 C58.4413608,15.8561511 60.4684103,15.7864166 62.6435584,15.7790323 Z" id="Combined-Shape" fill="#D4067F"></path>
                    <path d="M107.289952,3.43970077 L107.168719,3.61559406 C105.577535,5.84489892 102.827825,7.45039445 98.9195908,8.43208065 C94.3406638,9.58223405 89.4402208,8.92608825 84.2182617,6.46364324 C83.9219072,6.07233938 83.6297853,5.66113063 83.3419407,5.23087124 C87.7009461,5.70137605 90.5918598,5.70137605 92.0146819,5.23087124 C94.1489151,4.52511402 99.696303,3.07435119 101.570882,3.07435119 C102.749947,3.07435119 105.009264,2.92049196 107.289952,3.43970077 Z" id="Combined-Shape" fill="#FF88CE"></path>
                </g>
                <path d="M124.959521,13.1010171 C124.029268,13.731132 121.661065,16.7889376 116.139361,18.3363941 C110.617657,19.8838507 110.559604,19.6426516 109.672627,20.4818533 C108.78565,21.321055 107.246107,23.0451293 106.127182,23.5888977 C105.013665,24.1300387 101.48363,26.90778 100.418749,28.4473364 L100.364546,28.4412962 L98.7826957,28.4412962 C98.2554124,27.3213006 98.2554124,26.536081 98.7826957,26.0856374 C99.5736208,25.4099721 103.176261,22.4684271 103.176261,20.8103538 C103.176261,19.1522805 102.280777,14.2930793 103.176261,14.2930793 C104.071746,14.2930793 106.283873,15.0549131 107.837193,15.0549131 L115.361797,15.0549131 C118.378949,14.9918393 120.356479,14.7378947 121.294387,14.2930793 C122.232296,13.8482638 123.511992,13.2865194 125.133477,12.6078459 L126.101263,11.8895912 C125.787624,12.3563904 125.420972,12.7884494 124.959521,13.1010171 Z" id="Combined-Shape" fill="#FFFFFF"></path>
            </g>
            <path d="M76.915948,28.3063675 C77.1935357,28.7199009 78.0043821,29.3829137 79.3484872,30.2954058 C80.2301295,30.9469701 81.609636,31.5210407 83.4870068,32.0176176 C86.3030629,32.762483 90.6479018,33.2347094 91.6987137,33.2347094 C92.3992549,33.2347094 93.5022848,32.986421 95.0078032,32.4898441 L95.0078032,32.4898441 L96.2513051,34.1089939 L97.4359257,35.3296959 C95.8760554,34.625738 83.2023513,35.296579 78.7133845,32.1378594 C74.1292045,33.7991362 70.9463847,36.2879592 69.164925,39.6043283 C68.2295121,40.1521406 67.5802586,40.1521406 67.2171646,39.6043283 C66.6725235,38.78261 66.5433999,37.7646497 67.2171646,36.589696 C67.8909293,35.4147422 69.164925,34.4866965 69.164925,33.8198308 L69.164925,32.1378594 C66.8594653,32.8145966 64.9871149,32.8145966 63.5478738,32.1378594 C63.493051,32.1378594 63.4286999,32.1497139 63.3548202,32.1734229 L63.8762241,31.5068704 C64.1884235,31.5059207 64.4209654,31.5044962 64.5738497,31.5025969 C70.281516,31.4316898 75.1918531,30.1420694 76.915948,28.3063675 Z M58.6960644,36.0327258 C58.2369896,36.0811371 57.8574987,36.0592636 57.5575915,35.9671051 L58.8755502,35.8580052 C58.8162587,35.9155772 58.7564301,35.9738174 58.6960644,36.0327258 Z" id="Combined-Shape" fill="#D4067F"></path>
            <path d="" id="Path-7" stroke="#979797" stroke-width="2.17687075"></path>
            <path d="M107.737073,38.8201813 C107.737073,39.348964 107.350406,40.3301735 106.684733,40.3301735 C106.147252,40.3301735 103.117391,39.2082804 101.453291,38.4183919 C102.322611,38.3273395 103.010169,38.1764575 103.518188,37.9663193 C104.249782,37.6637008 104.71769,37.0367177 104.921911,36.0853699 C106.468163,37.4058938 107.737073,38.5087752 107.737073,38.8201813 Z M61.5417389,29.5045421 L61.5427657,33.4600449 C60.7882819,34.0948543 59.844688,34.9649384 58.7119842,36.0702971 C57.3879105,36.2099262 56.7258737,35.7648734 56.7258737,34.7351386 C56.7258737,33.1905365 59.9687401,29.6175068 60.8050527,29.6175068 C61.0030465,29.6175068 61.2619157,29.5758701 61.5417389,29.5045421 Z" id="Combined-Shape" fill="#009BB3"></path>
            <path d="M109.389169,32.2564675 C109.938914,33.025472 110.07635,33.5359987 109.801477,33.7880476 C109.389169,34.1661209 108.160695,35.3604271 106.87606,35.3604271 L104.92318,35.3588155 C105.090302,35.0672869 105.245892,34.8289889 105.389947,34.6439214 C105.517317,34.48029 105.891561,33.5746135 106.512678,31.9268921 C107.386116,31.985423 108.345098,32.0958256 109.389169,32.2564675 Z" id="Combined-Shape" fill="#009BB3"></path>
            <path d="M127.45552,8.15880034 C127.790233,8.69234043 127.790233,9.26144193 127.45552,9.86610484 C126.953451,10.7730992 126.945771,11.4394897 126.015518,12.0696046 C125.988981,12.08758 125.960836,12.1078967 125.931068,12.1304424 C125.769358,12.350262 125.593532,12.5579544 125.398805,12.744158 L125.398577,9.27396402 C126.035548,8.95006307 126.721196,8.57834184 127.45552,8.15880034 Z" id="Combined-Shape" fill="#442E12"></path>
            <path d="M114.239461,9.97240012 C114.936718,9.97240012 115.501957,10.8295633 115.501957,11.8869277 C115.501957,12.359315 115.389139,12.7917434 115.202133,13.1256313 C115.025761,12.9996492 114.834302,12.9314547 114.634595,12.9314547 C114.261743,12.9314547 113.917643,13.1691563 113.640721,13.5703611 C113.24548,13.2493702 112.976965,12.6157014 112.976965,11.8869277 C112.976965,10.8295633 113.542204,9.97240012 114.239461,9.97240012 Z" id="Combined-Shape" fill="#442E12"></path>
            <ellipse id="Oval" fill="#FFFFFF" cx="114.867925" cy="10.7028057" rx="1" ry="1"></ellipse>
            <path d="M111.91931,15.7110279 C112.136095,17.3580943 113.258845,18.1816275 115.287561,18.1816275" id="Path-18" stroke="#442E12" stroke-width="0.870748299" stroke-linecap="round"></path>
            <path d="M70.1750282,33.3032284 C70.1750282,33.8139613 70.3446068,35.168448 70.6837639,37.3666883 C70.0968504,38.0658723 69.5908372,38.8114493 69.164925,39.6043283 C68.2295121,40.1521406 67.5802586,40.1521406 67.2171646,39.6043283 C66.6725235,38.78261 66.5433999,37.7646497 67.2171646,36.589696 C67.8909293,35.4147422 69.164925,34.4866965 69.164925,33.8198308 L69.1643916,32.8677716 C69.8381493,32.6833528 70.1750282,32.828505 70.1750282,33.3032284 Z" id="Combined-Shape" fill="#009BB3"></path>
            <path d="M98.6008135,27.9183755 L100.656243,28.1324604 C100.600244,28.2016378 100.547862,28.2691105 100.499434,28.3346383 C100.450776,28.6366301 100.135222,29.2855712 100.11599,30.1297437 L100.085727,30.1150145 C99.6701055,29.8862155 99.1751343,29.1540025 98.6008135,27.9183755 L98.6008135,27.9183755 Z" id="Combined-Shape" fill="#FFFFFF"></path>
        </g>
        <g id="Wellbeing-Wheel" transform="translate(406.400000, 135.400000)">
            <polygon id="Polygon" stroke="#1D243A" stroke-width="1.6" points="236.564763 16.6 368.228659 59.3801933 449.601423 171.380193 449.601423 309.819807 368.228659 421.819807 236.564763 464.6 104.900866 421.819807 23.5281032 309.819807 23.5281032 171.380193 104.900866 59.3801933"></polygon>
            <path d="M236.564763,39 L355.06227,77.5021739 L428.297757,178.302174 L428.297757,302.897826 L355.06227,403.697826 L236.564763,442.2 L118.067256,403.697826 L44.8317692,302.897826 L44.8317692,178.302174 L118.067256,77.5021739 L236.564763,39 Z" id="Polygon" stroke="#C0C2C8" stroke-width="1.6" stroke-dasharray="1.6,3.2"></path>
            <polygon id="Polygon" stroke="#C0C2C8" stroke-width="1.6" points="236.564763 61.4 341.89588 95.6241546 406.994091 185.224155 406.994091 295.975845 341.89588 385.575845 236.564763 419.8 131.233646 385.575845 66.1354352 295.975845 66.1354352 185.224155 131.233646 95.6241546"></polygon>
            <path d="M236.564763,83.8 L328.72949,113.746135 L385.690425,192.146135 L385.690425,289.053865 L328.72949,367.453865 L236.564763,397.4 L144.400035,367.453865 L87.4391011,289.053865 L87.4391011,192.146135 L144.400035,113.746135 L236.564763,83.8 Z" id="Polygon" stroke="#C0C2C8" stroke-width="1.6" stroke-dasharray="1.6,3.2"></path>
            <polygon id="Polygon" stroke="#C0C2C8" stroke-width="1.6" points="236.564763 106.2 315.563101 131.868116 364.386759 199.068116 364.386759 282.131884 315.563101 349.331884 236.564763 375 157.566425 349.331884 108.742767 282.131884 108.742767 199.068116 157.566425 131.868116"></polygon>
            <path d="M236.564763,128.6 L302.396711,149.990097 L343.083093,205.990097 L343.083093,275.209903 L302.396711,331.209903 L236.564763,352.6 L170.732815,331.209903 L130.046433,275.209903 L130.046433,205.990097 L170.732815,149.990097 L236.564763,128.6 Z" id="Polygon" stroke="#C0C2C8" stroke-width="1.6" stroke-dasharray="1.6,3.2"></path>
            <polygon id="Polygon" stroke="#C0C2C8" stroke-width="1.6" points="236.564763 151 289.230322 168.112077 321.779427 212.912077 321.779427 268.287923 289.230322 313.087923 236.564763 330.2 183.899204 313.087923 151.350099 268.287923 151.350099 212.912077 183.899204 168.112077"></polygon>
            <path d="M236.564763,173.4 L276.063932,186.234058 L300.475761,219.834058 L300.475761,261.365942 L276.063932,294.965942 L236.564763,307.8 L197.065594,294.965942 L172.653765,261.365942 L172.653765,219.834058 L197.065594,186.234058 L236.564763,173.4 Z" id="Polygon" stroke="#C0C2C8" stroke-width="1.6" stroke-dasharray="1.6,3.2"></path>
            <polygon id="Polygon" stroke="#C0C2C8" stroke-width="1.6" points="236.8 195.8 263.132779 204.356039 279.407332 226.756039 279.407332 254.443961 263.132779 276.843961 236.8 285.4 210.467221 276.843961 194.192668 254.443961 194.192668 226.756039 210.467221 204.356039"></polygon>
            <path d="M236.564763,219 L249.731153,223.278019 L257.868429,234.478019 L257.868429,248.321981 L249.731153,259.521981 L236.564763,263.8 L223.398373,259.521981 L215.261097,248.321981 L215.261097,234.478019 L223.398373,223.278019 L236.564763,219 Z" id="Polygon" stroke="#C0C2C8" stroke-width="1.6" stroke-dasharray="1.6,3.2"></path>
            <path d="M355.06227,77.5021739 L429.463898,179 L364.385769,199.799174 L364.386759,282.131884 L315.584769,349.301 L341.89588,385.575845 L236.564763,419.8 L236.737189,240.6 L355.06227,77.5021739 Z M236.737189,240.6 L236.564763,330.2 L183.976769,313.112 L118.067256,403.697826 L44.8317692,302.897826 L236.737189,240.6 Z M170.732815,149.990097 L236.737189,240.6 L87.4391011,289.053865 L87.4391011,192.146135 L130.054769,205.977 L170.732815,149.990097 Z M236.564763,83.8 L236.737189,240.6 L144.400035,113.746135 L236.564763,83.8 Z M236.564763,60.3815071 L341.89588,95.6241546 L236.737189,240.6 L236.564763,60.3815071 Z" id="Combined-Shape" fill-opacity="0.335418488" fill="#FF186E"></path>
            <text id="Family" transform="translate(465.631703, 239.800000) rotate(90.000000) translate(-465.631703, -239.800000) " font-family="Roboto-Regular, Roboto" font-size="13.0612245" font-weight="normal" letter-spacing="0.0960384071" fill="#1D243A">
                <tspan x="445.631703" y="244.8">Family</tspan>
            </text>
            <text id="Romance" transform="translate(419.817532, 104.048521) rotate(55.000000) translate(-419.817532, -104.048521) " font-family="Roboto-Regular, Roboto" font-size="13.0612245" font-weight="normal" letter-spacing="0.0960384071" fill="#1D243A">
                <tspan x="391.317532" y="109.048521">Romance</tspan>
            </text>
            <text id="Friends" transform="translate(417.876022, 374.255092) rotate(-53.000000) translate(-417.876022, -374.255092) " font-family="Roboto-Regular, Roboto" font-size="13.0612245" font-weight="normal" letter-spacing="0.0960384071" fill="#1D243A">
                <tspan x="395.376022" y="379.255092">Friends</tspan>
            </text>
            <text id="Emotional-Health" transform="translate(162.052278, 25.152030) rotate(-18.000000) translate(-162.052278, -25.152030) " font-family="Roboto-Regular, Roboto" font-size="13.0612245" font-weight="normal" letter-spacing="0.0960384071" fill="#1D243A">
                <tspan x="110.052278" y="30.1520303">Emotional Health</tspan>
            </text>
            <text id="Physical-Health" transform="translate(309.007227, 23.935652) rotate(19.000000) translate(-309.007227, -23.935652) " font-family="Roboto-Regular, Roboto" font-size="13.0612245" font-weight="normal" letter-spacing="0.0960384071" fill="#1D243A">
                <tspan x="262.007227" y="28.9356519">Physical Health</tspan>
            </text>
            <text id="Recreation" transform="translate(158.352942, 452.206796) rotate(18.000000) translate(-158.352942, -452.206796) " font-family="Roboto-Regular, Roboto" font-size="13.0612245" font-weight="normal" letter-spacing="0.0960384071" fill="#1D243A">
                <tspan x="125.852942" y="457.206796">Recreation</tspan>
            </text>
            <text id="Personal-Growth" transform="translate(309.412576, 453.165230) rotate(-18.000000) translate(-309.412576, -453.165230) " font-family="Roboto-Regular, Roboto" font-size="13.0612245" font-weight="normal" letter-spacing="0.0960384071" fill="#1D243A">
                <tspan x="259.412576" y="458.16523">Personal Growth</tspan>
            </text>
            <text id="Career" transform="translate(51.711902, 371.495083) rotate(54.000000) translate(-51.711902, -371.495083) " font-family="Roboto-Regular, Roboto" font-size="13.0612245" font-weight="normal" letter-spacing="0.0960384071" fill="#1D243A">
                <tspan x="32.2119024" y="376.495083">Career</tspan>
            </text>
            <text id="Finance" transform="translate(9.854956, 239.027669) rotate(-90.000000) translate(-9.854956, -239.027669) " font-family="Roboto-Regular, Roboto" font-size="13.0612245" font-weight="normal" letter-spacing="0.0960384071" fill="#1D243A">
                <tspan x="-14.1450437" y="244.027669">Finance</tspan>
            </text>
            <text id="Food" transform="translate(52.507870, 107.524060) rotate(-53.000000) translate(-52.507870, -107.524060) " font-family="Roboto-Regular, Roboto" font-size="13.0612245" font-weight="normal" letter-spacing="0.0960384071" fill="#1D243A">
                <tspan x="37.0078701" y="112.52406">Food</tspan>
            </text>
            <line x1="240.8" y1="240.8" x2="240.8" y2="240.8" id="Line-4" stroke="#979797" stroke-width="1.6" stroke-linecap="square"></line>
            <rect id="Rectangle" fill="#C0C2C8" x="238.4" y="239.2" width="1.6" height="1.6"></rect>
            <line x1="105.6" y1="421.153189" x2="367.66694" y2="59.7815071" id="Line-5" stroke="#1D243A" stroke-width="1.6" stroke-linecap="square"></line>
            <line x1="236.8" y1="463.569946" x2="237.007439" y2="17.2463999" id="Line-5" stroke="#1D243A" stroke-width="1.6" stroke-linecap="square"></line>
            <line x1="449.129526" y1="309.136645" x2="24" y2="171.142271" id="Line-5" stroke="#1D243A" stroke-width="1.6" stroke-linecap="square"></line>
            <line x1="449.6" y1="309.6" x2="24" y2="171.142271" id="Line-5" stroke="#1D243A" stroke-width="1.6" stroke-linecap="square" transform="translate(236.800000, 240.000000) scale(-1, 1) translate(-236.800000, -240.000000) "></line>
            <line x1="106.965848" y1="421.153189" x2="369.598851" y2="59.7815071" id="Line-5" stroke="#1D243A" stroke-width="1.6" stroke-linecap="square" transform="translate(237.600000, 240.800000) scale(-1, 1) translate(-237.600000, -240.800000) "></line>
            <g id="Group" transform="translate(232.000000, 11.200000)">
                <rect id="Rectangle" stroke="#1D243A" stroke-width="1.6" fill="#1D243A" x="0" y="0" width="9.6" height="9.6" rx="1.6"></rect>
                <text id="10" font-family="Roboto-Medium, Roboto" font-size="8" font-weight="400" letter-spacing="0.0588235259" fill="#FFFFFF">
                    <tspan x="0.103719288" y="8">10</tspan>
                </text>
            </g>
            <g id="Group" transform="translate(232.103719, 33.600000)">
                <rect id="Rectangle" stroke="#1D243A" stroke-width="1.6" fill="#1D243A" x="-9.09494702e-14" y="0" width="9.6" height="9.6" rx="1.6"></rect>
                <text id="9" font-family="Roboto-Medium, Roboto" font-size="8" font-weight="400" letter-spacing="0.0588235259" fill="#FFFFFF">
                    <tspan x="2.60087002" y="8">9</tspan>
                </text>
            </g>
            <g id="Group" transform="translate(232.207439, 56.000000)">
                <rect id="Rectangle" stroke="#1D243A" stroke-width="1.6" fill="#1D243A" x="-9.09494702e-14" y="0" width="9.6" height="9.6" rx="1.6"></rect>
                <text id="8" font-family="Roboto-Medium, Roboto" font-size="8" font-weight="400" letter-spacing="0.0588235259" fill="#FFFFFF">
                    <tspan x="2.60087002" y="8">8</tspan>
                </text>
            </g>
            <g id="Group" transform="translate(231.764763, 78.400000)">
                <rect id="Rectangle" stroke="#1D243A" stroke-width="1.6" fill="#1D243A" x="-9.09494702e-14" y="0" width="9.6" height="9.6" rx="1.6"></rect>
                <text id="7" font-family="Roboto-Medium, Roboto" font-size="8" font-weight="400" letter-spacing="0.0588235259" fill="#FFFFFF">
                    <tspan x="2.60087002" y="8">7</tspan>
                </text>
            </g>
            <g id="Group" transform="translate(232.207439, 100.800000)">
                <rect id="Rectangle" stroke="#1D243A" stroke-width="1.6" fill="#1D243A" x="-9.09494702e-14" y="0" width="9.6" height="9.6" rx="1.6"></rect>
                <text id="6" font-family="Roboto-Medium, Roboto" font-size="8" font-weight="400" letter-spacing="0.0588235259" fill="#FFFFFF">
                    <tspan x="2.60087002" y="8">6</tspan>
                </text>
            </g>
            <g id="Group" transform="translate(232.117076, 123.200000)">
                <rect id="Rectangle" stroke="#1D243A" stroke-width="1.6" fill="#1D243A" x="-9.09494702e-14" y="0" width="9.6" height="9.6" rx="1.6"></rect>
                <text id="5" font-family="Roboto-Medium, Roboto" font-size="8" font-weight="400" letter-spacing="0.0588235259" fill="#FFFFFF">
                    <tspan x="2.60087002" y="8">5</tspan>
                </text>
            </g>
            <g id="Group" transform="translate(231.833470, 168.000000)">
                <rect id="Rectangle" stroke="#1D243A" stroke-width="1.6" fill="#1D243A" x="-9.09494702e-14" y="0" width="9.6" height="9.6" rx="1.6"></rect>
                <text id="3" font-family="Roboto-Medium, Roboto" font-size="8" font-weight="400" letter-spacing="0.0588235259" fill="#FFFFFF">
                    <tspan x="2.60087002" y="8">3</tspan>
                </text>
            </g>
            <g id="Group" transform="translate(231.833470, 190.400000)">
                <rect id="Rectangle" stroke="#1D243A" stroke-width="1.6" fill="#1D243A" x="-9.09494702e-14" y="0" width="9.6" height="9.6" rx="1.6"></rect>
                <text id="2" font-family="Roboto-Medium, Roboto" font-size="8" font-weight="400" letter-spacing="0.0588235259" fill="#FFFFFF">
                    <tspan x="2.60087002" y="8">2</tspan>
                </text>
            </g>
            <g id="Group" transform="translate(232.207439, 145.600000)">
                <rect id="Rectangle" stroke="#1D243A" stroke-width="1.6" fill="#1D243A" x="-9.09494702e-14" y="0" width="9.6" height="9.6" rx="1.6"></rect>
                <text id="4" font-family="Roboto-Medium, Roboto" font-size="8" font-weight="400" letter-spacing="0.0588235259" fill="#FFFFFF">
                    <tspan x="2.60087002" y="8">4</tspan>
                </text>
            </g>
            <g id="Group" transform="translate(231.833470, 213.600000)">
                <rect id="Rectangle" stroke="#1D243A" stroke-width="1.6" fill="#1D243A" x="-9.09494702e-14" y="0" width="9.6" height="9.6" rx="1.6"></rect>
                <text id="1" font-family="Roboto-Medium, Roboto" font-size="8" font-weight="400" letter-spacing="0.0588235259" fill="#FFFFFF">
                    <tspan x="2.60087002" y="8">1</tspan>
                </text>
            </g>
        </g>
        <text id="Wellbeing-Wheel" font-family="SignPainter-HouseScript, SignPainter" font-size="69.6598639" font-style="condensed" font-weight="normal" letter-spacing="0.512204885" fill="#1D243A">
            <tspan x="44.8" y="86.6">Wellbeing Wheel</tspan>
        </text>
        <g id="Months" transform="translate(499.200000, 57.600000)">
            <g id="Group">
                <circle id="Oval" stroke="#C0C2C8" stroke-width="1.30612245" cx="10.8843537" cy="10.8843537" r="10.8843537"></circle>
                <text id="J" font-family="Roboto-Regular, Roboto" font-size="13.0612245" font-weight="normal" letter-spacing="0.0960384071" fill="#C0C2C8">
                    <tspan x="6.53061224" y="16.1768707">J</tspan>
                </text>
            </g>
            <g id="Group" transform="translate(32.793377, 0.000000)">
                <circle id="Oval" stroke="#C0C2C8" stroke-width="1.30612245" cx="10.8843537" cy="10.8843537" r="10.8843537"></circle>
                <text id="F" font-family="Roboto-Regular, Roboto" font-size="13.0612245" font-weight="normal" letter-spacing="0.0960384071" fill="#C0C2C8">
                    <tspan x="6.53061224" y="16.1768707">F</tspan>
                </text>
            </g>
            <g id="Group" transform="translate(65.586755, 0.000000)">
                <circle id="Oval" stroke="#1D243A" stroke-width="1.30612245" fill="#009BB3" cx="10.8843537" cy="10.8843537" r="10.8843537"></circle>
                <text id="M" font-family="Roboto-Regular, Roboto" font-size="13.0612245" font-weight="normal" letter-spacing="0.0960384071" fill="#1D243A">
                    <tspan x="5.26368439" y="16.1768707">M</tspan>
                </text>
            </g>
            <g id="Group" transform="translate(97.959184, 0.000000)">
                <circle id="Oval" stroke="#C0C2C8" stroke-width="1.30612245" cx="10.8843537" cy="10.8843537" r="10.8843537"></circle>
                <text id="A" font-family="Roboto-Regular, Roboto" font-size="13.0612245" font-weight="normal" letter-spacing="0.0960384071" fill="#C0C2C8">
                    <tspan x="6.53061224" y="16.1768707">A</tspan>
                </text>
            </g>
            <g id="Group" transform="translate(130.752561, 0.000000)">
                <circle id="Oval" stroke="#C0C2C8" stroke-width="1.30612245" cx="10.8843537" cy="10.8843537" r="10.8843537"></circle>
                <text id="M" font-family="Roboto-Regular, Roboto" font-size="13.0612245" font-weight="normal" letter-spacing="0.0960384071" fill="#C0C2C8">
                    <tspan x="5.33266894" y="16.1768707">M</tspan>
                </text>
            </g>
            <g id="Group" transform="translate(163.124990, 0.000000)">
                <circle id="Oval" stroke="#C0C2C8" stroke-width="1.30612245" cx="10.8843537" cy="10.8843537" r="10.8843537"></circle>
                <text id="J" font-family="Roboto-Regular, Roboto" font-size="13.0612245" font-weight="normal" letter-spacing="0.0960384071" fill="#C0C2C8">
                    <tspan x="6.53061224" y="16.1768707">J</tspan>
                </text>
            </g>
            <g id="Group" transform="translate(195.497419, 0.000000)">
                <circle id="Oval" stroke="#C0C2C8" stroke-width="1.30612245" cx="10.8843537" cy="10.8843537" r="10.8843537"></circle>
                <text id="J" font-family="Roboto-Regular, Roboto" font-size="13.0612245" font-weight="normal" letter-spacing="0.0960384071" fill="#C0C2C8">
                    <tspan x="6.53061224" y="16.1768707">J</tspan>
                </text>
            </g>
            <g id="Group" transform="translate(227.869848, 0.000000)">
                <circle id="Oval" stroke="#C0C2C8" stroke-width="1.30612245" cx="11.2" cy="11.2" r="11.2"></circle>
                <text id="A" font-family="Roboto-Regular, Roboto" font-size="13.0612245" font-weight="normal" letter-spacing="0.0960384071" fill="#C0C2C8">
                    <tspan x="6.4" y="16.4">A</tspan>
                </text>
            </g>
            <g id="Group" transform="translate(261.224490, 0.000000)">
                <circle id="Oval" stroke="#C0C2C8" stroke-width="1.30612245" cx="10.8843537" cy="10.8843537" r="10.8843537"></circle>
                <text id="S" font-family="Roboto-Regular, Roboto" font-size="13.0612245" font-weight="normal" letter-spacing="0.0960384071" fill="#C0C2C8">
                    <tspan x="6.08435374" y="16.0843537">S</tspan>
                </text>
            </g>
            <g id="Group" transform="translate(293.596919, 0.000000)">
                <circle id="Oval" stroke="#C0C2C8" stroke-width="1.30612245" cx="10.8843537" cy="10.8843537" r="10.8843537"></circle>
                <text id="O" font-family="Roboto-Regular, Roboto" font-size="13.0612245" font-weight="normal" letter-spacing="0.0960384071" fill="#C0C2C8">
                    <tspan x="6.08435374" y="16.0843537">O</tspan>
                </text>
            </g>
            <g id="Group" transform="translate(326.951561, 0.000000)">
                <circle id="Oval" stroke="#C0C2C8" stroke-width="1.30612245" cx="11.2" cy="11.2" r="11.2"></circle>
                <text id="N" font-family="Roboto-Regular, Roboto" font-size="13.0612245" font-weight="normal" letter-spacing="0.0960384071" fill="#C0C2C8">
                    <tspan x="6.03076923" y="16.4">N</tspan>
                </text>
            </g>
            <g id="Group" transform="translate(359.323990, 0.000000)">
                <circle id="Oval" stroke="#C0C2C8" stroke-width="1.30612245" cx="10.8843537" cy="10.8843537" r="10.8843537"></circle>
                <text id="D" font-family="Roboto-Regular, Roboto" font-size="13.0612245" font-weight="normal" letter-spacing="0.0960384071" fill="#C0C2C8">
                    <tspan x="6.08435374" y="16.0843537">D</tspan>
                </text>
            </g>
        </g>
        <g id="Group-3" transform="translate(759.000000, 24.800000)">
            <text id="YYYY" font-family="Roboto-Medium, Roboto" font-size="13.0612245" font-weight="400" letter-spacing="0.0960384071" fill="#C0C2C8">
                <tspan x="1.22718339" y="16.8843537">YYYY</tspan>
            </text>
            <polygon id="Rectangle" stroke="#C0C2C8" stroke-width="1.30612245" points="44.8 0.8 79.9484697 0.8 120.091141 0.8 120.091141 22.5687075 44.8 22.5687075"></polygon>
        </g>
        <text id="This-Wellbeing-Wheel" font-family="Roboto-Medium, Roboto" font-size="16" font-weight="400" letter-spacing="0.117647052" fill="#1D243A">
            <tspan x="44.8" y="137">This Wellbeing Wheel (otherwise known as </tspan>
            <tspan x="44.8" y="158">the Wheel of Life), will help you see which </tspan>
            <tspan x="44.8" y="179">areas of your life you are most happy with, </tspan>
            <tspan x="44.8" y="200">and which areas need a bit more work.</tspan>
            <tspan x="44.8" y="221"></tspan>
            <tspan x="44.8" y="242">Use the box below to reflect on which</tspan>
            <tspan x="44.8" y="263">area you want to improve this month.</tspan>
        </text>
        <path d="M53.6,282.4 L370.4,282.4 L370.4,554.4 L53.6,554.4 L53.6,282.4 Z" id="Rectangle" stroke="#C0C2C8" stroke-width="1.6" stroke-dasharray="1.6,3.2"></path>
        <text id="Reflect" transform="translate(45.000000, 304.000000) rotate(-90.000000) translate(-45.000000, -304.000000) " font-family="Roboto-Medium, Roboto" font-size="13.0612245" font-weight="400" letter-spacing="0.0960384071" fill="#C0C2C8">
            <tspan x="23.7423095" y="309">Reflect</tspan>
        </text>
        <text id="2020" font-family="Roboto-Regular, Roboto" font-size="13.0612245" font-weight="normal" letter-spacing="0.0960384071" fill="#1D243A">
            <tspan x="826.4" y="42">2020</tspan>
        </text>
        <text id="Recreation-and-Food" font-family="BradleyHandITCTT-Bold, Bradley Hand" font-size="13.0612245" font-style="expanded" font-weight="bold" letter-spacing="0.0960384071" fill="#1D243A">
            <tspan x="72.8" y="307">Recreation and Food are the areas I most need to</tspan>
            <tspan x="72.8" y="323">work on. I can improve these areas by making</tspan>
            <tspan x="72.8" y="339">sure I stop eating at my desk when working,</tspan>
            <tspan x="72.8" y="355">and to take at least two evenings off to relax.</tspan>
            <tspan x="72.8" y="371"></tspan>
            <tspan x="72.8" y="387">I’d will also call Josh and Aunt Suze this month,</tspan>
            <tspan x="72.8" y="403">and I’ll reply to Alex and Jan ASAP.</tspan>
        </text>
    </g>
</svg>