<?xml version="1.0" encoding="UTF-8"?>
<svg width="359px" height="525px" viewBox="0 0 359 525" version="1.1" xmlns="http://www.w3.org/2000/svg" xmlns:xlink="http://www.w3.org/1999/xlink">
    <!-- Generator: Sketch 62 (91390) - https://sketch.com -->
    <title>Group 39</title>
    <desc>Created with Sketch.</desc>
    <g id="Concept-screens" stroke="none" stroke-width="1" fill="none" fill-rule="evenodd">
        <g id="Group-39" transform="translate(0.341450, -0.001102)" fill-rule="nonzero">
            <path d="M142.1273,398.766727 C131.84605,398.766727 123.244488,390.719852 122.681988,380.329227 C121.5023,358.633914 120.662456,333.102664 125.6898,304.661258 C127.5648,294.059696 137.681988,286.985477 148.279644,288.860477 C158.881206,290.731571 165.955425,300.848758 164.084331,311.450321 C159.775738,335.809696 160.549175,358.684696 161.611675,378.215946 C162.193706,388.965946 153.951519,398.153446 143.201519,398.735477 C142.842144,398.755008 142.486675,398.766727 142.1273,398.766727 Z" id="Path" fill="#009BB3"></path>
            <path d="M216.537456,398.766727 C216.181988,398.766727 215.822612,398.755008 215.463238,398.735477 C204.713238,398.14954 196.47105,388.965946 197.056988,378.215946 C198.119488,358.684696 198.889019,335.809696 194.584331,311.450321 C192.709331,300.848758 199.78355,290.731571 210.385112,288.860477 C220.978862,286.981571 231.099956,294.059696 232.974956,304.661258 C238.0023,333.102664 237.162456,358.633914 235.986675,380.329227 C235.420269,390.719852 226.8148,398.766727 216.537456,398.766727 Z" id="Path" fill="#009BB3"></path>
            <path d="M245.185894,236.77454 C234.65855,236.77454 225.986675,228.380008 225.709331,217.794071 C225.424175,207.032352 233.920269,198.079227 244.681988,197.794071 C268.490581,197.169071 296.967144,195.598758 333.701519,184.86829 C344.037456,181.848758 354.857769,187.782352 357.8773,198.114383 C360.896831,208.446414 354.967144,219.270633 344.635112,222.290164 C303.424175,234.333133 271.963238,236.075321 245.709331,236.766727 C245.53355,236.770633 245.361675,236.77454 245.185894,236.77454 Z" id="Path" fill="#009BB3"></path>
            <path d="M113.478862,236.77454 C113.306988,236.77454 113.131206,236.770633 112.955425,236.766727 C86.7015191,236.075321 55.2405811,234.333133 14.0335501,222.290164 C3.69761212,219.270633 -2.23207488,208.446414 0.787456119,198.114383 C3.80698812,187.778446 14.6312061,181.848758 24.9671441,184.86829 C61.6976121,195.598758 90.1741751,197.169071 113.982769,197.794071 C124.744488,198.079227 133.240581,207.032352 132.955425,217.794071 C132.678081,228.380008 124.006206,236.77454 113.478862,236.77454 Z" id="Path" fill="#009BB3"></path>
            <path d="M179.334331,326.614383 C233.775738,326.614383 272.619488,300.641727 268.978862,246.579227 C265.318706,192.196414 221.4398,148.005008 179.334331,148.005008 C137.224956,148.005008 93.3460501,192.192508 89.6858941,246.579227 C86.0491751,300.641727 124.889019,326.614383 179.334331,326.614383 Z" id="Path" fill="#FF88CE"></path>
            <path d="M45.1038621,97.6964136 C21.3343311,75.4854766 16.4163621,37.1104766 21.0921441,10.3604766 C22.1194881,4.48938258 27.1663621,0.153445584 33.1273001,0.0323515837 C62.4046441,-0.557492416 100.451519,6.72375758 116.490581,37.9346956 L45.1038621,97.6964136 Z" id="Path" fill="#D4067F"></path>
            <path d="M20.9632381,11.1729766 C16.5218311,37.8839136 21.5726121,75.7081326 45.1038621,97.6964136 L89.6858941,60.3761016 C75.3929251,38.5011016 50.5101121,19.7315706 20.9632381,11.1729766 Z" id="Path" fill="#FF186E"></path>
            <path d="M313.560894,97.6964136 C337.330425,75.4854766 342.248394,37.1143826 337.572612,10.3604766 C336.545269,4.48938258 331.498394,0.153445584 325.541362,0.0323515837 C296.260112,-0.557492416 258.213238,6.72375758 242.178081,37.9346956 L313.560894,97.6964136 Z" id="Path" fill="#D4067F"></path>
            <path d="M337.705425,11.1729766 C342.142925,37.8839136 337.092144,75.7081326 313.560894,97.6964136 L268.978862,60.3761016 C283.271831,38.5011016 308.154644,19.7315706 337.705425,11.1729766 L337.705425,11.1729766 Z" id="Path" fill="#FF186E"></path>
            <path d="M179.334331,20.8682896 C280.670269,20.8682896 282.84605,82.3057896 342.713238,117.419071 C354.03355,124.059696 356.412456,139.43079 347.365581,148.938602 C307.7523,190.563602 250.217144,219.89954 179.334331,219.89954 C108.447612,219.89954 50.9124561,190.567508 11.3030811,148.938602 C2.25620612,139.43079 4.63120612,124.059696 15.9515191,117.419071 C75.8226121,82.3057896 77.9944881,20.8682896 179.334331,20.8682896 Z" id="Path" fill="#FF88CE"></path>
            <path d="M122.685894,29.7589136 C73.8577691,48.0596956 61.8773001,90.4815706 15.9515191,117.419071 C4.63120612,124.059696 2.25620612,139.43079 11.3030811,148.934696 C50.9124561,190.563602 108.447612,219.89954 179.334331,219.89954 C187.474956,219.89954 195.428081,219.497196 203.209331,218.747196 C76.8069881,201.739383 84.4944881,80.9307896 122.685894,29.7589136 Z" id="Path" fill="#FF186E"></path>
            <path d="M347.365581,148.934696 C353.021831,142.989383 354.213238,134.751102 351.537456,127.786258 C258.338238,182.200321 231.662456,100.239383 179.334331,100.239383 C127.0023,100.239383 100.326519,182.200321 7.12730012,127.786258 C4.45542512,134.751102 5.64292512,142.989383 11.3030811,148.934696 C50.9124561,190.563602 108.447612,219.89954 179.334331,219.89954 C250.217144,219.89954 307.7523,190.563602 347.365581,148.934696 Z" id="Path" fill="#FFFFFF"></path>
            <path d="M101.463238,138.047977 C77.9671441,149.094852 49.3851121,152.458133 7.12730012,127.786258 C4.45542512,134.751102 5.64292512,142.989383 11.3030811,148.934696 C50.9124561,190.563602 108.447612,219.89954 179.334331,219.89954 C187.474956,219.89954 195.428081,219.497196 203.209331,218.747196 C140.545269,210.313602 110.838238,176.372196 101.463238,138.047977 Z" id="Path" fill="#FFFFFF"></path>
            <path d="M194.166362,119.965946 C184.4398,117.419071 174.224956,117.419071 164.498394,119.965946 C160.47105,121.020633 156.963238,123.497196 154.623394,126.942508 C151.463238,131.590946 153.279644,137.965946 158.416362,140.251102 L172.666362,146.58704 C176.90855,148.473758 181.756206,148.473758 185.998394,146.58704 L200.248394,140.251102 C205.385112,137.965946 207.201519,131.590946 204.041362,126.942508 C201.701519,123.497196 198.193706,121.020633 194.166362,119.965946 Z" id="Path" fill="#442E12"></path>
            <path d="M123.267925,108.098758 C119.1273,108.098758 115.767925,104.74329 115.767925,100.598758 C115.767925,97.4034456 113.166362,94.8018826 109.97105,94.8018826 C106.771831,94.8018826 104.170269,97.4034456 104.170269,100.598758 C104.170269,104.74329 100.8148,108.098758 96.6702691,108.098758 C92.5296441,108.098758 89.1702691,104.74329 89.1702691,100.598758 C89.1702691,89.1300076 98.5023001,79.8018826 109.97105,79.8018826 C121.4398,79.8018826 130.767925,89.1300076 130.767925,100.598758 C130.767925,104.74329 127.412456,108.098758 123.267925,108.098758 Z" id="Path" fill="#442E12"></path>
            <path d="M261.994488,108.098758 C257.849956,108.098758 254.494488,104.74329 254.494488,100.598758 C254.494488,97.4034456 251.892925,94.8018826 248.697612,94.8018826 C245.498394,94.8018826 242.896831,97.4034456 242.896831,100.598758 C242.896831,104.74329 239.537456,108.098758 235.396831,108.098758 C231.2523,108.098758 227.896831,104.74329 227.896831,100.598758 C227.896831,89.1300076 237.224956,79.8018826 248.697612,79.8018826 C260.166362,79.8018826 269.494488,89.1300076 269.494488,100.598758 C269.494488,104.74329 266.139019,108.098758 261.994488,108.098758 Z" id="Path" fill="#442E12"></path>
            <path d="M180.843605,182.205986 C172.175636,182.205986 163.933449,178.45208 158.230323,171.909111 C155.507667,168.784111 155.835792,164.049736 158.956886,161.32708 C162.07798,158.604423 166.816261,158.928642 169.538917,162.053642 C172.39048,165.32708 176.511573,167.205986 180.843605,167.205986 C185.175636,167.205986 189.29673,165.32708 192.152199,162.053642 C194.874855,158.928642 199.60923,158.604423 202.73423,161.32708 C205.855323,164.04583 206.183449,168.784111 203.460792,171.909111 C197.753761,178.45208 189.511573,182.205986 180.843605,182.205986 L180.843605,182.205986 Z" id="Path" fill="#442E12"></path>
            <g id="medal" transform="translate(68.283150, 210.427686)">
                <path d="M73.7795392,135.638388 L172.681106,184.643984 L99.2903226,313.729982 L99.2787558,313.711388 L99.2693088,313.729982 L79.0435023,279.408409 L79.0627558,279.395388 L67.0341014,258.976332 L0.38875576,264.724386 L73.7795392,135.638388 Z" id="Combined-Shape" fill="#515151"></path>
                <g id="Group" transform="translate(111.635945, 135.486349)" fill="#515151">
                    <path d="M99.4269124,0.15203898 L172.817696,129.238037 L106.17235,123.489983 L94.1353456,143.920039 L94.1524424,143.931869 L73.9266359,178.253442 L73.9183456,178.238039 L73.916129,178.243634 L0.525345622,49.1576353 L99.4269124,0.15203898 Z" id="Combined-Shape"></path>
                </g>
                <path d="M142.421198,0 C210.145765,0 265.047373,51.2546421 265.047373,114.480447 C265.047373,177.706252 210.145765,228.960894 142.421198,228.960894 C74.6966317,228.960894 19.795023,177.706252 19.795023,114.480447 C19.795023,51.2546421 74.6966317,0 142.421198,0 Z" id="Combined-Shape" fill="#8D8D8D"></path>
                <path d="M142.421198,32.7619479 C184.564933,32.7619479 219.84447,60.712885 228.119398,97.7926352 C228.140423,97.8970221 228.163453,98.0010859 228.186269,98.1052217 C228.351987,98.8526335 228.504653,99.6043295 228.646172,100.359555 C228.66089,100.446152 228.676926,100.532429 228.692815,100.618753 C228.755529,100.951964 228.81465,101.286096 228.871585,101.620897 C228.88375,101.699511 228.897012,101.778139 228.910153,101.856803 C228.964507,102.175601 229.015716,102.49503 229.06493,102.815051 C229.08964,102.98181 229.114778,103.148748 229.139373,103.315848 C229.176929,103.565401 229.212424,103.815472 229.2467,104.065893 C229.264909,104.204175 229.283422,104.342079 229.301565,104.480089 C229.34095,104.774906 229.378035,105.070723 229.413416,105.367013 C229.429927,105.509654 229.446601,105.652542 229.462877,105.79554 C229.495982,106.082471 229.526983,106.369622 229.556381,106.657202 C229.571539,106.809049 229.586652,106.961235 229.601315,107.113543 C229.626981,107.376968 229.650965,107.6407 229.673598,107.904781 C229.694294,108.149009 229.714092,108.393569 229.732729,108.638426 C229.746997,108.823488 229.760403,109.008682 229.773144,109.194043 C229.81864,109.857623 229.855763,110.523378 229.88425,111.19119 C229.893594,111.409074 229.901981,111.627662 229.909441,111.846464 C229.939253,112.721213 229.954286,113.599204 229.954286,114.480447 C229.954286,114.908966 229.950733,115.336725 229.943653,115.763699 L229.954286,114.480447 C229.954286,115.033548 229.948368,115.585384 229.936588,116.135901 C229.930382,116.425711 229.922559,116.714998 229.913122,117.003912 C229.907667,117.171176 229.901652,117.338611 229.895096,117.505919 C229.885948,117.739029 229.875771,117.97163 229.864551,118.203981 C229.855216,118.397654 229.845147,118.591005 229.834355,118.784182 C229.81961,119.047692 229.803537,119.310973 229.786126,119.57392 C229.775987,119.727537 229.765374,119.880838 229.754307,120.034025 C229.734322,120.310086 229.71287,120.586125 229.689946,120.861784 C229.677953,121.006647 229.665547,121.150883 229.652739,121.295014 C229.594724,121.947109 229.52848,122.597461 229.454083,123.245569 C229.431445,123.4437 229.407998,123.641175 229.383796,123.838439 C229.334178,124.241806 229.281473,124.644622 229.225626,125.046531 C229.208107,125.17375 229.190121,125.300862 229.171822,125.427882 C229.133873,125.690056 229.094781,125.95167 229.05436,126.212888 C229.024352,126.40813 228.993344,126.603533 228.961593,126.798712 C228.926112,127.015426 228.889966,127.231673 228.85291,127.44764 C228.819662,127.642892 228.785419,127.83795 228.750434,128.032778 C228.715789,128.224157 228.680721,128.415197 228.644941,128.606012 C228.602618,128.833365 228.558989,129.060386 228.514355,129.287083 C228.478476,129.467582 228.442267,129.647996 228.405421,129.828201 C228.366321,130.021237 228.326188,130.213767 228.28533,130.406056 C228.228447,130.671853 228.170528,130.937374 228.111229,131.202428 C228.079486,131.346314 228.046818,131.49041 228.013742,131.634366 C227.967051,131.835496 227.920189,132.035681 227.87254,132.235592 C227.780698,132.62315 227.685278,133.010134 227.586918,133.396065 C227.541556,133.571705 227.496189,133.747053 227.450214,133.922182 C227.390349,134.152664 227.328883,134.382498 227.266374,134.611948 C227.225044,134.761125 227.183985,134.910014 227.142488,135.058739 C227.08283,135.275172 227.02153,135.49126 226.959304,135.706997 C226.899502,135.911607 226.839637,136.115896 226.778944,136.319867 C226.722491,136.512411 226.664529,136.7045 226.605834,136.896302 C226.548051,137.082205 226.490436,137.267897 226.432133,137.453318 C226.366132,137.666243 226.298389,137.878522 226.229746,138.090441 C226.182437,138.233391 226.135502,138.37681 226.088156,138.520062 C225.542603,140.174321 224.941322,141.805868 224.287186,143.413317 C224.263194,143.468228 224.240618,143.523504 224.21798,143.578752 C224.101939,143.866096 223.982714,144.152269 223.861815,144.43766 C223.827248,144.51501 223.793911,144.593321 223.760449,144.671573 C223.645395,144.944977 223.527442,145.21661 223.407971,145.487517 C223.368633,145.572263 223.330938,145.657298 223.293094,145.742261 C222.258495,148.070299 221.109861,150.344125 219.855429,152.558014 C219.838194,152.582551 219.823467,152.608498 219.808726,152.634436 C205.107211,178.518592 175.934553,196.189138 142.421198,196.189138 C94.1524424,196.189138 54.8881106,159.523221 54.8881106,114.470638 C54.8881106,69.4180554 94.1524424,32.7619479 142.421198,32.7619479 Z" id="Combined-Shape" fill="#B5B5B5"></path>
                <path d="M203.529401,90.3829042 L160.955392,90.3829042 L147.79023,52.5791475 C146.098618,47.7237091 138.733272,47.7237091 137.041659,52.5791475 L123.887005,90.3829042 L81.3129954,90.3829042 C75.838894,90.3829042 73.558894,96.9254848 77.9928111,99.9270285 L112.43447,123.291987 L99.2798157,161.095743 C97.5882028,165.951182 103.545622,169.992476 107.979539,166.990932 L142.421198,143.625974 L176.862857,166.990932 C181.296774,169.992476 187.254194,165.951182 185.562581,161.095743 L172.407926,123.291987 L206.849585,99.9270285 C211.272995,96.9254848 209.003502,90.3829042 203.529401,90.3829042 Z" id="Path" fill="#F3F3F3"></path>
            </g>
        </g>
    </g>
</svg>