<?xml version="1.0" encoding="UTF-8"?>
<svg width="508px" height="160px" viewBox="0 0 508 160" version="1.1" xmlns="http://www.w3.org/2000/svg" xmlns:xlink="http://www.w3.org/1999/xlink">
    <title>Group-10</title>
    <g id="Downloaded-Icons" stroke="none" stroke-width="1" fill="none" fill-rule="evenodd">
        <g id="Icons" transform="translate(-41.000000, -43.000000)">
            <g id="Group-10" transform="translate(41.658537, 43.000000)">
                <g id="Group-9" fill-rule="nonzero">
                    <g id="Group-8">
                        <path d="M401.430059,121.709088 C406.54209,124.501984 411.539035,125.898433 416.420894,125.898433 C421.302752,125.898433 427.044867,126.4057 433.647238,127.420233 C435.821668,130.457973 436.365275,132.474666 435.27806,133.470316 C433.647238,134.963789 428.788204,139.681565 423.707034,139.681565 C420.319586,139.681565 416.390247,139.681565 411.919014,139.681565 C404.926377,137.390725 401.430059,135.320309 401.430059,133.470316 C401.430059,131.620323 399.621462,127.699913 396.004271,121.709088 L393.74658,117.075314 L401.430059,121.709088 Z" id="Path-6" fill="#D4067F"></path>
                        <path d="M330.642848,20.6631068 C347.884207,22.5217057 359.318761,22.5217057 364.94651,20.6631068 C373.388134,17.8752086 395.329952,12.1443722 402.744553,12.1443722 C410.159154,12.1443722 428.37419,10.6080683 440.557904,20.6631068 C448.68038,27.3664659 455.960458,34.6641443 462.398135,42.556142 C470.227441,43.8443822 476.850669,43.8443822 482.267818,42.556142 C487.684967,41.267902 495.297643,37.8255476 505.105846,32.2290791 C506.429749,34.3366813 506.429749,36.584759 505.105846,38.9733123 C503.119991,42.556142 503.089613,45.1885332 499.410144,47.6776273 C495.730676,50.1667216 484.238365,64.0207036 462.398135,70.1335018 C440.557904,76.2462999 440.328286,75.2935097 436.819988,78.6085433 C433.311691,81.9235771 427.222269,88.7340545 422.79654,90.8820611 C418.370811,93.0300677 398.523741,109.630607 398.523741,111.636259 C398.523741,113.64191 393.001757,121.952046 402.744553,130.997916 C412.48735,140.043785 426.958903,151.147458 426.958903,153.236267 C426.958903,155.325076 425.429502,159.201072 422.79654,159.201072 C420.163578,159.201072 402.409171,152.40328 398.523741,149.718272 C394.638313,147.033263 389.659063,143.268615 386.781174,139.932439 C383.903285,136.596263 330.642848,139.932439 312.223243,126.988021 C294.091241,133.550435 281.502099,143.381841 274.455816,156.482237 C270.755937,158.646218 268.187917,158.646218 266.751755,156.482237 C264.597513,153.236267 264.086785,149.215098 266.751755,144.573768 C269.416726,139.932439 274.455816,136.266452 274.455816,133.632183 C274.455816,131.876005 274.455816,129.661284 274.455816,126.988021 C265.336933,129.661284 257.931145,129.661284 252.238454,126.988021 C249.96917,126.988021 243.572314,132.116551 233.047886,142.373612 C227.810721,142.925178 225.192139,141.16712 225.192139,137.099438 C225.192139,130.997916 238.018785,116.883653 241.326689,116.883653 C244.634591,116.883653 252.238454,113.949171 252.238454,111.636259 C252.238454,109.323345 257.219687,102.495955 264.377636,96.689008 C269.149602,92.81771 272.508995,90.8820611 274.455816,90.8820611 C276.719533,84.4511964 278.736931,80.3600238 280.508011,78.6085433 C282.279092,76.8570629 283.671184,74.0320491 284.684291,70.1335018 C258.956776,69.1186955 240.285749,71.9437094 228.671212,78.6085433 C211.249405,88.6057943 190.429239,106.796196 154.892593,121.947818 C119.355947,137.099438 59.4003824,133.632183 59.4003824,133.632183 C59.4003824,133.632183 16.9167233,128.988035 0.975609756,92.928587 C28.9918907,98.8952722 52.7562803,91.2969101 72.2687784,70.1335018 C114.450918,39.2721163 154.268216,22.7819847 191.72067,20.6631068 C229.173126,18.544229 263.796862,34.1844604 295.591881,67.5838011 C312.296071,66.3414681 328.624058,69.0386915 344.575841,75.6754714 C361.678037,77.6308527 371.278423,75.7835295 373.377,70.1335018 C376.455285,64.5699205 377.224856,57.6762853 375.685713,49.4525962 C358.513936,49.4525962 343.499647,39.8560997 330.642848,20.6631068 Z" id="Path-4" fill="#FF88CE"></path>
                        <path d="M390.745446,15.8797779 C369.402352,7.57145021 357.176971,2.37376748 354.0693,0.286729667 C349.407795,-2.84382705 357.64359,20.6929692 366.378368,20.6929692 C372.201552,20.6929692 378.656434,19.9710966 385.743015,18.5273514 L390.745446,15.8797779 Z" id="Path-5" fill="#D4067F"></path>
                        <path d="M440.536587,20.6631068 C448.659063,27.3664659 455.93914,34.6641443 462.376817,42.556142 C464.501863,42.9057989 466.538059,43.1605512 468.485402,43.3203988 C460.4619,47.9257291 454.269262,50.5817532 449.906517,51.2885091 C440.790153,52.7653416 432.908624,54.2275617 423.835715,54.2275617 L403.731237,54.2275617 L403.731237,54.2275617 C401.017552,72.1723108 393.465147,84.8666411 381.074021,92.3105525 C362.487334,103.47642 336.677192,85.373987 334.277389,81.522661 C333.10835,79.6465272 331.926301,76.1178926 330.731242,70.936757 C335.369705,72.1913119 339.977599,73.7712307 344.554523,75.6754714 C361.656719,77.6308527 371.257105,75.7835295 373.355683,70.1335018 C376.433967,64.5699205 377.203538,57.6762853 375.664396,49.4525962 C358.492618,49.4525962 343.47833,39.8560997 330.621531,20.6631068 C347.86289,22.5217057 359.297444,22.5217057 364.925192,20.6631068 C373.366816,17.8752086 395.308635,12.1443722 402.723236,12.1443722 C410.137837,12.1443722 428.352872,10.6080683 440.536587,20.6631068 Z" id="Combined-Shape" fill="#FF186E"></path>
                        <path d="M211.080241,54.4677118 C226.328252,54.4677118 239.770065,53.3739731 254.713803,58.4810946 C264.321679,61.76465 272.49158,65.6023696 279.223506,69.9942533 C256.409086,69.5895878 239.631768,72.4691814 228.890127,78.633116 C211.468319,88.630367 190.648153,106.820769 155.111508,121.97239 C119.574862,137.124011 59.6192975,133.656756 59.6192975,133.656756 C59.6192975,133.656756 38.0371036,131.297475 19.8660679,116.88548 C46.3026188,106.379536 61.8235951,100.013808 66.4287072,97.7865785 C73.9379707,94.1547785 96.4780347,85.855086 106.675169,80.2001736 C116.872302,74.5452611 142.513494,62.2345589 162.24538,57.2866979 C178.998569,54.4677118 195.832229,54.4677118 211.080241,54.4677118 Z" id="Combined-Shape" fill="#FF186E"></path>
                        <path d="M70.6683612,71.7416174 C71.3780082,83.724543 73.4767324,95.162128 76.9645337,106.054373 C80.690098,117.68914 87.7904886,126.875568 98.2657054,133.613658 C76.5818437,135.382965 59.101505,134.695878 59.101505,134.695878 C59.101505,134.695878 8.69680487,129.337657 0.00407650439,92.1569542 C27.179869,98.0314059 50.6597621,91.3003506 70.4437559,71.9637885 L70.6683612,71.7416174 Z" id="Combined-Shape" fill="#FFFFFF"></path>
                        <path d="M252.890172,62.3276219 C259.765652,62.3276219 265.168965,63.2540214 269.100112,65.1068203 L269.100112,65.1068203 L274.413071,69.5486912 C256.979668,70.1080694 243.770375,72.966059 234.784706,78.1223541 C217.362899,88.1196051 196.542733,106.310007 161.006088,121.461628 C144.210577,128.622664 121.960502,131.624719 103.16348,132.799477 C115.67293,128.376407 131.264191,120.735373 145.080198,112.686605 C170.534052,97.8579961 170.538656,98.2998234 178.808799,92.1779645 C187.078941,86.0561058 205.843016,67.9685467 219.948875,65.1068203 C232.723993,62.5150681 240.919293,62.3382542 250.012964,62.3276219 L252.890172,62.3276219 Z" id="Combined-Shape" fill="#D4067F"></path>
                        <path d="M425.347988,13.588465 L425.089193,13.9643125 C418.831287,22.9360886 407.88038,29.3841834 392.236472,33.3085972 C374.124307,37.8521952 354.740304,35.2597682 334.084463,25.531316 C332.913115,23.9837456 331.758881,22.3609758 330.621531,20.6631068 C347.86289,22.5217057 359.297444,22.5217057 364.925192,20.6631068 C373.366816,17.8752086 395.308635,12.1443722 402.723236,12.1443722 C407.387508,12.1443722 416.325772,11.53642 425.347988,13.588465 Z" id="Combined-Shape" fill="#FF88CE"></path>
                    </g>
                    <path d="M495.233315,51.7519365 C491.553847,54.2410307 482.18679,66.3200439 460.34656,72.4328421 C438.50633,78.5456403 438.276711,77.59285 434.768414,80.9078837 C431.260116,84.2229175 425.170695,91.0333949 420.744965,93.1814015 C416.340762,95.3189604 402.379021,106.291022 398.166561,112.372731 L397.951765,112.349457 L391.695005,112.349457 C389.609419,107.925224 389.609419,104.823432 391.695005,103.04408 C394.823384,100.375051 409.073062,88.755293 409.073062,82.205534 C409.073062,75.6557749 405.531114,56.4608476 409.073062,56.4608476 C412.61501,56.4608476 421.364731,59.4702608 427.508642,59.4702608 L457.271028,59.4702608 C469.204899,59.2211055 477.026707,58.2179677 480.736456,56.4608476 C484.446204,54.7037275 489.507842,52.4847117 495.92137,49.8038003 L499.749389,46.9663918 C498.50882,48.810407 497.058557,50.5171924 495.233315,51.7519365 Z" id="Combined-Shape" fill="#FFFFFF"></path>
                </g>
                <path d="M305.204529,111.816459 C306.302483,113.450007 309.509658,116.069056 314.826054,119.673603 C318.313251,122.247426 323.769672,124.515134 331.195316,126.476723 C342.333782,129.419107 359.519109,131.284506 363.675429,131.284506 C366.44631,131.284506 370.809171,130.303712 376.764013,128.342123 L376.764013,128.342123 L381.682488,134.738125 L386.358688,139.555962 C380.147628,136.782052 330.06044,139.423051 312.314005,126.951704 C294.182003,133.514118 281.59286,143.345524 274.546578,156.445921 C270.8467,158.6099 268.278679,158.6099 266.842518,156.445921 C264.688276,153.19995 264.177548,149.17878 266.842518,144.537451 C269.507488,139.896122 274.546578,136.230135 274.546578,133.595866 L274.546578,126.951704 C265.427695,129.624968 258.021907,129.624968 252.329216,126.951704 C252.112134,126.951704 251.857279,126.998636 251.564653,127.0925 L253.627954,124.459157 C254.86281,124.455406 255.782592,124.44978 256.387302,124.442276 C278.963077,124.162178 298.385142,119.06789 305.204529,111.816459 Z M233.138648,142.337295 C231.318514,142.528987 229.814666,142.44171 228.627104,142.075465 L233.846488,141.649135 C233.612653,141.875898 233.376706,142.105284 233.138648,142.337295 Z" id="Combined-Shape" fill="#D4067F" fill-rule="nonzero"></path>
                <path d="M427.112634,153.348365 C427.112634,155.437175 425.583233,159.313171 422.950271,159.313171 C420.824754,159.313171 408.84478,154.883134 402.26189,151.762993 C405.694693,151.401944 408.415414,150.805801 410.425499,149.97542 C413.32007,148.779652 415.171047,146.301804 415.978429,142.541876 C422.094352,147.762216 427.112634,152.118327 427.112634,153.348365 Z M244.395971,116.549081 L244.396376,132.176272 C241.412458,134.683769 237.680871,138.120249 233.201617,142.48571 C227.964452,143.037276 225.345869,141.279219 225.345869,137.211537 C225.345869,131.110014 238.172516,116.99575 241.48042,116.99575 C242.263954,116.99575 243.28852,116.831107 244.395971,116.549081 Z" id="Combined-Shape" fill="#009BB3" fill-rule="nonzero"></path>
                <path d="M433.647238,127.420233 C435.821668,130.457973 436.365275,132.474666 435.27806,133.470316 C433.647238,134.963789 428.788204,139.681565 423.707034,139.681565 L415.980163,139.679659 C416.642161,138.526026 417.258422,137.583209 417.828948,136.851208 C418.332895,136.20463 419.813905,132.625021 422.27198,126.11238 C425.72656,126.349786 429.518714,126.785836 433.647238,127.420233 Z" id="Combined-Shape" fill="#009BB3" fill-rule="nonzero"></path>
                <path d="M505.105846,32.2290791 C506.429749,34.3366813 506.429749,36.584759 505.105846,38.9733123 C503.119991,42.556142 503.089613,45.1885332 499.410144,47.6776273 C499.306531,47.7477202 499.196721,47.8268253 499.08066,47.9145159 C498.440963,48.782013 497.74515,49.6028214 496.97435,50.3391133 L496.97315,36.63259 C499.49168,35.3534929 502.20258,33.885656 505.105846,32.2290791 Z" id="Combined-Shape" fill="#442E12" fill-rule="nonzero"></path>
                <path d="M452.831806,39.3932022 C455.589698,39.3932022 457.82541,42.7791878 457.82541,46.9560126 C457.82541,48.8201752 457.38007,50.5268078 456.641729,51.8451961 C455.940806,51.351124 455.18404,51.082127 454.394695,51.082127 C452.918212,51.082127 451.555717,52.0233032 450.459735,53.6115242 C448.898746,52.3343731 447.838203,49.8327661 447.838203,46.9560126 C447.838203,42.7791878 450.073915,39.3932022 452.831806,39.3932022 Z" id="Combined-Shape" fill="#442E12" fill-rule="nonzero"></path>
                <ellipse id="Oval" fill="#FFFFFF" fill-rule="nonzero" cx="455.317596" cy="42.2784669" rx="1.65980426" ry="1.64200836"></ellipse>
                <path d="M443.654813,62.0620607 C444.512273,68.5683397 448.953136,71.8214793 456.9774,71.8214793" id="Path-18" stroke="#442E12" stroke-width="3" stroke-linecap="round"></path>
                <path d="M278.541882,131.555172 C278.541882,133.572747 279.212667,138.923556 280.554238,147.607599 C278.234011,150.366692 276.231774,153.312816 274.546578,156.445921 C270.8467,158.6099 268.278679,158.6099 266.842518,156.445921 C264.688276,153.19995 264.177548,149.17878 266.842518,144.537451 C269.507488,139.896122 274.546578,136.230135 274.546578,133.595866 L274.547104,129.8343 C277.21029,129.106903 278.541882,129.680528 278.541882,131.555172 Z" id="Combined-Shape" fill="#009BB3" fill-rule="nonzero"></path>
                <path d="M390.975598,110.283803 L399.107127,111.127513 C398.888571,111.397102 398.683931,111.66014 398.494489,111.915718 C398.299642,113.107068 397.04506,115.675175 396.968652,119.018634 L397.001787,119.039754 C395.326788,118.235635 393.318059,115.316984 390.975598,110.283803 L390.975598,110.283803 Z" id="Combined-Shape" fill="#FFFFFF" fill-rule="nonzero"></path>
            </g>
        </g>
    </g>
</svg>