<?xml version="1.0" encoding="UTF-8"?>
<svg width="490px" height="155px" viewBox="0 0 490 155" version="1.1" xmlns="http://www.w3.org/2000/svg" xmlns:xlink="http://www.w3.org/1999/xlink">
    <!-- Generator: Sketch 62 (91390) - https://sketch.com -->
    <title>Group 10</title>
    <desc>Created with Sketch.</desc>
    <g id="Concept-screens" stroke="none" stroke-width="1" fill="none" fill-rule="evenodd">
        <g id="Group-10" transform="translate(0.500000, 0.000000)">
            <g id="Group-9">
                <g id="Group-8">
                    <path d="M387.574447,117.94717 C392.522058,120.653741 397.358284,122.007027 402.083125,122.007027 C406.807966,122.007027 412.365395,122.498614 418.755411,123.481789 C420.859904,126.425635 421.386027,128.379995 420.333781,129.34487 C418.755411,130.792182 414.052661,135.364135 409.134918,135.364135 C405.856423,135.364135 402.053464,135.364135 397.726042,135.364135 C390.958312,133.144103 387.574447,131.137681 387.574447,129.34487 C387.574447,127.552058 385.824022,123.752825 382.323172,117.94717 L380.138096,113.456623 L387.574447,117.94717 Z" id="Path-6" fill="#D4067F"></path>
                    <path d="M319.063999,20.024429 C335.750816,21.8255802 346.817595,21.8255802 352.264336,20.024429 C360.434448,17.3227021 381.670542,11.7690007 388.846664,11.7690007 C396.022785,11.7690007 413.651963,10.2801825 425.443807,20.024429 C433.305036,26.5205933 440.35096,33.5927071 446.581579,41.2407704 C454.159068,42.4891922 460.56927,42.4891922 465.812185,41.2407704 C471.055099,39.9923486 478.422925,36.6563943 487.915663,31.2329076 C489.196985,33.2753657 489.196985,35.4539574 487.915663,37.7686826 C485.99368,41.2407704 485.964278,43.7917966 482.403155,46.2039552 C478.842031,48.6161138 467.719352,62.0418819 446.581579,67.965739 C425.443807,73.8895961 425.221573,72.9662557 421.826115,76.1788248 C418.430656,79.3913938 412.537091,85.9913656 408.253709,88.0729792 C403.970327,90.1545928 384.761608,106.242024 384.761608,108.185683 C384.761608,110.129342 379.417229,118.182619 388.846664,126.948889 C398.276098,135.71516 412.282196,146.475627 412.282196,148.499873 C412.282196,150.52412 410.801986,154.280312 408.253709,154.280312 C405.705431,154.280312 388.522068,147.692633 384.761608,145.090616 C381.001148,142.488599 376.182048,138.840312 373.396722,135.607255 C370.611395,132.374197 319.063999,135.607255 301.236832,123.062937 C283.688018,129.422513 271.503786,138.950038 264.684135,151.645514 C261.103258,153.742608 258.617834,153.742608 257.227865,151.645514 C255.142911,148.499873 254.64861,144.602994 257.227865,140.105124 C259.80712,135.607255 264.684135,132.054579 264.684135,129.501734 C264.684135,127.799838 264.684135,125.653572 264.684135,123.062937 C255.858547,125.653572 248.690956,125.653572 243.181361,123.062937 C240.985066,123.062937 234.793955,128.032949 224.608028,137.972973 C219.539309,138.507491 217.004949,136.803773 217.004949,132.861819 C217.004949,126.948889 229.419047,113.270885 232.620556,113.270885 C235.822065,113.270885 243.181361,110.427106 243.181361,108.185683 C243.181361,105.94426 248.00238,99.327898 254.930105,93.7004386 C259.548588,89.948799 262.799932,88.0729792 264.684135,88.0729792 C266.875044,81.8408866 268.827556,77.8761685 270.541672,76.1788248 C272.255788,74.481481 273.603107,71.7437858 274.583628,67.965739 C249.683599,66.9822995 231.613097,69.7199947 220.372123,76.1788248 C203.510662,85.8670698 183.360144,103.495223 148.96648,118.178521 C114.572816,132.861819 56.5456297,129.501734 56.5456297,129.501734 C56.5456297,129.501734 15.4283922,125.001133 -9.9475983e-14,90.0562489 C27.1151804,95.838509 50.1152249,88.4750056 69.0001336,67.965739 C109.825549,38.0582509 148.362185,22.0778142 184.610039,20.024429 C220.857894,17.9710437 254.368012,33.1278498 285.140392,65.4948472 C301.307318,64.2909136 317.11014,66.9047684 332.548858,73.3364114 C349.100988,75.2313536 358.392593,73.4411295 360.423673,67.965739 C363.402949,62.574123 364.147768,55.8935638 362.65813,47.9240614 C346.038656,47.9240614 331.507279,38.6241839 319.063999,20.024429 Z" id="Path-4" fill="#FF88CE"></path>
                    <path d="M377.233489,15.3889484 C356.576863,7.33742357 344.744692,2.30039649 341.736975,0.277867114 C337.2254,-2.75592694 345.196304,20.0533683 353.65014,20.0533683 C359.286031,20.0533683 365.533302,19.3538081 372.391953,17.9546878 L377.233489,15.3889484 Z" id="Path-5" fill="#D4067F"></path>
                    <path d="M425.423175,20.024429 C433.284404,26.5205933 440.330328,33.5927071 446.560947,41.2407704 C448.617913,41.5796637 450.588861,41.8265619 452.473794,41.9814651 C444.707737,46.4443386 438.714201,49.0183105 434.491736,49.7032279 C425.668585,51.1344128 418.040554,52.551437 409.259461,52.551437 L389.801612,52.551437 L389.801612,52.551437 C387.175209,69.9415303 379.865715,82.2434904 367.873132,89.4573172 C349.884256,100.278057 324.904258,82.7351547 322.581641,79.0028697 C321.450341,77.1849493 320.306453,73.7659994 319.149976,68.7460202 C323.639239,69.9600866 328.098718,71.4911149 332.528226,73.3364114 C349.080356,75.2313536 358.371961,73.4411295 360.403041,67.965739 C363.382317,62.574123 364.127135,55.8935638 362.637498,47.9240614 C346.018024,47.9240614 331.486647,38.6241839 319.043367,20.024429 C335.730184,21.8255802 346.796963,21.8255802 352.243704,20.024429 C360.413816,17.3227021 381.64991,11.7690007 388.826032,11.7690007 C396.002153,11.7690007 413.631331,10.2801825 425.423175,20.024429 Z" id="Combined-Shape" fill="#FF186E"></path>
                    <path d="M203.346939,52.7841643 C218.104521,52.7841643 231.113999,51.7242321 245.577095,56.6734972 C254.876456,59.8557345 262.78394,63.5750659 269.299548,67.8314915 C247.218285,67.4385625 230.980288,70.2291451 220.583997,76.2026379 C203.722536,85.8908829 183.572018,103.519036 149.178354,118.202334 C114.78469,132.885632 56.7575037,129.525547 56.7575037,129.525547 C56.7575037,129.525547 35.8688158,127.239118 18.282052,113.272002 C43.8689614,103.091513 58.8908777,96.922484 63.3478993,94.7640845 C70.6156389,91.2445399 92.4307364,83.2013834 102.299895,77.7212591 C112.169054,72.2411349 136.985536,60.3109453 156.082776,55.5160181 C171.343339,52.9448616 186.672892,52.7936171 200.727057,52.7847204 Z" id="Combined-Shape" fill="#FF186E"></path>
                    <path d="M67.4036864,69.6255446 C68.040482,81.3896142 70.0875389,92.6065511 73.5448571,103.276356 C77.0703394,114.156525 83.7183213,122.798107 93.4888029,129.201103 C72.9543887,130.520981 56.5495751,129.569409 56.5495751,129.569409 C56.5495751,129.569409 15.4323376,125.061013 0.00394538983,90.055611 C26.3056703,95.6741167 48.735464,88.9023529 67.2933264,69.7403198 Z" id="Combined-Shape" fill="#FFFFFF"></path>
                    <path d="M243.812118,60.4011317 C250.466458,60.4011317 255.695983,61.298897 259.500691,63.0944277 L259.500691,63.0944277 L264.641966,67.3990999 C247.769452,67.9412292 234.98543,70.7108677 226.288987,75.7076632 C209.427525,85.3959082 189.277008,103.024061 154.883344,117.70736 C138.628378,124.646908 117.09451,127.556196 98.902308,128.694694 C111.008969,124.408059 126.098365,117.003368 139.469686,109.203565 C164.104855,94.8332941 164.109312,95.2614649 172.113458,89.3288274 C180.117604,83.3961898 198.278161,65.8677007 211.930327,63.0944277 C224.244046,60.5930442 232.161388,60.4128745 240.919636,60.4015896 Z" id="Combined-Shape" fill="#D4067F"></path>
                    <path d="M410.721918,13.1681901 L410.472622,13.5326883 C404.415992,22.2271549 393.817304,28.4759451 378.676559,32.2790587 C361.14694,36.6822192 342.38639,34.1699197 322.394907,24.7421603 C321.261258,23.2424463 320.144142,21.669827 319.043367,20.024429 C335.730184,21.8255802 346.796963,21.8255802 352.243704,20.024429 C360.413816,17.3227021 381.64991,11.7690007 388.826032,11.7690007 C393.340083,11.7690007 401.990286,11.1798926 410.721918,13.1681901 Z" id="Combined-Shape" fill="#FF88CE"></path>
                </g>
                <path d="M478.360666,50.1523312 C474.799543,52.5644898 465.733763,64.2701517 444.59599,70.1940088 C423.458218,76.1178659 423.235984,75.1945255 419.840526,78.4070946 C416.445067,81.6196636 410.551502,88.2196354 406.26812,90.301249 C402.005608,92.3727204 388.493118,103.005483 384.416019,108.899242 L384.208027,108.876837 L378.152507,108.876837 C376.134,104.589354 376.134,101.583435 378.152507,99.8590808 C381.180267,97.2725494 394.971626,86.0119476 394.971626,79.6646356 C394.971626,73.3173237 391.543599,54.7156941 394.971626,54.7156941 C398.399652,54.7156941 406.867952,57.6320891 412.814254,57.6320891 L441.619379,57.6320891 C453.169414,57.3906349 460.739646,56.4185033 464.330076,54.7156941 C467.920507,53.012885 472.819345,50.862457 479.026591,48.2644101 L482.734356,45.510435 C481.533054,47.2990878 480.128609,48.9547993 478.360666,50.1523312 Z" id="Combined-Shape" fill="#FFFFFF"></path>
            </g>
            <path d="M294.443864,108.360313 C295.506504,109.943371 298.610525,112.481466 303.755928,115.9746 C307.130964,118.46887 312.411888,120.666484 319.598698,122.567443 C330.378913,125.41888 347.011499,127.226622 351.034138,127.226622 C353.715898,127.226622 357.938434,126.276143 363.701747,124.375184 L363.701747,124.375184 L368.462027,130.573492 L372.986595,135.241864 C366.969929,132.554592 318.499153,135.112787 301.324675,123.027743 C283.775861,129.387318 271.591629,138.914844 264.771979,151.610319 C261.191101,153.707413 258.705678,153.707413 257.315708,151.610319 C255.230754,148.464679 254.736453,144.5678 257.315708,140.06993 C259.894964,135.57206 264.771979,132.019385 264.771979,129.46654 L264.771979,123.027743 C255.946391,125.618377 248.778799,125.618377 243.269204,123.027743 C243.058449,123.027743 242.810908,123.073508 242.526582,123.165038 L244.52617,120.612238 C245.721309,120.608603 246.611508,120.60315 247.196768,120.595879 C269.046428,120.324438 287.843813,115.387609 294.443864,108.360313 Z M224.695871,137.937778 C222.934737,138.123497 221.479557,138.039011 220.330331,137.684319 L225.381184,137.270656 C225.154792,137.490486 224.926354,137.71286 224.695871,137.937778 Z" id="Combined-Shape" fill="#D4067F"></path>
            <path d="" id="Path-7" stroke="#979797" stroke-width="2.81467368"></path>
            <path d="M412.430982,148.608507 C412.430982,150.632753 410.950773,154.388945 408.402495,154.388945 C406.345322,154.388945 394.750452,150.09575 388.379331,147.072045 C391.701891,146.722253 394.33512,146.144535 396.280563,145.339816 C399.082129,144.180969 400.873599,141.779587 401.654971,138.135669 C407.574036,143.194959 412.430982,147.416479 412.430982,148.608507 Z M235.590614,112.946783 L235.591728,128.090641 C232.703748,130.520649 229.09211,133.850971 224.756815,138.081606 C219.688095,138.616124 217.153735,136.912406 217.153735,132.970453 C217.153735,127.057523 229.567833,113.379518 232.769342,113.379518 C233.527557,113.379518 234.518977,113.220014 235.590614,112.946783 Z" id="Combined-Shape" fill="#009BB3"></path>
            <path d="M418.755411,123.481789 C420.859904,126.425635 421.386027,128.379995 420.333781,129.34487 C418.755411,130.792182 414.052661,135.364135 409.134918,135.364135 L401.656153,135.363017 C402.297017,134.24471 402.893597,133.330792 403.445892,132.621262 C403.933611,131.994692 405.3669,128.52596 407.745756,122.215064 C411.089476,122.444427 414.759667,122.867 418.755411,123.481789 Z" id="Combined-Shape" fill="#009BB3"></path>
            <path d="M487.915663,31.2329076 C489.196985,33.2753657 489.196985,35.4539574 487.915663,37.7686826 C485.99368,41.2407704 485.964278,43.7917966 482.403155,46.2039552 C482.302357,46.2722316 482.195501,46.3493318 482.082531,46.434836 C481.46431,47.2747977 480.791549,48.0696051 480.0462,48.7826533 L480.044681,35.5002396 C482.482167,34.2606948 485.105828,32.8382508 487.915663,31.2329076 Z" id="Combined-Shape" fill="#442E12"></path>
            <path d="M437.322937,38.1755942 C439.992125,38.1755942 442.155929,41.456922 442.155929,45.5046449 C442.155929,47.3108097 441.725094,48.9643776 441.010768,50.2419057 C440.331981,49.7639218 439.599536,49.5032249 438.835558,49.5032249 C437.406309,49.5032249 436.087422,50.4156354 435.026592,51.9552639 C433.515904,50.7156434 432.489945,48.2918356 432.489945,45.5046449 C432.489945,41.456922 434.653749,38.1755942 437.322937,38.1755942 Z" id="Combined-Shape" fill="#442E12"></path>
            <ellipse id="Oval" fill="#FFFFFF" cx="439.728775" cy="40.9716779" rx="1.60641921" ry="1.59125537"></ellipse>
            <path d="M428.441108,60.1437788 C429.270989,66.4489547 433.569018,69.6015426 441.335194,69.6015426" id="Path-18" stroke="#442E12" stroke-width="2.81467368" stroke-linecap="round"></path>
            <path d="M268.63878,127.488921 C268.63878,129.444101 269.287968,134.629374 270.586344,143.044741 C268.340902,145.718859 266.403012,148.573985 264.771979,151.610319 C261.191101,153.707413 258.705678,153.707413 257.315708,151.610319 C255.230754,148.464679 254.736453,144.5678 257.315708,140.06993 C259.894964,135.57206 264.771979,132.019385 264.771979,129.46654 L264.773032,125.821091 C267.350197,125.116405 268.63878,125.672348 268.63878,127.488921 Z" id="Combined-Shape" fill="#009BB3"></path>
            <path d="M377.456239,106.875031 L385.325787,107.69321 C385.114322,107.954403 384.916322,108.20925 384.733026,108.45687 C384.543813,109.612838 383.330597,112.100692 383.256548,115.339314 L383.300262,115.365914 C381.676802,114.594633 379.728795,111.764338 377.456239,106.875031 L377.456239,106.875031 Z" id="Combined-Shape" fill="#FFFFFF"></path>
        </g>
    </g>
</svg>