<?xml version="1.0" encoding="UTF-8"?>
<svg width="15px" height="12px" viewBox="0 0 15 12" version="1.1" xmlns="http://www.w3.org/2000/svg" xmlns:xlink="http://www.w3.org/1999/xlink">
    <!-- Generator: Sketch 62 (91390) - https://sketch.com -->
    <title>heart(1)</title>
    <desc>Created with Sketch.</desc>
    <g id="Concept-screens" stroke="none" stroke-width="1" fill="none" fill-rule="evenodd">
        <g id="heart(1)" fill="#373741" fill-rule="nonzero">
            <path d="M13.8100433,1.17435598 C13.0335617,0.417075423 11.9681168,0 10.8097458,0 C9.94388581,0 9.15092467,0.246149624 8.4528351,0.731554207 C8.10058594,0.976571866 7.78141022,1.2763352 7.5,1.62621343 C7.21870424,1.2764381 6.89941406,0.976571866 6.54705047,0.731554207 C5.84907533,0.246149624 5.05611419,0 4.19025422,0 C3.03188323,0 1.96632387,0.417075423 1.18984222,1.17435598 C0.422630303,1.92278667 3.33066907e-15,2.94525434 3.33066907e-15,4.0535451 C3.33066907e-15,5.19425102 0.472755439,6.23843173 1.48773193,7.33972489 C2.39570619,8.32483791 3.70067596,9.32487223 5.2118683,10.4828663 C5.72788239,10.8783316 6.3127899,11.3265873 6.92012786,11.8040682 C7.08057404,11.930436 7.28645326,12 7.5,12 C7.7134323,12 7.91942596,11.930436 8.07964324,11.804274 C8.6869812,11.3266902 9.27223207,10.8782287 9.78847503,10.4825575 C11.2994385,9.32476933 12.6044083,8.32483791 13.5123825,7.33962199 C14.527359,6.23843173 15,5.19425102 15,4.0534422 C15,2.94525434 14.5773697,1.92278667 13.8100433,1.17435598 Z" id="Path"></path>
        </g>
    </g>
</svg>