<?xml version="1.0" encoding="UTF-8"?>
<svg width="613px" height="243px" viewBox="0 0 613 243" version="1.1" xmlns="http://www.w3.org/2000/svg" xmlns:xlink="http://www.w3.org/1999/xlink">
    <!-- Generator: Sketch 62 (91390) - https://sketch.com -->
    <title>logo</title>
    <desc>Created with Sketch.</desc>
    <g id="Material-Components" stroke="none" stroke-width="1" fill="none" fill-rule="evenodd">
        <g id="logo">
            <g id="Group-15" transform="translate(17.500000, 167.000000)" fill="#1D2539" fill-rule="nonzero">
                <path d="M594.78944,0.277312 L594.78944,3.0544 L561.182808,39.156544 L594.78944,75.258688 L0.21056,75.258688 L0.21056,72.4816 L33.8171923,36.379456 L0.21056,0.277312 L594.78944,0.277312 Z M351.218945,25.5179066 C347.534863,25.5179066 347.534863,25.5179066 345.20428,27.3439301 C342.873698,29.1699536 342.873698,29.1699536 342.873698,31.9890776 C342.873698,34.7281128 342.873698,34.7281128 344.980032,36.4179854 C347.086366,38.1078581 347.086366,38.1078581 350.994697,39.1329941 C353.733732,39.8698106 353.733732,39.8698106 354.81493,40.7988401 C355.896128,41.7278696 355.896128,41.7278696 355.896128,43.1854848 C355.896128,44.6751356 355.896128,44.6751356 354.694797,45.5481029 C353.493466,46.4210703 353.493466,46.4210703 351.33107,46.4210703 C348.97646,46.4210703 348.97646,46.4210703 347.502827,45.3719077 C346.121296,44.3883177 346.121296,44.3883177 346.034951,42.454456 L346.029194,42.1923843 L342.281041,42.1923843 L342.249005,42.2884908 C342.168917,45.6522183 342.168917,45.6522183 344.92397,47.5823572 C347.679023,49.5124961 347.679023,49.5124961 351.33107,49.5124961 C355.127276,49.5124961 355.127276,49.5124961 357.457859,47.7905879 C359.788442,46.0686798 359.788442,46.0686798 359.788442,43.1534493 C359.788442,40.3983963 359.788442,40.3983963 357.834276,38.6204261 C355.880111,36.8424558 355.880111,36.8424558 352.115939,35.8333376 C349.248762,35.0484678 349.248762,35.0484678 348.007386,34.1674916 C346.766011,33.2865153 346.766011,33.2865153 346.766011,31.9570421 C346.766011,30.4834091 346.766011,30.4834091 347.91128,29.5543796 C349.056549,28.6253501 349.056549,28.6253501 351.18691,28.6253501 C353.445413,28.6253501 353.445413,28.6253501 354.662762,29.7385837 C355.793157,30.7723006 355.793157,30.7723006 355.8739,32.3929945 L355.880111,32.6458053 L359.612246,32.6458053 L359.644282,32.5496988 C359.724371,29.6504861 359.724371,29.6504861 357.393788,27.5841963 C355.063205,25.5179066 355.063205,25.5179066 351.218945,25.5179066 Z M177.395604,25.5179066 C173.711521,25.5179066 173.711521,25.5179066 171.380938,27.3439301 C169.050356,29.1699536 169.050356,29.1699536 169.050356,31.9890776 C169.050356,34.7281128 169.050356,34.7281128 171.15669,36.4179854 C173.263024,38.1078581 173.263024,38.1078581 177.171355,39.1329941 C179.91039,39.8698106 179.91039,39.8698106 180.991588,40.7988401 C182.072787,41.7278696 182.072787,41.7278696 182.072787,43.1854848 C182.072787,44.6751356 182.072787,44.6751356 180.871455,45.5481029 C179.670124,46.4210703 179.670124,46.4210703 177.507728,46.4210703 C175.153119,46.4210703 175.153119,46.4210703 173.679486,45.3719077 C172.297955,44.3883177 172.297955,44.3883177 172.211609,42.454456 L172.205853,42.1923843 L168.457699,42.1923843 L168.425664,42.2884908 C168.345575,45.6522183 168.345575,45.6522183 171.100628,47.5823572 C173.855681,49.5124961 173.855681,49.5124961 177.507728,49.5124961 C181.303935,49.5124961 181.303935,49.5124961 183.634517,47.7905879 C185.9651,46.0686798 185.9651,46.0686798 185.9651,43.1534493 C185.9651,40.3983963 185.9651,40.3983963 184.010934,38.6204261 C182.056769,36.8424558 182.056769,36.8424558 178.292598,35.8333376 C175.42542,35.0484678 175.42542,35.0484678 174.184045,34.1674916 C172.942669,33.2865153 172.942669,33.2865153 172.942669,31.9570421 C172.942669,30.4834091 172.942669,30.4834091 174.087938,29.5543796 C175.233207,28.6253501 175.233207,28.6253501 177.363568,28.6253501 C179.622071,28.6253501 179.622071,28.6253501 180.83942,29.7385837 C181.969815,30.7723006 181.969815,30.7723006 182.050558,32.3929945 L182.056769,32.6458053 L185.788905,32.6458053 L185.82094,32.5496988 C185.901029,29.6504861 185.901029,29.6504861 183.570446,27.5841963 C181.239864,25.5179066 181.239864,25.5179066 177.395604,25.5179066 Z M152.500176,25.5179066 C148.816093,25.5179066 148.816093,25.5179066 146.485511,27.3439301 C144.154928,29.1699536 144.154928,29.1699536 144.154928,31.9890776 C144.154928,34.7281128 144.154928,34.7281128 146.261262,36.4179854 C148.367596,38.1078581 148.367596,38.1078581 152.275927,39.1329941 C155.014963,39.8698106 155.014963,39.8698106 156.096161,40.7988401 C157.177359,41.7278696 157.177359,41.7278696 157.177359,43.1854848 C157.177359,44.6751356 157.177359,44.6751356 155.976028,45.5481029 C154.774696,46.4210703 154.774696,46.4210703 152.6123,46.4210703 C150.257691,46.4210703 150.257691,46.4210703 148.784058,45.3719077 C147.402527,44.3883177 147.402527,44.3883177 147.316181,42.454456 L147.310425,42.1923843 L143.562271,42.1923843 L143.530236,42.2884908 C143.450147,45.6522183 143.450147,45.6522183 146.2052,47.5823572 C148.960253,49.5124961 148.960253,49.5124961 152.6123,49.5124961 C156.408507,49.5124961 156.408507,49.5124961 158.739089,47.7905879 C161.069672,46.0686798 161.069672,46.0686798 161.069672,43.1534493 C161.069672,40.3983963 161.069672,40.3983963 159.115507,38.6204261 C157.161341,36.8424558 157.161341,36.8424558 153.39717,35.8333376 C150.529993,35.0484678 150.529993,35.0484678 149.288617,34.1674916 C148.047241,33.2865153 148.047241,33.2865153 148.047241,31.9570421 C148.047241,30.4834091 148.047241,30.4834091 149.19251,29.5543796 C150.33778,28.6253501 150.33778,28.6253501 152.46814,28.6253501 C154.726643,28.6253501 154.726643,28.6253501 155.943992,29.7385837 C157.074388,30.7723006 157.074388,30.7723006 157.15513,32.3929945 L157.161341,32.6458053 L160.893477,32.6458053 L160.925512,32.5496988 C161.005601,29.6504861 161.005601,29.6504861 158.675018,27.5841963 C156.344436,25.5179066 156.344436,25.5179066 152.500176,25.5179066 Z M454.776903,25.8542793 L450.628305,25.8542793 L458.941518,49.1761233 L462.641618,49.1761233 L470.970848,25.8542793 L466.822251,25.8542793 L461.248074,43.1053961 L460.84763,44.6911533 L460.751523,44.6911533 L460.335062,43.0733606 L454.776903,25.8542793 Z M445.274533,25.8542793 L429.657226,25.8542793 L429.657226,49.1761233 L445.386657,49.1761233 L445.386657,46.0686798 L433.54954,46.0686798 L433.54954,38.6844971 L443.752846,38.6844971 L443.752846,35.5610358 L433.54954,35.5610358 L433.54954,28.9777406 L445.274533,28.9777406 L445.274533,25.8542793 Z M136.879025,25.8542793 L121.261719,25.8542793 L121.261719,49.1761233 L136.99115,49.1761233 L136.99115,46.0686798 L125.154032,46.0686798 L125.154032,38.6844971 L135.357339,38.6844971 L135.357339,35.5610358 L125.154032,35.5610358 L125.154032,28.9777406 L136.879025,28.9777406 L136.879025,25.8542793 Z M209.947516,25.8542793 L194.33021,25.8542793 L194.33021,49.1761233 L210.05964,49.1761233 L210.05964,46.0686798 L198.222523,46.0686798 L198.222523,38.6844971 L208.42583,38.6844971 L208.42583,35.5610358 L198.222523,35.5610358 L198.222523,28.9777406 L209.947516,28.9777406 L209.947516,25.8542793 Z M411.393147,25.8542793 L403.832769,25.8542793 L403.832769,49.1761233 L411.393147,49.1761233 C415.830064,49.1761233 415.830064,49.1761233 418.609143,46.4210703 C421.272428,43.7808112 421.272428,43.7808112 421.383398,39.6547667 L421.388223,39.2931716 L421.388223,35.7532488 C421.388223,31.3964208 421.388223,31.3964208 418.609143,28.6253501 C415.945859,25.9697406 415.945859,25.9697406 411.760012,25.8590902 L411.393147,25.8542793 Z M221.500158,25.8542793 L217.607845,25.8542793 L217.607845,49.1761233 L221.500158,49.1761233 L221.500158,32.1812906 L221.596264,32.1492551 L231.943731,49.1761233 L235.820026,49.1761233 L235.820026,25.8542793 L231.943731,25.8542793 L231.943731,42.8330943 L231.847624,42.8651298 L221.500158,25.8542793 Z M261.131916,25.8542793 L243.143982,25.8542793 L243.143982,28.9777406 L250.191792,28.9777406 L250.191792,49.1761233 L254.084106,49.1761233 L254.084106,28.9777406 L261.131916,28.9777406 L261.131916,25.8542793 Z M272.556416,25.8542793 L268.664102,25.8542793 L268.664102,49.1761233 L272.556416,49.1761233 L272.556416,25.8542793 Z M292.101915,25.8542793 L288.417832,25.8542793 L279.848336,49.1761233 L283.788703,49.1761233 L285.646762,43.7300883 L294.776879,43.7300883 L296.61892,49.1761233 L300.575305,49.1761233 L292.101915,25.8542793 Z M311.439183,25.8542793 L307.54687,25.8542793 L307.54687,49.1761233 L322.155058,49.1761233 L322.155058,46.0686798 L311.439183,46.0686798 L311.439183,25.8542793 Z M333.675665,25.8542793 L329.783351,25.8542793 L329.783351,49.1761233 L333.675665,49.1761233 L333.675665,25.8542793 Z M384.091213,25.8542793 L366.103279,25.8542793 L366.103279,28.9777406 L373.151089,28.9777406 L373.151089,49.1761233 L377.043403,49.1761233 L377.043403,28.9777406 L384.091213,28.9777406 L384.091213,25.8542793 Z M411.281023,28.9777406 C414.180236,28.9777406 414.180236,28.9777406 415.838073,30.8678351 C417.39839,32.6467475 417.39839,32.6467475 417.490173,35.3763051 L417.49591,35.7212133 L417.49591,39.2931716 C417.49591,42.2884908 417.49591,42.2884908 415.838073,44.1785853 C414.180236,46.0686798 414.180236,46.0686798 411.281023,46.0686798 L407.725082,46.0686798 L407.725082,28.9777406 L411.281023,28.9777406 Z M290.291909,30.5154446 L293.671654,40.4784851 L286.768004,40.4784851 L290.195803,30.5154446 L290.291909,30.5154446 Z" id="Combined-Shape"></path>
            </g>
            <g id="Group-10" transform="translate(0.500000, 0.000000)">
                <g id="Group-9" fill-rule="nonzero">
                    <g id="Group-8">
                        <path d="M411.46581,124.751815 C416.705642,127.614534 421.827511,129.045894 426.831416,129.045894 C431.835321,129.045894 437.720989,129.565842 444.488419,130.605739 C446.71721,133.719422 447.274407,135.786533 446.160012,136.807074 C444.488419,138.337884 439.507909,143.173604 434.29971,143.173604 C430.827576,143.173604 426.800003,143.173604 422.216989,143.173604 C415.049536,140.825493 411.46581,138.703317 411.46581,136.807074 C411.46581,134.910831 409.611999,130.892411 405.904378,124.751815 L403.590244,120.002197 L411.46581,124.751815 Z" id="Path-6" fill="#D4067F"></path>
                        <path d="M338.908919,21.1796845 C356.581312,23.0847483 368.30173,23.0847483 374.070173,21.1796845 C382.722837,18.3220888 405.213201,12.4479815 412.813167,12.4479815 C420.413133,12.4479815 439.083545,10.87327 451.571852,21.1796845 C459.89739,28.0506275 467.359469,35.5307479 473.958088,43.6200456 C481.983127,44.9404918 488.771936,44.9404918 494.324513,43.6200456 C499.877091,42.2995995 507.680084,38.7711863 517.733492,33.0348061 C519.090493,35.1950983 519.090493,37.499378 517.733492,39.9476451 C515.697991,43.6200456 515.666853,46.3182465 511.895398,48.869568 C508.123943,51.4208896 496.344324,65.6212212 473.958088,71.8868393 C451.571852,78.1524574 451.336493,77.1758474 447.740488,80.5737569 C444.144483,83.9716665 437.902826,90.9524059 433.366453,93.1541126 C428.830081,95.3558194 408.486835,112.371372 408.486835,114.427165 C408.486835,116.482958 402.826801,125.000847 412.813167,134.272864 C422.799534,143.54488 437.632876,154.926144 437.632876,157.067174 C437.632876,159.208203 436.06524,163.181099 433.366453,163.181099 C430.667667,163.181099 412.4694,156.213362 408.486835,153.461229 C404.504271,150.709095 399.40054,146.85033 396.450703,143.43075 C393.500867,140.01117 338.908919,143.43075 320.028824,130.162722 C301.443522,136.889196 288.539651,146.966387 281.317211,160.394293 C277.524835,162.612373 274.892615,162.612373 273.420549,160.394293 C271.212451,157.067174 270.688955,152.945475 273.420549,148.188112 C276.152144,143.43075 281.317211,139.673113 281.317211,136.972988 C281.317211,135.172905 281.317211,132.902816 281.317211,130.162722 C271.970356,132.902816 264.379424,132.902816 258.544415,130.162722 C256.218399,130.162722 249.661622,135.419465 238.874083,145.932952 C233.505989,146.498307 230.821942,144.696298 230.821942,140.526924 C230.821942,134.272864 243.969255,119.805744 247.359856,119.805744 C250.750456,119.805744 258.544415,116.7979 258.544415,114.427165 C258.544415,112.056429 263.650179,105.058354 270.987077,99.1062332 C275.878342,95.1381528 279.32172,93.1541126 281.317211,93.1541126 C283.637521,86.5624763 285.705354,82.3690244 287.520711,80.5737569 C289.336069,78.7784895 290.762964,75.8828503 291.801398,71.8868393 C265.430695,70.8466629 246.292893,73.7423021 234.387992,80.5737569 C216.53064,90.8209392 195.18997,109.466101 158.764908,124.996513 C122.339846,140.526924 60.885392,136.972988 60.885392,136.972988 C60.885392,136.972988 17.3396414,132.212736 1,95.2518017 C29.716688,101.367654 54.0751873,93.5793329 74.0754979,71.8868393 C117.312191,40.2539192 158.124921,23.3515343 196.513687,21.1796845 C234.902454,19.0078347 270.391784,35.0390719 302.981678,69.2733961 C320.103473,68.0000048 336.839659,70.7646588 353.190237,77.5673582 C370.719988,79.571624 380.560384,77.6781177 382.711425,71.8868393 C385.866667,66.1841685 386.655477,59.1181924 385.077856,50.6889111 C367.476784,50.6889111 352.087138,40.8525022 338.908919,21.1796845 Z" id="Path-4" fill="#FF88CE"></path>
                        <path d="M400.514082,16.2767723 C378.637411,7.76073647 366.106395,2.43311167 362.921033,0.293897909 C358.14299,-2.91492273 366.58468,21.2102934 375.537827,21.2102934 C381.506591,21.2102934 388.122845,20.470374 395.38659,18.9905352 L400.514082,16.2767723 Z" id="Path-5" fill="#D4067F"></path>
                        <path d="M451.550002,21.1796845 C459.87554,28.0506275 467.337618,35.5307479 473.936237,43.6200456 C476.11441,43.9784439 478.20151,44.239565 480.197537,44.4034088 C471.973447,49.1238723 465.625994,51.846297 461.15418,52.5707218 C451.809907,54.0844751 443.73134,55.5832507 434.431608,55.5832507 L413.824518,55.5832507 L413.824518,55.5832507 C411.042991,73.9766186 403.301776,86.9883071 390.600872,94.6183163 C371.549517,106.06333 345.094122,87.5083367 342.634324,83.5607275 C341.436059,81.6376904 340.224459,78.0208399 338.999523,72.7101759 C343.753948,73.9960947 348.477039,75.6155115 353.168386,77.5673582 C370.698137,79.571624 380.538533,77.6781177 382.689575,71.8868393 C385.844816,66.1841685 386.633626,59.1181924 385.056006,50.6889111 C367.454933,50.6889111 352.065288,40.8525022 338.887069,21.1796845 C356.559462,23.0847483 368.27988,23.0847483 374.048322,21.1796845 C382.700986,18.3220888 405.191351,12.4479815 412.791317,12.4479815 C420.391283,12.4479815 439.061694,10.87327 451.550002,21.1796845 Z" id="Combined-Shape" fill="#FF186E"></path>
                        <path d="M216.357247,55.8294046 C231.986458,55.8294046 245.764317,54.7083224 261.081648,59.943122 C270.929721,63.3087662 279.303869,67.2424288 286.204094,71.7441096 C262.819313,71.3293275 245.622562,74.2809109 234.61238,80.5989439 C216.755027,90.8461262 195.414357,109.491288 158.989296,125.0217 C122.564234,140.552111 61.1097799,136.998175 61.1097799,136.998175 C61.1097799,136.998175 38.9880312,134.579912 20.3627196,119.807617 C47.4601843,109.039024 63.369185,102.514153 68.0894249,100.231243 C75.78642,96.508648 98.8899856,88.0014632 109.342048,82.2051779 C119.79411,76.4088926 146.076331,63.7904229 166.301514,58.7188653 C183.473533,55.8294046 200.728035,55.8294046 216.357247,55.8294046 Z" id="Combined-Shape" fill="#FF186E"></path>
                        <path d="M72.4350702,73.5351578 C73.1624584,85.8176566 75.3136507,97.5411812 78.888647,108.705732 C82.7073504,120.631368 89.9852508,130.047457 100.722348,136.953999 C78.4963898,138.767539 60.5790426,138.063275 60.5790426,138.063275 C60.5790426,138.063275 8.91422499,132.571098 0.004178417,94.4608781 C27.8593657,100.482191 51.9262562,93.5828594 72.2048498,73.7628832 L72.4350702,73.5351578 Z" id="Combined-Shape" fill="#FFFFFF"></path>
                        <path d="M259.212426,63.8858124 C266.259793,63.8858124 271.798189,64.8353719 275.827615,66.7344908 L275.827615,66.7344908 L281.273398,71.2874085 C263.40416,71.8607711 249.864634,74.7902105 240.654324,80.075413 C222.796971,90.3225952 201.456301,108.967757 165.03124,124.498169 C147.815841,131.838231 125.009515,134.915337 105.742567,136.119464 C118.564753,131.585817 134.545796,123.753757 148.707203,115.50377 C174.797403,100.304446 174.802122,100.757319 183.279019,94.4824136 C191.755915,88.2075084 210.989091,69.6677604 225.447597,66.7344908 C238.542093,64.0779448 246.942275,63.8967106 256.263288,63.8858124 L259.212426,63.8858124 Z" id="Combined-Shape" fill="#D4067F"></path>
                        <path d="M435.981688,13.9281766 L435.716423,14.3134203 C429.302069,23.5094908 418.077389,30.118788 402.042384,34.1413121 C383.477415,38.7985001 363.608812,36.1412624 342.436575,26.1695989 C341.235943,24.5833392 340.052853,22.9200002 338.887069,21.1796845 C356.559462,23.0847483 368.27988,23.0847483 374.048322,21.1796845 C382.700986,18.3220888 405.191351,12.4479815 412.791317,12.4479815 C417.572196,12.4479815 426.733916,11.8248305 435.981688,13.9281766 Z" id="Combined-Shape" fill="#FF88CE"></path>
                    </g>
                    <path d="M507.614148,53.0457349 C503.842693,55.5970565 494.24146,67.978045 471.855224,74.2436632 C449.468988,80.5092813 449.233629,79.5326712 445.637624,82.9305808 C442.041619,86.3284904 435.799962,93.3092298 431.263589,95.5109365 C426.749281,97.7019344 412.438497,108.948298 408.120725,115.182049 L407.900559,115.158193 L401.48738,115.158193 C399.349654,110.623355 399.349654,107.444018 401.48738,105.620182 C404.693969,102.884427 419.299889,90.9741753 419.299889,84.2606723 C419.299889,77.5471693 415.669392,57.8723688 419.299889,57.8723688 C422.930385,57.8723688 431.898849,60.9570173 438.196358,60.9570173 L468.702804,60.9570173 C480.935021,60.7016331 488.952375,59.6734169 492.754867,57.8723688 C496.557359,56.0713207 501.745538,53.7968295 508.319404,51.0488953 L512.243124,48.1405516 C510.97154,50.0306672 509.485021,51.7801222 507.614148,53.0457349 Z" id="Combined-Shape" fill="#FFFFFF"></path>
                </g>
                <path d="M312.834642,114.61187 C313.960045,116.286257 317.247399,118.970782 322.696705,122.665443 C326.271082,125.303612 331.863914,127.628012 339.475199,129.638641 C350.892127,132.654585 368.507087,134.566619 372.767315,134.566619 C375.607468,134.566619 380.0794,133.561305 386.183113,131.550676 L386.183113,131.550676 L391.22455,138.106578 L396.017655,143.044861 C389.651319,140.201603 338.311951,142.908627 320.121855,130.125497 C301.536553,136.851971 288.632682,146.929162 281.410242,160.357069 C277.617867,162.575148 274.985646,162.575148 273.513581,160.357069 C271.305483,157.029949 270.781987,152.90825 273.513581,148.150887 C276.245175,143.393525 281.410242,139.635888 281.410242,136.935763 L281.410242,130.125497 C272.063387,132.865592 264.472455,132.865592 258.637446,130.125497 C258.414937,130.125497 258.153711,130.173602 257.853769,130.269812 L259.968653,127.570636 C261.23438,127.566791 262.177157,127.561024 262.796985,127.553333 C285.937154,127.266232 305.844771,122.044587 312.834642,114.61187 Z M238.967114,145.895727 C237.101477,146.092212 235.560033,146.002753 234.342782,145.627352 L239.69265,145.190363 C239.452969,145.422795 239.211124,145.657916 238.967114,145.895727 Z" id="Combined-Shape" fill="#D4067F" fill-rule="nonzero"></path>
                <path d="M437.79045,157.182074 C437.79045,159.323104 436.222814,163.296 433.524028,163.296 C431.345373,163.296 419.0659,158.755212 412.318437,155.557068 C415.83706,155.186993 418.625799,154.575946 420.686136,153.724806 C423.653072,152.499143 425.550323,149.959349 426.37789,146.105423 C432.646711,151.456271 437.79045,155.921285 437.79045,157.182074 Z M250.50587,119.462808 L250.506285,135.480679 C247.447769,138.050863 243.622893,141.573255 239.031657,146.047853 C233.663563,146.613208 230.979516,144.811199 230.979516,140.641825 C230.979516,134.387764 244.126829,119.920644 247.51743,119.920644 C248.320553,119.920644 249.370733,119.751885 250.50587,119.462808 Z" id="Combined-Shape" fill="#009BB3" fill-rule="nonzero"></path>
                <path d="M444.488419,130.605739 C446.71721,133.719422 447.274407,135.786533 446.160012,136.807074 C444.488419,138.337884 439.507909,143.173604 434.29971,143.173604 L426.379667,143.17165 C427.058215,141.989177 427.689883,141.022789 428.274672,140.272488 C428.791217,139.609746 430.309253,135.940647 432.82878,129.26519 C436.369724,129.508531 440.256682,129.955482 444.488419,130.605739 Z" id="Combined-Shape" fill="#009BB3" fill-rule="nonzero"></path>
                <path d="M517.733492,33.0348061 C519.090493,35.1950983 519.090493,37.499378 517.733492,39.9476451 C515.697991,43.6200456 515.666853,46.3182465 511.895398,48.869568 C511.789194,48.9414132 511.676639,49.0224959 511.557676,49.1123788 C510.901987,50.0015633 510.188779,50.8428919 509.398709,51.5975911 L509.397479,37.5484047 C511.978972,36.2373302 514.757644,34.7327974 517.733492,33.0348061 Z" id="Combined-Shape" fill="#442E12" fill-rule="nonzero"></path>
                <path d="M464.152601,40.3780323 C466.97944,40.3780323 469.271045,43.8486675 469.271045,48.1299129 C469.271045,50.0406796 468.814572,51.789978 468.057772,53.141326 C467.339326,52.6349021 466.563641,52.3591802 465.754562,52.3591802 C464.241167,52.3591802 462.84461,53.3238858 461.721228,54.9518123 C460.121215,53.6427324 459.034158,51.0785853 459.034158,48.1299129 C459.034158,43.8486675 461.325763,40.3780323 464.152601,40.3780323 Z" id="Combined-Shape" fill="#442E12" fill-rule="nonzero"></path>
                <ellipse id="Oval" fill="#FFFFFF" fill-rule="nonzero" cx="466.700536" cy="43.3354286" rx="1.70129937" ry="1.68305857"></ellipse>
                <path d="M454.746183,63.6136122 C455.62508,70.2825482 460.176964,73.6170163 468.401835,73.6170163" id="Path-18" stroke="#442E12" stroke-width="3" stroke-linecap="round"></path>
                <path d="M285.505429,134.844051 C285.505429,136.912066 286.192984,142.396645 287.568094,151.297789 C285.189861,154.125859 283.137568,157.145636 281.410242,160.357069 C277.617867,162.575148 274.985646,162.575148 273.513581,160.357069 C271.305483,157.029949 270.781987,152.90825 273.513581,148.150887 C276.245175,143.393525 281.410242,139.635888 281.410242,136.935763 L281.410782,133.080158 C284.140547,132.334576 285.505429,132.922541 285.505429,134.844051 Z" id="Combined-Shape" fill="#009BB3" fill-rule="nonzero"></path>
                <path d="M400.749988,113.040898 L409.084805,113.905701 C408.860785,114.18203 408.651029,114.451644 408.456851,114.713611 C408.257133,115.934745 406.971186,118.567054 406.892868,121.9941 L406.926832,122.015748 C405.209958,121.191526 403.15101,118.199909 400.749988,113.040898 L400.749988,113.040898 Z" id="Combined-Shape" fill="#FFFFFF" fill-rule="nonzero"></path>
            </g>
        </g>
    </g>
</svg>