<?xml version="1.0" encoding="UTF-8"?>
<svg width="613px" height="243px" viewBox="0 0 613 243" version="1.1" xmlns="http://www.w3.org/2000/svg" xmlns:xlink="http://www.w3.org/1999/xlink">
    <!-- Generator: Sketch 53.2 (72643) - https://sketchapp.com -->
    <title>Group 22</title>
    <desc>Created with Sketch.</desc>
    <g id="Concept-screens" stroke="none" stroke-width="1" fill="none" fill-rule="evenodd">
        <g id="Group-38" transform="translate(-111.000000, -193.000000)">
            <g id="Group-29">
                <g id="Group-22" transform="translate(112.500000, 193.000000)">
                    <g id="Group-15" transform="translate(16.000000, 167.000000)" fill="#1D2539">
                        <path d="M0.21056,36.379456 L0.21056,0.277312 L594.78944,0.277312 L594.78944,39.156544 L594.78944,75.258688 L561.182808,39.156544 L594.78944,3.0544 L594.78944,39.156544 L594.78944,75.258688 L0.21056,75.258688 L0.21056,36.379456 L0.21056,72.4816 L33.8171923,36.379456 L0.21056,0.277312 L0.21056,36.379456 Z M101.656118,28.9777406 L101.656118,25.8542793 L83.6681845,25.8542793 L83.6681845,28.9777406 L90.7159945,28.9777406 L90.7159945,49.1761233 L94.6083078,49.1761233 L94.6083078,28.9777406 L101.656118,28.9777406 Z M127.176238,49.1761233 L127.176238,25.8542793 L123.299942,25.8542793 L123.299942,36.1056393 L112.856369,36.1056393 L112.856369,25.8542793 L108.964056,25.8542793 L108.964056,49.1761233 L112.856369,49.1761233 L112.856369,39.2291006 L123.299942,39.2291006 L123.299942,49.1761233 L127.176238,49.1761233 Z M150.646086,38.6844971 L150.646086,35.5610358 L140.442779,35.5610358 L140.442779,28.9777406 L152.167772,28.9777406 L152.167772,25.8542793 L136.550466,25.8542793 L136.550466,49.1761233 L152.279896,49.1761233 L152.279896,46.0686798 L140.442779,46.0686798 L140.442779,38.6844971 L150.646086,38.6844971 Z M186.357339,38.6844971 L186.357339,35.5610358 L176.154032,35.5610358 L176.154032,28.9777406 L187.879025,28.9777406 L187.879025,25.8542793 L172.261719,25.8542793 L172.261719,49.1761233 L187.99115,49.1761233 L187.99115,46.0686798 L176.154032,46.0686798 L176.154032,38.6844971 L186.357339,38.6844971 Z M208.177359,43.1854848 C208.177359,44.1785903 207.776919,44.9661218 206.976028,45.5481029 C206.175136,46.1300841 205.053905,46.4210703 203.6123,46.4210703 C202.042553,46.4210703 200.766485,46.0713529 199.784058,45.3719077 C198.801631,44.6724624 198.310425,43.6126319 198.310425,42.1923843 L194.562271,42.1923843 L194.530236,42.2884908 C194.476843,44.530987 195.368489,46.2955915 197.2052,47.5823572 C199.041911,48.8691229 201.17759,49.5124961 203.6123,49.5124961 C206.143117,49.5124961 208.18536,48.9385324 209.739089,47.7905879 C211.292819,46.6426434 212.069672,45.096946 212.069672,43.1534493 C212.069672,41.3167381 211.41829,39.8057455 210.115507,38.6204261 C208.812723,37.4351066 206.90663,36.5060864 204.39717,35.8333376 C202.485709,35.3100884 201.116205,34.754812 200.288617,34.1674916 C199.461029,33.5801711 199.047241,32.843362 199.047241,31.9570421 C199.047241,30.9746151 199.428994,30.1737356 200.19251,29.5543796 C200.956027,28.9350235 202.047893,28.6253501 203.46814,28.6253501 C204.973816,28.6253501 206.132422,28.9964242 206.943992,29.7385837 C207.755562,30.4807431 208.161341,31.4498073 208.161341,32.6458053 L211.893477,32.6458053 L211.925512,32.5496988 C211.978905,30.6168806 211.228748,28.9617297 209.675018,27.5841963 C208.121289,26.2066629 206.063029,25.5179066 203.500176,25.5179066 C201.044109,25.5179066 199.03924,26.126575 197.485511,27.3439301 C195.931781,28.5612851 195.154928,30.1096522 195.154928,31.9890776 C195.154928,33.8151102 195.857032,35.291398 197.261262,36.4179854 C198.665492,37.5445728 200.67036,38.4495666 203.275927,39.1329941 C205.10196,39.6242075 206.375358,40.179484 207.096161,40.7988401 C207.816963,41.4181961 208.177359,42.2137364 208.177359,43.1854848 Z M233.072787,43.1854848 C233.072787,44.1785903 232.672347,44.9661218 231.871455,45.5481029 C231.070564,46.1300841 229.949333,46.4210703 228.507728,46.4210703 C226.937981,46.4210703 225.661913,46.0713529 224.679486,45.3719077 C223.697059,44.6724624 223.205853,43.6126319 223.205853,42.1923843 L219.457699,42.1923843 L219.425664,42.2884908 C219.372271,44.530987 220.263917,46.2955915 222.100628,47.5823572 C223.937339,48.8691229 226.073018,49.5124961 228.507728,49.5124961 C231.038545,49.5124961 233.080788,48.9385324 234.634517,47.7905879 C236.188247,46.6426434 236.9651,45.096946 236.9651,43.1534493 C236.9651,41.3167381 236.313718,39.8057455 235.010934,38.6204261 C233.708151,37.4351066 231.802058,36.5060864 229.292598,35.8333376 C227.381137,35.3100884 226.011633,34.754812 225.184045,34.1674916 C224.356457,33.5801711 223.942669,32.843362 223.942669,31.9570421 C223.942669,30.9746151 224.324422,30.1737356 225.087938,29.5543796 C225.851455,28.9350235 226.943321,28.6253501 228.363568,28.6253501 C229.869244,28.6253501 231.02785,28.9964242 231.83942,29.7385837 C232.65099,30.4807431 233.056769,31.4498073 233.056769,32.6458053 L236.788905,32.6458053 L236.82094,32.5496988 C236.874333,30.6168806 236.124176,28.9617297 234.570446,27.5841963 C233.016717,26.2066629 230.958456,25.5179066 228.395604,25.5179066 C225.939536,25.5179066 223.934668,26.126575 222.380938,27.3439301 C220.827209,28.5612851 220.050356,30.1096522 220.050356,31.9890776 C220.050356,33.8151102 220.75246,35.291398 222.15669,36.4179854 C223.56092,37.5445728 225.565788,38.4495666 228.171355,39.1329941 C229.997388,39.6242075 231.270786,40.179484 231.991588,40.7988401 C232.712391,41.4181961 233.072787,42.2137364 233.072787,43.1854848 Z M259.42583,38.6844971 L259.42583,35.5610358 L249.222523,35.5610358 L249.222523,28.9777406 L260.947516,28.9777406 L260.947516,25.8542793 L245.33021,25.8542793 L245.33021,49.1761233 L261.05964,49.1761233 L261.05964,46.0686798 L249.222523,46.0686798 L249.222523,38.6844971 L259.42583,38.6844971 Z M286.820026,49.1761233 L286.820026,25.8542793 L282.943731,25.8542793 L282.943731,42.8330943 L282.847624,42.8651298 L272.500158,25.8542793 L268.607845,25.8542793 L268.607845,49.1761233 L272.500158,49.1761233 L272.500158,32.1812906 L272.596264,32.1492551 L282.943731,49.1761233 L286.820026,49.1761233 Z M312.131916,28.9777406 L312.131916,25.8542793 L294.143982,25.8542793 L294.143982,28.9777406 L301.191792,28.9777406 L301.191792,49.1761233 L305.084106,49.1761233 L305.084106,28.9777406 L312.131916,28.9777406 Z M323.556416,49.1761233 L323.556416,25.8542793 L319.664102,25.8542793 L319.664102,49.1761233 L323.556416,49.1761233 Z M345.776879,43.7300883 L347.61892,49.1761233 L351.575305,49.1761233 L343.101915,25.8542793 L339.417832,25.8542793 L330.848336,49.1761233 L334.788703,49.1761233 L336.646762,43.7300883 L345.776879,43.7300883 Z M337.768004,40.4784851 L341.195803,30.5154446 L341.291909,30.5154446 L344.671654,40.4784851 L337.768004,40.4784851 Z M362.439183,46.0686798 L362.439183,25.8542793 L358.54687,25.8542793 L358.54687,49.1761233 L373.155058,49.1761233 L373.155058,46.0686798 L362.439183,46.0686798 Z M384.675665,49.1761233 L384.675665,25.8542793 L380.783351,25.8542793 L380.783351,49.1761233 L384.675665,49.1761233 Z M406.896128,43.1854848 C406.896128,44.1785903 406.495689,44.9661218 405.694797,45.5481029 C404.893906,46.1300841 403.772674,46.4210703 402.33107,46.4210703 C400.761322,46.4210703 399.485254,46.0713529 398.502827,45.3719077 C397.5204,44.6724624 397.029194,43.6126319 397.029194,42.1923843 L393.281041,42.1923843 L393.249005,42.2884908 C393.195612,44.530987 394.087258,46.2955915 395.92397,47.5823572 C397.760681,48.8691229 399.896359,49.5124961 402.33107,49.5124961 C404.861887,49.5124961 406.904129,48.9385324 408.457859,47.7905879 C410.011588,46.6426434 410.788442,45.096946 410.788442,43.1534493 C410.788442,41.3167381 410.13706,39.8057455 408.834276,38.6204261 C407.531492,37.4351066 405.625399,36.5060864 403.115939,35.8333376 C401.204478,35.3100884 399.834974,34.754812 399.007386,34.1674916 C398.179798,33.5801711 397.766011,32.843362 397.766011,31.9570421 C397.766011,30.9746151 398.147763,30.1737356 398.91128,29.5543796 C399.674796,28.9350235 400.766662,28.6253501 402.18691,28.6253501 C403.692586,28.6253501 404.851191,28.9964242 405.662762,29.7385837 C406.474332,30.4807431 406.880111,31.4498073 406.880111,32.6458053 L410.612246,32.6458053 L410.644282,32.5496988 C410.697675,30.6168806 409.947517,28.9617297 408.393788,27.5841963 C406.840058,26.2066629 404.781798,25.5179066 402.218945,25.5179066 C399.762878,25.5179066 397.75801,26.126575 396.20428,27.3439301 C394.650551,28.5612851 393.873698,30.1096522 393.873698,31.9890776 C393.873698,33.8151102 394.575802,35.291398 395.980032,36.4179854 C397.384261,37.5445728 399.38913,38.4495666 401.994697,39.1329941 C403.820729,39.6242075 405.094128,40.179484 405.81493,40.7988401 C406.535732,41.4181961 406.896128,42.2137364 406.896128,43.1854848 Z M435.091213,28.9777406 L435.091213,25.8542793 L417.103279,25.8542793 L417.103279,28.9777406 L424.151089,28.9777406 L424.151089,49.1761233 L428.043403,49.1761233 L428.043403,28.9777406 L435.091213,28.9777406 Z M454.832769,49.1761233 L462.393147,49.1761233 C465.351106,49.1761233 467.756414,48.2577815 469.609143,46.4210703 C471.461872,44.5843591 472.388223,42.2084166 472.388223,39.2931716 L472.388223,35.7532488 C472.388223,32.8486823 471.461872,30.4727398 469.609143,28.6253501 C467.756414,26.7779603 465.351106,25.8542793 462.393147,25.8542793 L454.832769,25.8542793 L454.832769,49.1761233 Z M458.725082,28.9777406 L462.281023,28.9777406 C464.213841,28.9777406 465.732842,29.6077658 466.838073,30.8678351 C467.943303,32.1279044 468.49591,33.7456809 468.49591,35.7212133 L468.49591,39.2931716 C468.49591,41.290061 467.943303,42.918516 466.838073,44.1785853 C465.732842,45.4386546 464.213841,46.0686798 462.281023,46.0686798 L458.725082,46.0686798 L458.725082,28.9777406 Z M494.752846,38.6844971 L494.752846,35.5610358 L484.54954,35.5610358 L484.54954,28.9777406 L496.274533,28.9777406 L496.274533,25.8542793 L480.657226,25.8542793 L480.657226,49.1761233 L496.386657,49.1761233 L496.386657,46.0686798 L484.54954,46.0686798 L484.54954,38.6844971 L494.752846,38.6844971 Z M511.335062,43.0733606 L505.776903,25.8542793 L501.628305,25.8542793 L509.941518,49.1761233 L513.641618,49.1761233 L521.970848,25.8542793 L517.822251,25.8542793 L512.248074,43.1053961 L511.84763,44.6911533 L511.751523,44.6911533 L511.335062,43.0733606 Z" id="Combined-Shape"></path>
                    </g>
                    <g id="Group-10">
                        <g id="Group-9">
                            <g id="Group-8">
                                <path d="M410.46581,124.751815 C415.705642,127.614534 420.827511,129.045894 425.831416,129.045894 C430.835321,129.045894 436.720989,129.565842 443.488419,130.605739 C445.71721,133.719422 446.274407,135.786533 445.160012,136.807074 C443.488419,138.337884 438.507909,143.173604 433.29971,143.173604 C429.827576,143.173604 425.800003,143.173604 421.216989,143.173604 C414.049536,140.825493 410.46581,138.703317 410.46581,136.807074 C410.46581,134.910831 408.611999,130.892411 404.904378,124.751815 L402.590244,120.002197 L410.46581,124.751815 Z" id="Path-6" fill="#9E005D"></path>
                                <path d="M337.908919,21.1796845 C355.581312,23.0847483 367.30173,23.0847483 373.070173,21.1796845 C381.722837,18.3220888 404.213201,12.4479815 411.813167,12.4479815 C419.413133,12.4479815 438.083545,10.87327 450.571852,21.1796845 C458.89739,28.0506275 466.359469,35.5307479 472.958088,43.6200456 C480.983127,44.9404918 487.771936,44.9404918 493.324513,43.6200456 C498.877091,42.2995995 506.680084,38.7711863 516.733492,33.0348061 C518.090493,35.1950983 518.090493,37.499378 516.733492,39.9476451 C514.697991,43.6200456 514.666853,46.3182465 510.895398,48.869568 C507.123943,51.4208896 495.344324,65.6212212 472.958088,71.8868393 C450.571852,78.1524574 450.336493,77.1758474 446.740488,80.5737569 C443.144483,83.9716665 436.902826,90.9524059 432.366453,93.1541126 C427.830081,95.3558194 407.486835,112.371372 407.486835,114.427165 C407.486835,116.482958 401.826801,125.000847 411.813167,134.272864 C421.799534,143.54488 436.632876,154.926144 436.632876,157.067174 C436.632876,159.208203 435.06524,163.181099 432.366453,163.181099 C429.667667,163.181099 411.4694,156.213362 407.486835,153.461229 C403.504271,150.709095 398.40054,146.85033 395.450703,143.43075 C392.500867,140.01117 337.908919,143.43075 319.028824,130.162722 C300.443522,136.889196 287.539651,146.966387 280.317211,160.394293 C276.524835,162.612373 273.892615,162.612373 272.420549,160.394293 C270.212451,157.067174 269.688955,152.945475 272.420549,148.188112 C275.152144,143.43075 280.317211,139.673113 280.317211,136.972988 C280.317211,135.172905 280.317211,132.902816 280.317211,130.162722 C270.970356,132.902816 263.379424,132.902816 257.544415,130.162722 C255.218399,130.162722 248.661622,135.419465 237.874083,145.932952 C232.505989,146.498307 229.821942,144.696298 229.821942,140.526924 C229.821942,134.272864 242.969255,119.805744 246.359856,119.805744 C249.750456,119.805744 257.544415,116.7979 257.544415,114.427165 C257.544415,112.056429 262.650179,105.058354 269.987077,99.1062332 C274.878342,95.1381528 278.32172,93.1541126 280.317211,93.1541126 C282.637521,86.5624763 284.705354,82.3690244 286.520711,80.5737569 C288.336069,78.7784895 289.762964,75.8828503 290.801398,71.8868393 C264.430695,70.8466629 245.292893,73.7423021 233.387992,80.5737569 C215.53064,90.8209392 194.18997,109.466101 157.764908,124.996513 C121.339846,140.526924 59.885392,136.972988 59.885392,136.972988 C59.885392,136.972988 16.3396414,132.212736 -9.9475983e-14,95.2518017 C28.716688,101.367654 53.0751873,93.5793329 73.0754979,71.8868393 C116.312191,40.2539192 157.124921,23.3515343 195.513687,21.1796845 C233.902454,19.0078347 269.391784,35.0390719 301.981678,69.2733961 C319.103473,68.0000048 335.839659,70.7646588 352.190237,77.5673582 C369.719988,79.571624 379.560384,77.6781177 381.711425,71.8868393 C384.866667,66.1841685 385.655477,59.1181924 384.077856,50.6889111 C366.476784,50.6889111 351.087138,40.8525022 337.908919,21.1796845 Z" id="Path-4" fill="#FF88CE"></path>
                                <path d="M399.514082,16.2767723 C377.637411,7.76073647 365.106395,2.43311167 361.921033,0.293897909 C357.14299,-2.91492273 365.58468,21.2102934 374.537827,21.2102934 C380.506591,21.2102934 387.122845,20.470374 394.38659,18.9905352 L399.514082,16.2767723 Z" id="Path-5" fill="#9E005D"></path>
                                <path d="M479.196724,44.4033421 C470.973542,49.1238317 464.626027,51.8462916 460.15418,52.5707218 C450.809907,54.0844751 442.73134,55.5832507 433.431608,55.5832507 C427.231787,55.5832507 420.362757,55.5832507 412.824518,55.5832507 C410.042991,73.9766186 402.301776,86.9883071 389.600872,94.6183163 C370.549517,106.06333 344.094122,87.5083367 341.634324,83.5607275 C340.435983,81.6375672 339.224303,78.0203765 337.999287,72.7091554 C342.754064,73.9961346 347.477097,75.6155356 352.168386,77.5673582 C369.698137,79.571624 379.538533,77.6781177 381.689575,71.8868393 C384.844816,66.1841685 385.633626,59.1181924 384.056006,50.6889111 C366.454933,50.6889111 351.065288,40.8525022 337.887069,21.1796845 C355.559462,23.0847483 367.27988,23.0847483 373.048322,21.1796845 C381.700986,18.3220888 404.191351,12.4479815 411.791317,12.4479815 C419.391283,12.4479815 438.061694,10.87327 450.550002,21.1796845 C458.87554,28.0506275 466.337618,35.5307479 472.936237,43.6200456 C475.114115,43.9783953 477.200944,44.2394941 479.196724,44.4033421 Z" id="Combined-Shape" fill="#D4067F"></path>
                                <path d="M285.204267,71.7442229 C261.820114,71.32919 244.622818,74.2807637 233.61238,80.5989439 C215.755027,90.8461262 194.414357,109.491288 157.989296,125.0217 C121.564234,140.552111 60.1097799,136.998175 60.1097799,136.998175 C60.1097799,136.998175 37.986783,134.579775 19.3611432,119.806367 C46.4596835,109.03923 62.3691107,102.514189 67.0894249,100.231243 C74.78642,96.508648 97.8899856,88.0014632 108.342048,82.2051779 C118.79411,76.4088926 145.076331,63.7904229 165.301514,58.7188653 C182.473533,55.8294046 199.728035,55.8294046 215.357247,55.8294046 C230.986458,55.8294046 244.764317,54.7083224 260.081648,59.943122 C269.929803,63.3087944 278.30401,67.2424947 285.204267,71.7442229 Z" id="Combined-Shape" fill="#D4067F"></path>
                                <path d="M99.7230443,136.954447 C77.4971326,138.767568 59.5790426,138.063275 59.5790426,138.063275 C59.5790426,138.063275 7.91422499,132.571098 -0.995821583,94.4608781 C26.9649038,100.505005 51.1085716,93.5303934 71.435182,73.5370443 C72.1626787,85.818857 74.3138337,97.5417528 77.888647,108.705732 C81.7074329,120.631625 88.9855653,130.047864 99.7230443,136.954447 Z" id="Combined-Shape" fill="#FFFFFF"></path>
                                <path d="M280.27306,71.2870896 C262.404239,71.860754 248.86466,74.7901952 239.654324,80.075413 C221.796971,90.3225952 200.456301,108.967757 164.03124,124.498169 C146.81604,131.838146 124.010041,134.915266 104.743234,136.119423 C117.565255,131.585571 133.546019,123.753628 147.707203,115.50377 C173.797403,100.304446 173.802122,100.757319 182.279019,94.4824136 C190.755915,88.2075084 209.989091,69.6677604 224.447597,66.7344908 C238.906103,63.8012213 247.641377,63.8858124 258.212426,63.8858124 C265.259793,63.8858124 270.798189,64.8353719 274.827615,66.7344908 L280.27306,71.2870896 Z" id="Combined-Shape" fill="#9E005D"></path>
                                <path d="M434.981347,13.9280992 C428.613463,23.3250873 417.300475,30.062825 401.042384,34.1413121 C382.477273,38.7985358 362.608508,36.1412217 341.436088,26.1693697 C340.235778,24.5831073 339.052772,22.9198789 337.887069,21.1796845 C355.559462,23.0847483 367.27988,23.0847483 373.048322,21.1796845 C381.700986,18.3220888 404.191351,12.4479815 411.791317,12.4479815 C416.572137,12.4479815 425.733691,11.8248458 434.981347,13.9280992 Z" id="Combined-Shape" fill="#FF88CE"></path>
                            </g>
                            <path d="M511.244971,48.137807 C509.972979,50.0289736 508.485927,51.7795097 506.614148,53.0457349 C502.842693,55.5970565 493.24146,67.978045 470.855224,74.2436632 C448.468988,80.5092813 448.233629,79.5326712 444.637624,82.9305808 C441.041619,86.3284904 434.799962,93.3092298 430.263589,95.5109365 C425.749518,97.7018196 411.439997,108.947119 407.121404,115.181069 L406.900559,115.158193 L400.48738,115.158193 C398.349654,110.623355 398.349654,107.444018 400.48738,105.620182 C403.693969,102.884427 418.299889,90.9741753 418.299889,84.2606723 C418.299889,77.5471693 414.669392,57.8723688 418.299889,57.8723688 C421.930385,57.8723688 430.898849,60.9570173 437.196358,60.9570173 C441.394698,60.9570173 446.764816,60.9570173 453.306713,60.9570173 L467.702804,60.9570173 C479.935021,60.7016331 487.952375,59.6734169 491.754867,57.8723688 C495.557359,56.0713207 500.745538,53.7968295 507.319404,51.0488953 L511.244971,48.137807 Z" id="Combined-Shape" fill="#FFFFFF"></path>
                        </g>
                        <path d="M395.011412,143.042081 C388.617835,140.203367 337.306019,142.904458 319.121855,130.125497 C300.536553,136.851971 287.632682,146.929162 280.410242,160.357069 C276.617867,162.575148 273.985646,162.575148 272.513581,160.357069 C270.305483,157.029949 269.781987,152.90825 272.513581,148.150887 C275.245175,143.393525 280.410242,139.635888 280.410242,136.935763 C280.410242,135.13568 280.410242,132.865592 280.410242,130.125497 C271.063387,132.865592 263.472455,132.865592 257.637446,130.125497 C257.414561,130.125497 257.15283,130.173765 256.852251,130.270299 L258.968653,127.570636 C260.23438,127.566791 261.177157,127.561024 261.796985,127.553333 C284.937154,127.266232 304.844771,122.044587 311.834642,114.61187 C312.960045,116.286257 316.247399,118.970782 321.696705,122.665443 C325.271082,125.303612 330.863914,127.628012 338.475199,129.638641 C349.892127,132.654585 367.507087,134.566619 371.767315,134.566619 C374.607468,134.566619 379.0794,133.561305 385.183113,131.550676 L390.22455,138.106578 L395.011412,143.042081 Z M238.691942,145.19105 C238.452493,145.423258 238.210884,145.65815 237.967114,145.895727 C236.101908,146.092166 234.560745,146.002795 233.343626,145.627612 L238.691942,145.19105 Z" id="Combined-Shape" fill="#9E005D"></path>
                        <path d="" id="Path-7" stroke="#979797" stroke-width="3"></path>
                        <path d="M425.378052,146.10467 C431.646744,151.456299 436.79045,155.921289 436.79045,157.182074 C436.79045,159.323104 435.222814,163.296 432.524028,163.296 C430.345566,163.296 418.068067,158.756013 411.320223,155.557915 C414.83722,155.186958 417.625858,154.575922 419.686136,153.724806 C422.653265,152.499063 424.550571,149.959018 425.378052,146.10467 Z M249.505884,135.481015 C246.447436,138.051171 242.622693,141.57345 238.031657,146.047853 C232.663563,146.613208 229.979516,144.811199 229.979516,140.641825 C229.979516,134.387764 243.126829,119.920644 246.51743,119.920644 C247.320557,119.920644 248.370742,119.751884 249.505884,119.462804 L249.505884,135.481015 Z" id="Combined-Shape" fill="#009BB3"></path>
                        <path d="M431.828861,129.264976 C435.370686,129.508641 439.257206,129.955562 443.488419,130.605739 C445.71721,133.719422 446.274407,135.786533 445.160012,136.807074 C443.488419,138.337884 438.507909,143.173604 433.29971,143.173604 L425.378546,143.173604 C426.057519,141.990241 426.689561,141.023203 427.274672,140.272488 C427.791222,139.609739 429.309285,135.940568 431.828861,129.264976 Z" id="Combined-Shape" fill="#009BB3"></path>
                        <path d="M508.398431,51.5979936 L508.398431,37.5479214 C510.979655,36.2369605 513.758009,34.7325887 516.733492,33.0348061 C518.090493,35.1950983 518.090493,37.499378 516.733492,39.9476451 C514.697991,43.6200456 514.666853,46.3182465 510.895398,48.869568 C510.79016,48.9407599 510.678686,49.021022 510.56092,49.1099289 C509.904269,49.9996895 509.18992,50.8421718 508.398431,51.5979936 Z" id="Combined-Shape" fill="#442E12"></path>
                        <path d="M460.720677,54.9526116 C459.120844,53.6418555 458.034158,51.0780811 458.034158,48.1299129 C458.034158,43.8486675 460.325763,40.3780323 463.152601,40.3780323 C465.97944,40.3780323 468.271045,43.8486675 468.271045,48.1299129 C468.271045,50.0403361 467.814736,51.789349 467.05818,53.1405971 C466.33965,52.6350174 465.56381,52.3591802 464.754562,52.3591802 C463.240919,52.3591802 461.844153,53.3242016 460.720677,54.9526116 Z" id="Combined-Shape" fill="#442E12"></path>
                        <ellipse id="Oval" fill="#FFFFFF" cx="465.700536" cy="43.3354286" rx="1.70129937" ry="1.68305857"></ellipse>
                        <path d="M453.746183,63.6136122 C454.62508,70.2825482 459.176964,73.6170163 467.401835,73.6170163" id="Path-18" stroke="#442E12" stroke-width="3" stroke-linecap="round"></path>
                        <path d="M286.567936,151.296765 C284.19033,154.125168 282.137766,157.145269 280.410242,160.357069 C276.617867,162.575148 273.985646,162.575148 272.513581,160.357069 C270.305483,157.029949 269.781987,152.90825 272.513581,148.150887 C275.245175,143.393525 280.410242,139.635888 280.410242,136.935763 L280.410242,133.080305 C283.140367,132.334499 284.505429,132.922414 284.505429,134.844051 C284.505429,136.911986 285.192931,142.396221 286.567935,151.296757 Z" id="Combined-Shape" fill="#009BB3"></path>
                        <path d="M408.085393,113.904976 C407.862478,114.179922 407.653683,114.448223 407.460301,114.708959 C407.258464,115.932009 405.971262,118.56521 405.892872,121.993955 L405.937298,122.020747 C404.218327,121.203679 402.155891,118.210396 399.749988,113.040898 L408.085393,113.904976 Z" id="Combined-Shape" fill="#FFFFFF"></path>
                    </g>
                </g>
            </g>
        </g>
    </g>
</svg>