<?xml version="1.0" encoding="UTF-8"?>
<svg width="613px" height="243px" viewBox="0 0 613 243" version="1.1" xmlns="http://www.w3.org/2000/svg" xmlns:xlink="http://www.w3.org/1999/xlink">
    <!-- Generator: Sketch 62 (91390) - https://sketch.com -->
    <title>Group 22</title>
    <desc>Created with Sketch.</desc>
    <g id="Concept-screens" stroke="none" stroke-width="1" fill="none" fill-rule="evenodd">
        <g id="Group-38" transform="translate(-111.000000, -193.000000)">
            <g id="Group-29">
                <g id="Group-22" transform="translate(112.500000, 193.000000)">
                    <g id="Group-15" transform="translate(16.000000, 167.000000)" fill="#1D2539">
                        <path d="M594.78944,0.277312 L594.78944,3.0544 L561.182808,39.156544 L594.78944,75.258688 L0.21056,75.258688 L0.21056,72.4816 L33.8171923,36.379456 L0.21056,0.277312 L594.78944,0.277312 Z M402.218945,25.5179066 C398.534863,25.5179066 398.534863,25.5179066 396.20428,27.3439301 C393.873698,29.1699536 393.873698,29.1699536 393.873698,31.9890776 C393.873698,34.7281128 393.873698,34.7281128 395.980032,36.4179854 C398.086366,38.1078581 398.086366,38.1078581 401.994697,39.1329941 C404.733732,39.8698106 404.733732,39.8698106 405.81493,40.7988401 C406.896128,41.7278696 406.896128,41.7278696 406.896128,43.1854848 C406.896128,44.6751356 406.896128,44.6751356 405.694797,45.5481029 C404.493466,46.4210703 404.493466,46.4210703 402.33107,46.4210703 C399.97646,46.4210703 399.97646,46.4210703 398.502827,45.3719077 C397.121296,44.3883177 397.121296,44.3883177 397.034951,42.454456 L397.029194,42.1923843 L393.281041,42.1923843 L393.249005,42.2884908 C393.168917,45.6522183 393.168917,45.6522183 395.92397,47.5823572 C398.679023,49.5124961 398.679023,49.5124961 402.33107,49.5124961 C406.127276,49.5124961 406.127276,49.5124961 408.457859,47.7905879 C410.788442,46.0686798 410.788442,46.0686798 410.788442,43.1534493 C410.788442,40.3983963 410.788442,40.3983963 408.834276,38.6204261 C406.880111,36.8424558 406.880111,36.8424558 403.115939,35.8333376 C400.248762,35.0484678 400.248762,35.0484678 399.007386,34.1674916 C397.766011,33.2865153 397.766011,33.2865153 397.766011,31.9570421 C397.766011,30.4834091 397.766011,30.4834091 398.91128,29.5543796 C400.056549,28.6253501 400.056549,28.6253501 402.18691,28.6253501 C404.445413,28.6253501 404.445413,28.6253501 405.662762,29.7385837 C406.793157,30.7723006 406.793157,30.7723006 406.8739,32.3929945 L406.880111,32.6458053 L410.612246,32.6458053 L410.644282,32.5496988 C410.724371,29.6504861 410.724371,29.6504861 408.393788,27.5841963 C406.063205,25.5179066 406.063205,25.5179066 402.218945,25.5179066 Z M228.395604,25.5179066 C224.711521,25.5179066 224.711521,25.5179066 222.380938,27.3439301 C220.050356,29.1699536 220.050356,29.1699536 220.050356,31.9890776 C220.050356,34.7281128 220.050356,34.7281128 222.15669,36.4179854 C224.263024,38.1078581 224.263024,38.1078581 228.171355,39.1329941 C230.91039,39.8698106 230.91039,39.8698106 231.991588,40.7988401 C233.072787,41.7278696 233.072787,41.7278696 233.072787,43.1854848 C233.072787,44.6751356 233.072787,44.6751356 231.871455,45.5481029 C230.670124,46.4210703 230.670124,46.4210703 228.507728,46.4210703 C226.153119,46.4210703 226.153119,46.4210703 224.679486,45.3719077 C223.297955,44.3883177 223.297955,44.3883177 223.211609,42.454456 L223.205853,42.1923843 L219.457699,42.1923843 L219.425664,42.2884908 C219.345575,45.6522183 219.345575,45.6522183 222.100628,47.5823572 C224.855681,49.5124961 224.855681,49.5124961 228.507728,49.5124961 C232.303935,49.5124961 232.303935,49.5124961 234.634517,47.7905879 C236.9651,46.0686798 236.9651,46.0686798 236.9651,43.1534493 C236.9651,40.3983963 236.9651,40.3983963 235.010934,38.6204261 C233.056769,36.8424558 233.056769,36.8424558 229.292598,35.8333376 C226.42542,35.0484678 226.42542,35.0484678 225.184045,34.1674916 C223.942669,33.2865153 223.942669,33.2865153 223.942669,31.9570421 C223.942669,30.4834091 223.942669,30.4834091 225.087938,29.5543796 C226.233207,28.6253501 226.233207,28.6253501 228.363568,28.6253501 C230.622071,28.6253501 230.622071,28.6253501 231.83942,29.7385837 C232.969815,30.7723006 232.969815,30.7723006 233.050558,32.3929945 L233.056769,32.6458053 L236.788905,32.6458053 L236.82094,32.5496988 C236.901029,29.6504861 236.901029,29.6504861 234.570446,27.5841963 C232.239864,25.5179066 232.239864,25.5179066 228.395604,25.5179066 Z M203.500176,25.5179066 C199.816093,25.5179066 199.816093,25.5179066 197.485511,27.3439301 C195.154928,29.1699536 195.154928,29.1699536 195.154928,31.9890776 C195.154928,34.7281128 195.154928,34.7281128 197.261262,36.4179854 C199.367596,38.1078581 199.367596,38.1078581 203.275927,39.1329941 C206.014963,39.8698106 206.014963,39.8698106 207.096161,40.7988401 C208.177359,41.7278696 208.177359,41.7278696 208.177359,43.1854848 C208.177359,44.6751356 208.177359,44.6751356 206.976028,45.5481029 C205.774696,46.4210703 205.774696,46.4210703 203.6123,46.4210703 C201.257691,46.4210703 201.257691,46.4210703 199.784058,45.3719077 C198.402527,44.3883177 198.402527,44.3883177 198.316181,42.454456 L198.310425,42.1923843 L194.562271,42.1923843 L194.530236,42.2884908 C194.450147,45.6522183 194.450147,45.6522183 197.2052,47.5823572 C199.960253,49.5124961 199.960253,49.5124961 203.6123,49.5124961 C207.408507,49.5124961 207.408507,49.5124961 209.739089,47.7905879 C212.069672,46.0686798 212.069672,46.0686798 212.069672,43.1534493 C212.069672,40.3983963 212.069672,40.3983963 210.115507,38.6204261 C208.161341,36.8424558 208.161341,36.8424558 204.39717,35.8333376 C201.529993,35.0484678 201.529993,35.0484678 200.288617,34.1674916 C199.047241,33.2865153 199.047241,33.2865153 199.047241,31.9570421 C199.047241,30.4834091 199.047241,30.4834091 200.19251,29.5543796 C201.33778,28.6253501 201.33778,28.6253501 203.46814,28.6253501 C205.726643,28.6253501 205.726643,28.6253501 206.943992,29.7385837 C208.074388,30.7723006 208.074388,30.7723006 208.15513,32.3929945 L208.161341,32.6458053 L211.893477,32.6458053 L211.925512,32.5496988 C212.005601,29.6504861 212.005601,29.6504861 209.675018,27.5841963 C207.344436,25.5179066 207.344436,25.5179066 203.500176,25.5179066 Z M505.776903,25.8542793 L501.628305,25.8542793 L509.941518,49.1761233 L513.641618,49.1761233 L521.970848,25.8542793 L517.822251,25.8542793 L512.248074,43.1053961 L511.84763,44.6911533 L511.751523,44.6911533 L511.335062,43.0733606 L505.776903,25.8542793 Z M496.274533,25.8542793 L480.657226,25.8542793 L480.657226,49.1761233 L496.386657,49.1761233 L496.386657,46.0686798 L484.54954,46.0686798 L484.54954,38.6844971 L494.752846,38.6844971 L494.752846,35.5610358 L484.54954,35.5610358 L484.54954,28.9777406 L496.274533,28.9777406 L496.274533,25.8542793 Z M112.856369,25.8542793 L108.964056,25.8542793 L108.964056,49.1761233 L112.856369,49.1761233 L112.856369,39.2291006 L123.299942,39.2291006 L123.299942,49.1761233 L127.176238,49.1761233 L127.176238,25.8542793 L123.299942,25.8542793 L123.299942,36.1056393 L112.856369,36.1056393 L112.856369,25.8542793 Z M152.167772,25.8542793 L136.550466,25.8542793 L136.550466,49.1761233 L152.279896,49.1761233 L152.279896,46.0686798 L140.442779,46.0686798 L140.442779,38.6844971 L150.646086,38.6844971 L150.646086,35.5610358 L140.442779,35.5610358 L140.442779,28.9777406 L152.167772,28.9777406 L152.167772,25.8542793 Z M187.879025,25.8542793 L172.261719,25.8542793 L172.261719,49.1761233 L187.99115,49.1761233 L187.99115,46.0686798 L176.154032,46.0686798 L176.154032,38.6844971 L186.357339,38.6844971 L186.357339,35.5610358 L176.154032,35.5610358 L176.154032,28.9777406 L187.879025,28.9777406 L187.879025,25.8542793 Z M260.947516,25.8542793 L245.33021,25.8542793 L245.33021,49.1761233 L261.05964,49.1761233 L261.05964,46.0686798 L249.222523,46.0686798 L249.222523,38.6844971 L259.42583,38.6844971 L259.42583,35.5610358 L249.222523,35.5610358 L249.222523,28.9777406 L260.947516,28.9777406 L260.947516,25.8542793 Z M462.393147,25.8542793 L454.832769,25.8542793 L454.832769,49.1761233 L462.393147,49.1761233 C466.830064,49.1761233 466.830064,49.1761233 469.609143,46.4210703 C472.272428,43.7808112 472.272428,43.7808112 472.383398,39.6547667 L472.388223,39.2931716 L472.388223,35.7532488 C472.388223,31.3964208 472.388223,31.3964208 469.609143,28.6253501 C466.945859,25.9697406 466.945859,25.9697406 462.760012,25.8590902 L462.393147,25.8542793 Z M272.500158,25.8542793 L268.607845,25.8542793 L268.607845,49.1761233 L272.500158,49.1761233 L272.500158,32.1812906 L272.596264,32.1492551 L282.943731,49.1761233 L286.820026,49.1761233 L286.820026,25.8542793 L282.943731,25.8542793 L282.943731,42.8330943 L282.847624,42.8651298 L272.500158,25.8542793 Z M312.131916,25.8542793 L294.143982,25.8542793 L294.143982,28.9777406 L301.191792,28.9777406 L301.191792,49.1761233 L305.084106,49.1761233 L305.084106,28.9777406 L312.131916,28.9777406 L312.131916,25.8542793 Z M323.556416,25.8542793 L319.664102,25.8542793 L319.664102,49.1761233 L323.556416,49.1761233 L323.556416,25.8542793 Z M343.101915,25.8542793 L339.417832,25.8542793 L330.848336,49.1761233 L334.788703,49.1761233 L336.646762,43.7300883 L345.776879,43.7300883 L347.61892,49.1761233 L351.575305,49.1761233 L343.101915,25.8542793 Z M362.439183,25.8542793 L358.54687,25.8542793 L358.54687,49.1761233 L373.155058,49.1761233 L373.155058,46.0686798 L362.439183,46.0686798 L362.439183,25.8542793 Z M384.675665,25.8542793 L380.783351,25.8542793 L380.783351,49.1761233 L384.675665,49.1761233 L384.675665,25.8542793 Z M101.656118,25.8542793 L83.6681845,25.8542793 L83.6681845,28.9777406 L90.7159945,28.9777406 L90.7159945,49.1761233 L94.6083078,49.1761233 L94.6083078,28.9777406 L101.656118,28.9777406 L101.656118,25.8542793 Z M435.091213,25.8542793 L417.103279,25.8542793 L417.103279,28.9777406 L424.151089,28.9777406 L424.151089,49.1761233 L428.043403,49.1761233 L428.043403,28.9777406 L435.091213,28.9777406 L435.091213,25.8542793 Z M462.281023,28.9777406 C465.180236,28.9777406 465.180236,28.9777406 466.838073,30.8678351 C468.39839,32.6467475 468.39839,32.6467475 468.490173,35.3763051 L468.49591,35.7212133 L468.49591,39.2931716 C468.49591,42.2884908 468.49591,42.2884908 466.838073,44.1785853 C465.180236,46.0686798 465.180236,46.0686798 462.281023,46.0686798 L458.725082,46.0686798 L458.725082,28.9777406 L462.281023,28.9777406 Z M341.291909,30.5154446 L344.671654,40.4784851 L337.768004,40.4784851 L341.195803,30.5154446 L341.291909,30.5154446 Z" id="Combined-Shape"></path>
                    </g>
                    <g id="Group-10">
                        <g id="Group-9">
                            <g id="Group-8">
                                <path d="M410.46581,124.751815 C415.705642,127.614534 420.827511,129.045894 425.831416,129.045894 C430.835321,129.045894 436.720989,129.565842 443.488419,130.605739 C445.71721,133.719422 446.274407,135.786533 445.160012,136.807074 C443.488419,138.337884 438.507909,143.173604 433.29971,143.173604 C429.827576,143.173604 425.800003,143.173604 421.216989,143.173604 C414.049536,140.825493 410.46581,138.703317 410.46581,136.807074 C410.46581,134.910831 408.611999,130.892411 404.904378,124.751815 L402.590244,120.002197 L410.46581,124.751815 Z" id="Path-6" fill="#D4067F"></path>
                                <path d="M337.908919,21.1796845 C355.581312,23.0847483 367.30173,23.0847483 373.070173,21.1796845 C381.722837,18.3220888 404.213201,12.4479815 411.813167,12.4479815 C419.413133,12.4479815 438.083545,10.87327 450.571852,21.1796845 C458.89739,28.0506275 466.359469,35.5307479 472.958088,43.6200456 C480.983127,44.9404918 487.771936,44.9404918 493.324513,43.6200456 C498.877091,42.2995995 506.680084,38.7711863 516.733492,33.0348061 C518.090493,35.1950983 518.090493,37.499378 516.733492,39.9476451 C514.697991,43.6200456 514.666853,46.3182465 510.895398,48.869568 C507.123943,51.4208896 495.344324,65.6212212 472.958088,71.8868393 C450.571852,78.1524574 450.336493,77.1758474 446.740488,80.5737569 C443.144483,83.9716665 436.902826,90.9524059 432.366453,93.1541126 C427.830081,95.3558194 407.486835,112.371372 407.486835,114.427165 C407.486835,116.482958 401.826801,125.000847 411.813167,134.272864 C421.799534,143.54488 436.632876,154.926144 436.632876,157.067174 C436.632876,159.208203 435.06524,163.181099 432.366453,163.181099 C429.667667,163.181099 411.4694,156.213362 407.486835,153.461229 C403.504271,150.709095 398.40054,146.85033 395.450703,143.43075 C392.500867,140.01117 337.908919,143.43075 319.028824,130.162722 C300.443522,136.889196 287.539651,146.966387 280.317211,160.394293 C276.524835,162.612373 273.892615,162.612373 272.420549,160.394293 C270.212451,157.067174 269.688955,152.945475 272.420549,148.188112 C275.152144,143.43075 280.317211,139.673113 280.317211,136.972988 C280.317211,135.172905 280.317211,132.902816 280.317211,130.162722 C270.970356,132.902816 263.379424,132.902816 257.544415,130.162722 C255.218399,130.162722 248.661622,135.419465 237.874083,145.932952 C232.505989,146.498307 229.821942,144.696298 229.821942,140.526924 C229.821942,134.272864 242.969255,119.805744 246.359856,119.805744 C249.750456,119.805744 257.544415,116.7979 257.544415,114.427165 C257.544415,112.056429 262.650179,105.058354 269.987077,99.1062332 C274.878342,95.1381528 278.32172,93.1541126 280.317211,93.1541126 C282.637521,86.5624763 284.705354,82.3690244 286.520711,80.5737569 C288.336069,78.7784895 289.762964,75.8828503 290.801398,71.8868393 C264.430695,70.8466629 245.292893,73.7423021 233.387992,80.5737569 C215.53064,90.8209392 194.18997,109.466101 157.764908,124.996513 C121.339846,140.526924 59.885392,136.972988 59.885392,136.972988 C59.885392,136.972988 16.3396414,132.212736 -9.9475983e-14,95.2518017 C28.716688,101.367654 53.0751873,93.5793329 73.0754979,71.8868393 C116.312191,40.2539192 157.124921,23.3515343 195.513687,21.1796845 C233.902454,19.0078347 269.391784,35.0390719 301.981678,69.2733961 C319.103473,68.0000048 335.839659,70.7646588 352.190237,77.5673582 C369.719988,79.571624 379.560384,77.6781177 381.711425,71.8868393 C384.866667,66.1841685 385.655477,59.1181924 384.077856,50.6889111 C366.476784,50.6889111 351.087138,40.8525022 337.908919,21.1796845 Z" id="Path-4" fill="#FF88CE"></path>
                                <path d="M399.514082,16.2767723 C377.637411,7.76073647 365.106395,2.43311167 361.921033,0.293897909 C357.14299,-2.91492273 365.58468,21.2102934 374.537827,21.2102934 C380.506591,21.2102934 387.122845,20.470374 394.38659,18.9905352 L399.514082,16.2767723 Z" id="Path-5" fill="#D4067F"></path>
                                <path d="M450.550002,21.1796845 C458.87554,28.0506275 466.337618,35.5307479 472.936237,43.6200456 C475.11441,43.9784439 477.20151,44.239565 479.197537,44.4034088 C470.973447,49.1238723 464.625994,51.846297 460.15418,52.5707218 C450.809907,54.0844751 442.73134,55.5832507 433.431608,55.5832507 L412.824518,55.5832507 L412.824518,55.5832507 C410.042991,73.9766186 402.301776,86.9883071 389.600872,94.6183163 C370.549517,106.06333 344.094122,87.5083367 341.634324,83.5607275 C340.436059,81.6376904 339.224459,78.0208399 337.999523,72.7101759 C342.753948,73.9960947 347.477039,75.6155115 352.168386,77.5673582 C369.698137,79.571624 379.538533,77.6781177 381.689575,71.8868393 C384.844816,66.1841685 385.633626,59.1181924 384.056006,50.6889111 C366.454933,50.6889111 351.065288,40.8525022 337.887069,21.1796845 C355.559462,23.0847483 367.27988,23.0847483 373.048322,21.1796845 C381.700986,18.3220888 404.191351,12.4479815 411.791317,12.4479815 C419.391283,12.4479815 438.061694,10.87327 450.550002,21.1796845 Z" id="Combined-Shape" fill="#FF186E"></path>
                                <path d="M215.357247,55.8294046 C230.986458,55.8294046 244.764317,54.7083224 260.081648,59.943122 C269.929721,63.3087662 278.303869,67.2424288 285.204094,71.7441096 C261.819313,71.3293275 244.622562,74.2809109 233.61238,80.5989439 C215.755027,90.8461262 194.414357,109.491288 157.989296,125.0217 C121.564234,140.552111 60.1097799,136.998175 60.1097799,136.998175 C60.1097799,136.998175 37.9880312,134.579912 19.3627196,119.807617 C46.4601843,109.039024 62.369185,102.514153 67.0894249,100.231243 C74.78642,96.508648 97.8899856,88.0014632 108.342048,82.2051779 C118.79411,76.4088926 145.076331,63.7904229 165.301514,58.7188653 C182.473533,55.8294046 199.728035,55.8294046 215.357247,55.8294046 Z" id="Combined-Shape" fill="#FF186E"></path>
                                <path d="M71.4350702,73.5351578 C72.1624584,85.8176566 74.3136507,97.5411812 77.888647,108.705732 C81.7073504,120.631368 88.9852508,130.047457 99.7223483,136.953999 C77.4963898,138.767539 59.5790426,138.063275 59.5790426,138.063275 C59.5790426,138.063275 7.91422499,132.571098 -0.995821583,94.4608781 C26.8593657,100.482191 50.9262562,93.5828594 71.2048498,73.7628832 Z" id="Combined-Shape" fill="#FFFFFF"></path>
                                <path d="M258.212426,63.8858124 C265.259793,63.8858124 270.798189,64.8353719 274.827615,66.7344908 L274.827615,66.7344908 L280.273398,71.2874085 C262.40416,71.8607711 248.864634,74.7902105 239.654324,80.075413 C221.796971,90.3225952 200.456301,108.967757 164.03124,124.498169 C146.815841,131.838231 124.009515,134.915337 104.742567,136.119464 C117.564753,131.585817 133.545796,123.753757 147.707203,115.50377 C173.797403,100.304446 173.802122,100.757319 182.279019,94.4824136 C190.755915,88.2075084 209.989091,69.6677604 224.447597,66.7344908 C237.542093,64.0779448 245.942275,63.8967106 255.263288,63.8861587 Z" id="Combined-Shape" fill="#D4067F"></path>
                                <path d="M434.981688,13.9281766 L434.716423,14.3134203 C428.302069,23.5094908 417.077389,30.118788 401.042384,34.1413121 C382.477415,38.7985001 362.608812,36.1412624 341.436575,26.1695989 C340.235943,24.5833392 339.052853,22.9200002 337.887069,21.1796845 C355.559462,23.0847483 367.27988,23.0847483 373.048322,21.1796845 C381.700986,18.3220888 404.191351,12.4479815 411.791317,12.4479815 C416.572196,12.4479815 425.733916,11.8248305 434.981688,13.9281766 Z" id="Combined-Shape" fill="#FF88CE"></path>
                            </g>
                            <path d="M506.614148,53.0457349 C502.842693,55.5970565 493.24146,67.978045 470.855224,74.2436632 C448.468988,80.5092813 448.233629,79.5326712 444.637624,82.9305808 C441.041619,86.3284904 434.799962,93.3092298 430.263589,95.5109365 C425.749281,97.7019344 411.438497,108.948298 407.120725,115.182049 L406.900559,115.158193 L400.48738,115.158193 C398.349654,110.623355 398.349654,107.444018 400.48738,105.620182 C403.693969,102.884427 418.299889,90.9741753 418.299889,84.2606723 C418.299889,77.5471693 414.669392,57.8723688 418.299889,57.8723688 C421.930385,57.8723688 430.898849,60.9570173 437.196358,60.9570173 L467.702804,60.9570173 C479.935021,60.7016331 487.952375,59.6734169 491.754867,57.8723688 C495.557359,56.0713207 500.745538,53.7968295 507.319404,51.0488953 L511.243124,48.1405516 C509.97154,50.0306672 508.485021,51.7801222 506.614148,53.0457349 Z" id="Combined-Shape" fill="#FFFFFF"></path>
                        </g>
                        <path d="M311.834642,114.61187 C312.960045,116.286257 316.247399,118.970782 321.696705,122.665443 C325.271082,125.303612 330.863914,127.628012 338.475199,129.638641 C349.892127,132.654585 367.507087,134.566619 371.767315,134.566619 C374.607468,134.566619 379.0794,133.561305 385.183113,131.550676 L385.183113,131.550676 L390.22455,138.106578 L395.017655,143.044861 C388.651319,140.201603 337.311951,142.908627 319.121855,130.125497 C300.536553,136.851971 287.632682,146.929162 280.410242,160.357069 C276.617867,162.575148 273.985646,162.575148 272.513581,160.357069 C270.305483,157.029949 269.781987,152.90825 272.513581,148.150887 C275.245175,143.393525 280.410242,139.635888 280.410242,136.935763 L280.410242,130.125497 C271.063387,132.865592 263.472455,132.865592 257.637446,130.125497 C257.414937,130.125497 257.153711,130.173602 256.853769,130.269812 L258.968653,127.570636 C260.23438,127.566791 261.177157,127.561024 261.796985,127.553333 C284.937154,127.266232 304.844771,122.044587 311.834642,114.61187 Z M237.967114,145.895727 C236.101477,146.092212 234.560033,146.002753 233.342782,145.627352 L238.69265,145.190363 C238.452969,145.422795 238.211124,145.657916 237.967114,145.895727 Z" id="Combined-Shape" fill="#D4067F"></path>
                        <path d="" id="Path-7" stroke="#979797" stroke-width="3"></path>
                        <path d="M436.79045,157.182074 C436.79045,159.323104 435.222814,163.296 432.524028,163.296 C430.345373,163.296 418.0659,158.755212 411.318437,155.557068 C414.83706,155.186993 417.625799,154.575946 419.686136,153.724806 C422.653072,152.499143 424.550323,149.959349 425.37789,146.105423 C431.646711,151.456271 436.79045,155.921285 436.79045,157.182074 Z M249.50587,119.462808 L249.506285,135.480679 C246.447769,138.050863 242.622893,141.573255 238.031657,146.047853 C232.663563,146.613208 229.979516,144.811199 229.979516,140.641825 C229.979516,134.387764 243.126829,119.920644 246.51743,119.920644 C247.320553,119.920644 248.370733,119.751885 249.50587,119.462808 Z" id="Combined-Shape" fill="#009BB3"></path>
                        <path d="M443.488419,130.605739 C445.71721,133.719422 446.274407,135.786533 445.160012,136.807074 C443.488419,138.337884 438.507909,143.173604 433.29971,143.173604 L425.379667,143.17165 C426.058215,141.989177 426.689883,141.022789 427.274672,140.272488 C427.791217,139.609746 429.309253,135.940647 431.82878,129.26519 C435.369724,129.508531 439.256682,129.955482 443.488419,130.605739 Z" id="Combined-Shape" fill="#009BB3"></path>
                        <path d="M516.733492,33.0348061 C518.090493,35.1950983 518.090493,37.499378 516.733492,39.9476451 C514.697991,43.6200456 514.666853,46.3182465 510.895398,48.869568 C510.789194,48.9414132 510.676639,49.0224959 510.557676,49.1123788 C509.901987,50.0015633 509.188779,50.8428919 508.398709,51.5975911 L508.397479,37.5484047 C510.978972,36.2373302 513.757644,34.7327974 516.733492,33.0348061 Z" id="Combined-Shape" fill="#442E12"></path>
                        <path d="M463.152601,40.3780323 C465.97944,40.3780323 468.271045,43.8486675 468.271045,48.1299129 C468.271045,50.0406796 467.814572,51.789978 467.057772,53.141326 C466.339326,52.6349021 465.563641,52.3591802 464.754562,52.3591802 C463.241167,52.3591802 461.84461,53.3238858 460.721228,54.9518123 C459.121215,53.6427324 458.034158,51.0785853 458.034158,48.1299129 C458.034158,43.8486675 460.325763,40.3780323 463.152601,40.3780323 Z" id="Combined-Shape" fill="#442E12"></path>
                        <ellipse id="Oval" fill="#FFFFFF" cx="465.700536" cy="43.3354286" rx="1.70129937" ry="1.68305857"></ellipse>
                        <path d="M453.746183,63.6136122 C454.62508,70.2825482 459.176964,73.6170163 467.401835,73.6170163" id="Path-18" stroke="#442E12" stroke-width="3" stroke-linecap="round"></path>
                        <path d="M284.505429,134.844051 C284.505429,136.912066 285.192984,142.396645 286.568094,151.297789 C284.189861,154.125859 282.137568,157.145636 280.410242,160.357069 C276.617867,162.575148 273.985646,162.575148 272.513581,160.357069 C270.305483,157.029949 269.781987,152.90825 272.513581,148.150887 C275.245175,143.393525 280.410242,139.635888 280.410242,136.935763 L280.410782,133.080158 C283.140547,132.334576 284.505429,132.922541 284.505429,134.844051 Z" id="Combined-Shape" fill="#009BB3"></path>
                        <path d="M399.749988,113.040898 L408.084805,113.905701 C407.860785,114.18203 407.651029,114.451644 407.456851,114.713611 C407.257133,115.934745 405.971186,118.567054 405.892868,121.9941 L405.926832,122.015748 C404.209958,121.191526 402.15101,118.199909 399.749988,113.040898 L399.749988,113.040898 Z" id="Combined-Shape" fill="#FFFFFF"></path>
                    </g>
                </g>
            </g>
        </g>
    </g>
</svg>