<?xml version="1.0" encoding="UTF-8"?>
<svg width="350px" height="350px" viewBox="0 0 350 350" version="1.1" xmlns="http://www.w3.org/2000/svg" xmlns:xlink="http://www.w3.org/1999/xlink">
    <!-- Generator: Sketch 62 (91390) - https://sketch.com -->
    <title>Group 17</title>
    <desc>Created with Sketch.</desc>
    <defs>
        <circle id="path-1" cx="137.973097" cy="137.973097" r="137.973097"></circle>
    </defs>
    <g id="Page-1" stroke="none" stroke-width="1" fill="none" fill-rule="evenodd">
        <g id="Group-17">
            <rect id="Rectangle" fill="#F9F9F9" x="0" y="0" width="350" height="350"></rect>
            <g id="persona" transform="translate(37.000000, 25.000000)">
                <g id="Idle_8____pGqUOiRV">
                    <g id="Clipped">
                        <mask id="mask-2" fill="white">
                            <use xlink:href="#path-1"></use>
                        </mask>
                        <g id="SVGID_1____pGqUOiRV"></g>
                        <g id="Group" mask="url(#mask-2)">
                            <g transform="translate(54.162839, 157.878914)">
                                <g>
                                    <path d="M74.9744147,2.37392267 L92.6461127,2.37392267 C132.607761,2.37392267 165.003068,34.7692469 165.003068,74.7308951 L165.003068,130.18266 L2.61744802,130.18266 L2.61744802,74.7308951 C2.61744802,34.7692527 35.0127665,2.37392267 74.9744147,2.37392267 Z" id="Path" fill="#00BCD4" fill-rule="nonzero"></path>
                                    <path d="M165.003137,132.487341 L2.61731549,132.487341 C1.34450029,132.487341 0.31251382,131.455354 0.31251382,130.182539 L0.31251382,74.7311256 C0.31251382,33.5626199 33.8055633,0.0692823382 74.9743571,0.0692823382 L92.6460954,0.0692823382 C133.814595,0.0692823382 167.307933,33.5626199 167.307933,74.7311256 L167.307933,130.182539 C167.307933,131.455354 166.275952,132.487341 165.003137,132.487341 Z M4.92211716,127.877737 L162.698341,127.877737 L162.698341,74.7311256 C162.698341,36.1043148 131.272912,4.67888568 92.6461012,4.67888568 L74.9743628,4.67888568 C36.3475521,4.67888568 4.92211716,36.1043148 4.92211716,74.7311256 L4.92211716,127.877737 L4.92211716,127.877737 Z" id="Shape" fill="#33475B" fill-rule="nonzero"></path>
                                </g>
                                <g transform="translate(40.910230, 89.311065)">
                                    <g id="Path">
                                        <line x1="2.36671441" y1="40.8715954" x2="2.36671441" y2="2.3436952"></line>
                                        <path d="M2.36662797,43.1762761 C1.09381278,43.1762761 0.0618263048,42.1442896 0.0618263048,40.8714744 L0.0618263048,2.3436952 C0.0618263048,1.07088 1.09381278,0.0388935282 2.36662797,0.0388935282 C3.63944317,0.0388935282 4.67142965,1.07088 4.67142965,2.3436952 L4.67142965,40.8714686 C4.67142965,42.1442896 3.63944317,43.1762761 2.36662797,43.1762761 Z" fill="#33475B" fill-rule="nonzero"></path>
                                    </g>
                                    <g transform="translate(80.668058, 0.000000)" id="Path">
                                        <line x1="2.765278" y1="40.8715954" x2="2.765278" y2="2.3436952"></line>
                                        <path d="M2.76501871,43.1762761 C1.49220351,43.1762761 0.460217035,42.1442896 0.460217035,40.8714744 L0.460217035,2.3436952 C0.460217035,1.07088 1.49220351,0.0388935282 2.76501871,0.0388935282 C4.0378339,0.0388935282 5.06982038,1.07088 5.06982038,2.3436952 L5.06982038,40.8714686 C5.06982038,42.1442896 4.0378339,43.1762761 2.76501871,43.1762761 Z" fill="#33475B" fill-rule="nonzero"></path>
                                    </g>
                                </g>
                            </g>
                        </g>
                    </g>
                </g>
                <g id="Avatar_8___pGqUOiRV" transform="translate(53.010438, 22.471816)" fill-rule="nonzero">
                    <g id="Group">
                        <g transform="translate(133.102296, 97.954071)" id="Path">
                            <path d="M9.5341924,2.40640309 C7.95554731,3.15549244 6.19234522,3.58187499 4.32531758,3.58187499 C3.7260461,3.58187499 3.13859248,3.535802 2.56239207,3.45512818 C3.13859248,3.29377478 3.7260461,3.14395691 4.32531758,3.02874564 C6.00805904,2.67150138 7.74819582,2.45254522 9.5341924,2.40640309 Z" fill="#F4A9AD"></path>
                            <path d="M4.32536944,5.88671123 C3.64957278,5.88671123 2.94901678,5.83663365 2.24283132,5.73759633 C1.16189086,5.5859519 0.335855699,4.69773319 0.262707056,3.60891608 C0.190117328,2.52009896 0.890673319,1.52947215 1.94123073,1.23546589 C2.68624058,1.02698505 3.30576551,0.87759357 3.89097194,0.765332443 C5.71916944,0.376512401 7.61263891,0.150589979 9.47460175,0.102477244 C10.5887371,0.0768766597 11.5233745,0.812315825 11.7760269,1.87130881 C12.0286792,2.9303018 11.5059329,4.02221311 10.5217769,4.48897002 C8.56641194,5.41629545 6.48162088,5.88671123 4.32536944,5.88671123 Z" fill="#33475B"></path>
                        </g>
                        <g transform="translate(122.730689, 74.906054)">
                            <circle id="Oval" fill="#E8CBC0" cx="14.9038732" cy="14.5788847" r="12.0539975"></circle>
                            <path d="M14.9040519,28.9378221 C6.98636092,28.9378221 0.545183549,22.4963624 0.545183549,14.5789538 C0.545183549,6.66154522 6.98636092,0.220085511 14.9040519,0.220085511 C22.8217428,0.220085511 29.2629202,6.66154522 29.2629202,14.5789538 C29.2629202,22.4963624 22.8217428,28.9378221 14.9040519,28.9378221 Z M14.9040519,4.82968885 C9.52805587,4.82968885 5.15478689,9.20324017 5.15478689,14.5789538 C5.15478689,19.9546675 9.52805587,24.3282188 14.9040519,24.3282188 C20.2800478,24.3282188 24.6533168,19.9546675 24.6533168,14.5789538 C24.6533168,9.20324017 20.2800478,4.82968885 14.9040519,4.82968885 Z" id="Shape" fill="#33475B"></path>
                        </g>
                        <g transform="translate(29.962422, 20.743215)">
                            <path d="M107.799435,55.359233 L107.799435,82.1295505 C107.799435,111.181529 84.2444307,134.736608 55.1924518,134.736608 C26.1289373,134.736608 2.57365102,111.181535 2.57365102,82.1295505 L2.57365102,55.359233 C2.57365102,26.3072598 26.1289373,2.74064543 55.1924518,2.74064543 C69.7240707,2.74064543 82.8731429,8.62939641 92.3919853,18.1597744 C101.910822,27.6786225 107.799435,40.8274757 107.799435,55.359233 Z" id="Path" fill="#F0DCD5"></path>
                            <path d="M55.1925036,137.041237 C24.9076575,137.041237 0.268901211,112.408105 0.268901211,82.1294525 L0.268901211,55.3592042 C0.268901211,25.074358 24.9076575,0.435884092 55.1925036,0.435884092 C69.8664844,0.435884092 83.6564643,6.15202848 94.0224481,16.5309537 C104.392367,26.900873 110.104294,40.6905763 110.104294,55.3592099 L110.104294,82.1294583 C110.104294,112.408105 85.4711614,137.041237 55.1925036,137.041237 Z M55.1925036,5.04548167 C27.4493524,5.04548167 4.87850455,27.6160529 4.87850455,55.3591984 L4.87850455,82.1294468 C4.87850455,109.86641 27.4493582,132.431628 55.1925036,132.431628 C82.9294665,132.431628 105.494685,109.866404 105.494685,82.1294468 L105.494685,55.3591984 C105.494685,41.9220261 100.262739,29.2897884 90.7621851,19.7895111 C81.2655725,10.281363 68.6336172,5.04548167 55.1925036,5.04548167 Z" id="Shape" fill="#33475B"></path>
                        </g>
                        <path d="M66.1279405,89.4719975 C66.1279405,93.0351172 63.2150227,95.9480292 59.6519088,95.9480292 C56.0887891,95.9480292 53.2017542,93.0351229 53.2017542,89.4719975 C53.2017542,85.9088836 56.0887891,83.0218429 59.6519088,83.0218429 C60.2500452,83.0218429 60.8481815,83.0999411 61.4204465,83.2820262 C60.6921407,83.8280971 60.2500509,84.7124438 60.2500509,85.7007715 C60.2500509,87.4693092 61.6804742,88.8736998 63.4229792,88.8736998 C64.4373455,88.8736998 65.3216921,88.4316043 65.8937957,87.7032927 C66.0498308,88.2495307 66.1279405,88.8476671 66.1279405,89.4719975 Z" id="Path" fill="#33475B"></path>
                        <path d="M117.098226,89.4719975 C117.098226,93.0351172 114.185308,95.9480292 110.622194,95.9480292 C107.059081,95.9480292 104.172051,93.0351229 104.172051,89.4719975 C104.172051,85.9088836 107.059086,83.0218429 110.622194,83.0218429 C111.220342,83.0218429 111.818467,83.0999411 112.390732,83.2820262 C111.662426,83.8280971 111.220342,84.7124438 111.220342,85.7007715 C111.220342,87.4693092 112.650748,88.8736998 114.393259,88.8736998 C115.407625,88.8736998 116.291972,88.4316043 116.864076,87.7032927 C117.020116,88.2495307 117.098226,88.8476671 117.098226,89.4719975 Z" id="Path" fill="#33475B"></path>
                        <g transform="translate(74.329854, 87.006263)" id="Path">
                            <path d="M7.16587616,2.47867591 L3.01149996,16.0629868 C2.18141987,18.7772711 4.21170238,21.5212757 7.05008292,21.5212757 L12.7655128,21.5212757" fill="#F0DCD5"></path>
                            <path d="M12.765242,23.826014 L7.04993887,23.826014 C4.95895942,23.826014 3.04607775,22.8618348 1.802522,21.1807816 C0.558683925,19.4997284 0.196023382,17.3887779 0.807395073,15.3889533 L4.96177704,1.80463666 C5.33427908,0.58724618 6.62229445,-0.0969918163 7.83996727,0.274668977 C9.05707541,0.646894447 9.74216042,1.93546296 9.36993495,3.15285921 L5.21555299,16.7371759 C5.03577269,17.3246295 5.14240434,17.9450014 5.50787098,18.4390472 C5.87333762,18.9330929 6.43547299,19.2164107 7.04993887,19.2164107 L12.765242,19.2164107 C14.0380572,19.2164107 15.0700437,20.2483972 15.0700437,21.5212124 C15.0700437,22.7940276 14.038063,23.826014 12.765242,23.826014 Z" fill="#33475B"></path>
                        </g>
                        <g transform="translate(47.248434, 100.258873)" fill="#E0BAAB" id="Oval">
                            <circle cx="2.99766539" cy="2.55209537" r="2.34766522"></circle>
                            <circle cx="2.59422138" cy="9.71567825" r="2.34766522"></circle>
                            <circle cx="9.03320919" cy="6.60980818" r="2.34766522"></circle>
                        </g>
                        <circle id="Oval" fill="#D19781" cx="121.050373" cy="112.049034" r="2.34766522"></circle>
                        <g transform="translate(36.300626, 61.653445)" id="Path">
                            <path d="M3.36901503,2.75218096 C3.31133737,2.76371649 3.25365971,2.76371649 3.19598781,2.76371649 C2.89663441,2.77518288 2.6085342,2.77518288 2.32043399,2.77518288 C2.67746505,2.77518288 3.02324292,2.76371649 3.36901503,2.75218096 Z" fill="#E0BAAB"></path>
                            <path d="M2.32048585,5.08008827 C1.04767065,5.08008827 0.0156841754,4.0481018 0.0156841754,2.7752866 C0.0156841754,1.5024714 1.04767065,0.470484927 2.32048585,0.470484927 C2.65135165,0.470484927 2.97180551,0.459514071 3.29225937,0.448819791 C4.47954914,0.401271733 5.52053587,1.29511415 5.65867415,2.48690405 C5.79653587,3.67869395 4.99750722,4.77707599 3.82119407,5.012281 C3.57332418,5.06179967 3.36371975,5.06770572 3.24105244,5.06855273 C2.92707507,5.07952359 2.62378046,5.08008827 2.32048585,5.08008827 Z" fill="#33475B"></path>
                        </g>
                        <g transform="translate(17.862213, 55.315240)" id="Path">
                            <path d="M2.38937061,2.62536501 C5.5815382,5.18372944 9.31530539,7.08521962 13.3487083,8.15694664 C9.28069879,7.10821578 5.55846714,5.2068005 2.38937061,2.62536501 Z" fill="#F4A9AD"></path>
                            <path d="M13.3504484,10.4622727 C13.1599739,10.4622727 12.9664109,10.4383603 12.7734068,10.3888417 C8.40266731,9.26204142 4.41934196,7.25125177 0.933732777,4.41245061 C-0.0504232985,3.6106101 -0.200944134,2.16419724 0.59667858,1.17695273 C1.39401896,0.189702463 2.84014372,0.0329932359 3.83077052,0.826957077 C6.78154472,3.19168359 10.2775774,4.95602079 13.9407254,5.92948259 C15.1676808,6.25528359 15.9000316,7.51234547 15.5784541,8.74043023 C15.3075016,9.77606405 14.3734289,10.4622727 13.3504484,10.4622727 Z" fill="#33475B"></path>
                        </g>
                        <g transform="translate(29.386221, 61.077244)" id="Path">
                            <path d="M2.76974931,2.62536501 C3.61097887,2.80978948 4.45220843,2.97114288 5.31650906,3.08635415 C4.94766013,3.04028117 4.57909353,2.98260927 4.22178589,2.92500075 C3.73786397,2.84432117 3.24212994,2.74064543 2.76974931,2.62536501 Z" fill="#F4A9AD"></path>
                            <path d="M5.31937278,5.39154188 C5.22399432,5.39154188 5.12749228,5.38563582 5.03043132,5.37353562 C4.63429353,5.32373461 4.23843808,5.26240384 3.85467708,5.20022605 C3.31505386,5.11047708 2.77036008,4.99793937 2.22314255,4.86429545 C0.996746054,4.56494205 0.239641754,3.33460434 0.524647766,2.10483708 C0.809371441,0.875346388 2.02845019,0.104171273 3.26385269,0.373982881 C4.16219524,0.571210522 4.91142864,0.707095866 5.62154956,0.801915407 C6.87945846,0.969877829 7.76513612,2.12312568 7.6022385,3.38187582 C7.45227081,4.54355925 6.46108509,5.39154188 5.31937278,5.39154188 Z" fill="#33475B"></path>
                        </g>
                        <g transform="translate(40.334029, 61.077244)" id="Path">
                            <path d="M3.89907908,2.79824818 L3.89907908,2.80978372 C3.55330121,2.86739223 3.21905887,2.92499499 2.87356334,2.98260351 C3.21905887,2.92499499 3.55330121,2.86739223 3.89907908,2.79824818 Z" fill="#F4A9AD"></path>
                            <path d="M2.87080334,5.28772209 C1.76482697,5.28772209 0.788547557,4.48925812 0.600325929,3.36217553 C0.578660793,3.23331983 0.56853119,3.10530539 0.56853119,2.97897921 C0.568813528,1.87327942 1.36727749,0.8972881 2.49407775,0.70934881 L2.73603582,0.66855382 C2.97349378,0.628041169 3.20813987,0.585840251 3.44840969,0.538009854 C4.12505336,0.404089353 4.82729762,0.578522505 5.36101478,1.0163023 C5.8944496,1.45408209 6.20393261,2.10821361 6.20393261,2.79835766 L6.20393261,2.80989319 C6.20393261,3.93725236 5.38858597,4.89890205 4.27642121,5.0834648 L3.49652242,5.21485578 C3.4157737,5.22864426 3.33474839,5.24242697 3.25315841,5.25593311 C3.12457929,5.27731015 2.99684718,5.28772209 2.87080334,5.28772209 Z" fill="#33475B"></path>
                        </g>
                        <g transform="translate(114.663883, 59.348643)" id="Path">
                            <path d="M22.7637309,17.5720384 L22.7637309,18.0790948 C17.7740255,18.0330218 13.2220998,16.1315374 9.64954196,13.0661108 C6.422762,10.2657825 4.00289311,6.52047983 2.86174547,2.31426288 C5.293438,11.0609449 13.2794951,17.4913588 22.7637309,17.5720384 Z" fill="#F4A9AD"></path>
                            <path d="M22.7637828,20.3840059 C22.7564651,20.3840059 22.7497177,20.3840059 22.7424,20.3840059 C17.4598119,20.3350519 12.27682,18.3574572 8.14888559,14.8152882 C4.48010806,11.6321208 1.88608259,7.52078104 0.637462046,2.91764843 C0.304907975,1.69181662 1.02684676,0.42800167 2.25127265,0.0915063883 C3.47795148,-0.244141879 4.74289002,0.473296785 5.08219716,1.69687566 C7.28402605,9.61710188 14.5630565,15.1973552 22.7834773,15.2671273 C24.0484159,15.2778158 25.0685845,16.3067081 25.0685845,17.5719289 L25.0685845,18.0791985 C25.0685845,18.6942233 24.8226852,19.2836475 24.3860347,19.7163625 C23.9544491,20.144295 23.3709309,20.3840059 22.7637828,20.3840059 Z" fill="#33475B"></path>
                        </g>
                        <g>
                            <path d="M173.106197,133.031078 C171.746445,147.078844 160.326112,158.383896 146.26688,159.628507 C133.936105,160.711763 122.965226,154.258278 117.525928,144.336125 C117.491322,144.278516 117.456859,144.209378 117.422252,144.1517 C115.152057,139.957013 113.861374,135.15145 113.861374,130.046325 C113.861374,120.746445 118.1252,112.460677 124.809182,107.009844 C127.955213,104.440013 131.642838,102.503986 135.664706,101.409193 C136.240906,101.24784 136.828642,101.098022 137.427914,100.982811 C137.543269,100.95974 137.646801,100.936669 137.762156,100.913667 C138.499572,100.763849 139.237264,100.648569 139.997744,100.556423 C142.717531,100.22218 145.298904,99.0121766 146.981363,96.8341218 C148.548611,94.8059539 149.48198,92.2475895 149.48198,89.4818678 C149.48198,86.1629476 148.133764,83.1551296 145.967244,80.9771439 C143.846867,78.8566975 140.965865,77.5199414 137.762156,77.4392676 C137.646801,77.427732 137.543269,77.427732 137.427914,77.427732 C132.43807,77.381659 127.886,75.4801746 124.313586,72.4147481 C121.08695,69.6144198 118.666793,65.8691171 117.525928,61.6629001 C117.445324,61.3863354 117.364713,61.0982352 117.307041,60.8216014 C117.237828,60.5220348 117.180156,60.2223991 117.122617,59.9227633 C117.065083,59.6000565 117.007405,59.2774189 116.961263,58.9432514 C116.903586,58.5629419 116.869123,58.1826266 116.834516,57.7908506 C111.648713,59.9342989 105.967313,61.1097016 99.9979576,61.1097016 C86.3420365,61.1097016 74.138152,54.9328504 66.0136685,45.2065874 C64.2389251,50.0927554 61.1967137,54.3681856 57.2899135,57.6294972 C53.6022884,60.7294554 49.1309674,62.9189767 44.2332639,63.8754924 C43.8876301,63.9446365 43.5533877,64.0022392 43.2076099,64.0598478 C42.6314094,64.1520571 42.055209,64.2327367 41.4674731,64.2788039 C41.2139795,64.3134105 40.9604858,64.3364816 40.6954567,64.347948 C40.3612144,64.3825546 40.0154365,64.3940901 39.6698027,64.4056256 C39.3240248,64.4171612 38.978391,64.4286276 38.6210776,64.4286276 L38.5749354,64.4286276 C37.8375199,64.4286276 37.1113633,64.3940901 36.3970189,64.3364873 C36.2816635,64.3364873 36.1779878,64.3249518 36.0627765,64.3134163 C35.8554251,64.3018808 35.659321,64.2788097 35.4635051,64.2558078 C35.2100114,64.2327367 34.9565178,64.1981992 34.7030242,64.1635984 C34.437851,64.129061 34.1843574,64.0944544 33.9307255,64.0368516 C33.0204268,67.9089011 32.5363666,71.9538396 32.5363666,76.1024538 L32.5363666,102.872771 C32.5363666,122.705544 43.5072456,139.968554 59.721606,148.934198 C54.9275782,154.765346 48.0822423,158.937032 40.0500431,160.262316 C22.4297882,163.16632 5.77765378,151.239 2.87358063,133.618814 C0.949163424,122.002596 5.48955357,110.801289 13.8559952,103.69093 C11.1938801,99.8649532 9.32714054,95.4051678 8.508838,90.5074642 C6.44613846,77.9463354 11.8969714,65.8921997 21.5770231,58.9432572 C21.1277078,58.6205504 20.6781159,58.286383 20.2518774,57.9406051 C20.2403419,57.9406051 20.2403419,57.9406051 20.2403419,57.9406051 C19.7447461,57.5372936 19.2722215,57.1339821 18.8113764,56.7075996 C17.6243689,55.6243428 16.5296458,54.4488709 15.5384543,53.181253 C12.4616362,49.2284605 10.3757216,44.4575729 9.66123883,39.2602337 C9.6497033,39.2371626 9.63831182,39.2140915 9.6497033,39.1910896 C9.60370522,38.8338453 9.55756309,38.4766068 9.52295649,38.1078328 C9.51142096,38.027159 9.49988543,37.9464794 9.49988543,37.8658056 C9.46527883,37.439423 9.43067223,37.0130405 9.41928075,36.586658 C9.39620969,36.1372043 9.38467415,35.6877507 9.38467415,35.2383663 C9.38467415,33.7287212 9.49988543,32.2420838 9.71877244,30.7900472 C9.8687286,29.8336063 10.0645503,28.8770906 10.3065084,27.9436517 C11.3092296,24.0024581 13.1299769,20.3954377 15.5615253,17.283944 C16.010979,16.7077435 16.4835036,16.1546142 16.9674198,15.6129512 C22.3031797,9.73573578 30.0126779,6.04803582 38.5749412,6.04803582 C39.070537,6.04803582 39.5661269,6.05957136 40.0615844,6.09410881 C40.3727557,6.10564434 40.6839269,6.11717987 40.9950982,6.15171733 C42.2741076,6.25546221 43.5187869,6.43981754 44.7404009,6.70491582 C45.0515722,6.77405987 45.3627435,6.84319816 45.6853062,6.92387198 C46.0540111,7.01601219 46.4343956,7.11976284 46.814636,7.23497411 C47.1833409,7.338719 47.5521898,7.45393027 47.9210387,7.58075198 C48.255137,7.69596326 48.5778438,7.81117453 48.9119479,7.93799624 C49.3730753,8.0992805 49.8223906,8.2952405 50.2718443,8.49112559 C50.5370175,8.60633687 50.7905111,8.72161729 51.0555402,8.84836985 C51.2974983,8.96358113 51.5394564,9.07886154 51.7814202,9.20561411 C52.1156625,9.36696752 52.4383694,9.53978731 52.7610762,9.72420601 C53.0376408,9.87402388 53.325741,10.0353773 53.5907702,10.2081971 C53.69459,10.2658056 53.7981217,10.3349439 53.9019415,10.3926215 C57.7279929,5.66773779 63.5706018,2.63691783 70.1278374,2.63691783 C78.1946433,2.63691783 85.1896529,7.21198372 88.6353199,13.9189681 C91.1360816,13.5501941 93.6828413,13.3542341 96.2872787,13.3542341 C125.696571,13.3542341 149.401393,37.7275405 148.329597,67.378791 C157.399124,70.6170373 163.898544,79.2946444 163.898544,89.4819024 C163.898544,95.1401617 161.893378,100.337501 158.551525,104.3939 C168.15096,110.006132 174.293205,120.873267 173.106197,133.031078 Z" id="Path" fill="#F5AAC6"></path>
                            <path d="M34.7691778,163.001204 C18.1195786,163.001204 3.39243182,150.940384 0.599484676,133.993678 C-1.26529002,122.737235 2.64375733,111.163143 10.8492661,103.301159 C8.53067599,99.514779 6.98073144,95.3477379 6.23544501,90.8872494 C4.24659708,78.7757875 8.66797879,66.8016225 17.8492023,58.9410446 C17.6398803,58.7581701 17.4395584,58.5783898 17.2465543,58.3997331 C15.968392,57.2332672 14.7791316,55.9517226 13.7229562,54.6009763 C10.3563497,50.2758143 8.17336835,45.1420587 7.40106965,39.7401798 C7.36955724,39.6034474 7.35042739,39.465021 7.34339198,39.3266004 C7.30259699,39.0061466 7.26433152,38.6958165 7.23366614,38.3787392 C7.21987766,38.2802666 7.20355967,38.1460637 7.19737127,37.9882309 C7.16135875,37.5408862 7.12731683,37.0949532 7.11521662,36.648732 C7.09242789,36.216017 7.07976877,35.7270361 7.07976877,35.2383375 C7.07976877,33.6430978 7.20103015,32.0309697 7.43989403,30.4464185 C7.60589161,29.386302 7.81914914,28.3543155 8.07546038,27.365377 C9.13726522,23.1921417 11.0456525,19.3193892 13.7454626,15.864722 C14.1778953,15.3101867 14.6699704,14.7249803 15.2487061,14.0773195 C21.2158089,7.50475115 29.7133591,3.74313044 38.57497,3.74313044 C39.1691767,3.74313044 39.6961408,3.7591661 40.1837158,3.79208443 C40.4960107,3.8039023 40.8457298,3.81768501 41.2137317,3.85707407 C42.5717957,3.96877052 43.9225478,4.1690866 45.2291284,4.45240434 C45.570965,4.52837061 45.9012661,4.60208392 46.2433851,4.68760935 C46.6488055,4.78889386 47.0657672,4.90284326 47.4824408,5.0288871 C47.8496014,5.13185987 48.2600866,5.26015666 48.6708541,5.40138914 C49.0202909,5.52208585 49.3559334,5.64165896 49.7025582,5.7727676 C50.230087,5.95873628 50.7145678,6.17002898 51.183013,6.37429203 C51.4806782,6.50314772 51.7594958,6.63003858 52.0509725,6.76958856 C52.3027779,6.88944401 52.559648,7.01239365 52.8168005,7.14603182 C53.015993,7.2428162 53.2163148,7.3452243 53.4214191,7.45523248 C57.7859702,2.90583633 63.7716438,0.332070063 70.1278547,0.332070063 C78.2830036,0.332070063 85.709743,4.54441203 89.8821312,11.4287106 C92.0158705,11.1769052 94.1636806,11.0494554 96.287296,11.0494554 C111.184664,11.0494554 125.085499,16.9557921 135.429535,27.6802129 C145.394317,38.0115901 150.770307,51.5022165 150.667899,65.8247957 C160.026091,69.874799 166.203363,79.1784075 166.203363,89.4819312 C166.203363,94.5805155 164.679019,99.571068 161.870042,103.784534 C171.273811,110.357384 176.532769,121.654341 175.400063,133.25488 C173.921861,148.513503 161.755816,160.570946 146.470186,161.924227 C133.77183,163.038927 121.62492,156.581997 115.519109,145.470444 C115.496037,145.43049 115.472966,145.38829 115.449895,145.346089 C115.431889,145.315706 115.41163,145.279693 115.395312,145.24874 C112.884,140.608188 111.556601,135.351483 111.556601,130.046389 C111.556601,120.384343 115.856157,111.33704 123.352392,105.223629 C126.826477,102.386233 130.765343,100.354343 135.059275,99.1853421 C135.788526,98.9810848 136.408056,98.8316876 136.993263,98.7194322 L137.310058,98.6535956 C138.073638,98.4985746 138.863661,98.3722484 139.71952,98.2684286 C142.027699,97.9848286 143.959998,96.9747896 145.156847,95.4251273 C146.478622,93.7153736 147.176925,91.6604124 147.176925,89.481937 C147.176925,86.8895997 146.166886,84.4463717 144.333059,82.6024209 C142.553816,80.822895 140.197807,79.806103 137.703942,79.7433663 C137.646547,79.7419603 137.589716,79.7385838 137.532321,79.7326777 C137.505309,79.7323954 137.467614,79.7326777 137.42766,79.7326777 C132.123689,79.6837238 126.940697,77.706129 122.812763,74.16396 C119.143985,70.9799456 116.54996,66.8686116 115.301339,62.2663203 C115.220873,61.9908792 115.125218,61.6496072 115.05094,61.2942644 C115.025616,61.1862268 115.000862,61.0714362 114.976662,60.9527101 C110.180243,62.5873388 105.154243,63.4145033 99.9977041,63.4145033 C87.3854433,63.4145033 75.4453203,58.3508022 66.7049649,49.4064719 C64.7768889,53.2280175 62.0762317,56.6365425 58.7670148,59.3988243 C54.7279824,62.7944137 49.8530733,65.1262219 44.6748639,66.1376668 C44.3144563,66.2096919 43.9568663,66.2715873 43.5868938,66.3332062 C43.075683,66.4150785 42.4190162,66.5132688 41.7122718,66.5712288 C41.4289541,66.6083649 41.1501365,66.6334066 40.8634479,66.6474716 C40.4746279,66.6848901 40.1049319,66.6972727 39.7464949,66.7090848 C38.6174475,66.7476268 37.4830529,66.7344088 36.2850747,66.6395892 C36.1477776,66.635648 36.016669,66.6249595 35.8782484,66.611171 C35.8318239,66.6083592 35.7859641,66.6049826 35.7401043,66.6013238 C35.1430858,69.7206251 34.8411971,72.9077336 34.8411971,76.1024423 L34.8411971,102.872691 C34.8411971,121.173807 44.8020371,138.05074 60.8368938,146.917698 C61.4361653,147.248564 61.8570624,147.829265 61.9853534,148.501685 C62.1139268,149.17467 61.9366818,149.869037 61.5019962,150.397972 C56.1898662,156.859408 48.7048903,161.170217 40.4253858,162.536446 C38.5254571,162.849842 36.6347995,163.001204 34.7691778,163.001204 Z M21.5658045,56.0473776 C21.6130702,56.0800136 21.6592124,56.1143379 21.7039486,56.1506327 C22.0421263,56.4249445 22.4289815,56.7175506 22.9216214,57.0712051 C23.5245517,57.5041967 23.8818594,58.2013819 23.8818594,58.9435741 C23.8818594,59.6857663 23.5242636,60.3826692 22.9210567,60.8156608 C13.5670883,67.530591 8.91612526,78.7645285 10.7831529,90.1340748 C11.5278804,94.5903455 13.1985217,98.7106855 15.7478167,102.374392 C16.4258663,103.348701 16.2531157,104.678353 15.3485847,105.446993 C7.34311541,112.250831 3.43434463,122.90125 5.14747491,133.242474 C7.8405377,149.581473 23.3323889,160.684019 39.6753227,157.988145 C45.9502259,156.952782 51.6984416,153.96656 56.1201056,149.490312 C40.0799018,139.492336 30.2315995,121.887276 30.2315995,102.872662 L30.2315995,76.1024134 C30.2315995,71.854059 30.7214275,67.6169634 31.6870126,63.5092825 C31.9768011,62.2761329 33.2076977,61.5072108 34.4419709,61.7894049 C34.62541,61.8310469 34.8094139,61.853271 35.0012886,61.8783127 C35.2339641,61.9101074 35.4531334,61.9404904 35.6723028,61.9604673 C35.6928386,61.9621556 35.7130978,61.9644085 35.733357,61.9666557 C35.8827542,61.9843796 36.0324281,62.0032329 36.1908313,62.0122332 C36.2248732,62.0139214 36.2589152,62.0167333 36.2926805,62.0201098 L36.418442,62.03221 C36.4803375,62.03221 36.5208501,62.0341806 36.582469,62.0392454 C37.7095458,62.130118 38.7333733,62.130965 39.5920444,62.1022702 C39.8843624,62.092423 40.1761215,62.0845463 40.4580333,62.0555692 C40.5036108,62.0507867 40.5494706,62.0474102 40.5953304,62.0454396 C40.7877698,62.0369982 40.9717736,62.0203979 41.1557775,61.9950797 C41.1993843,61.9891736 41.2432792,61.9843911 41.2871684,61.9810146 C41.7297307,61.946408 42.2097056,61.8856362 42.8430248,61.7840693 C43.1499725,61.7328624 43.4608672,61.6794083 43.7821623,61.6152599 C48.2038264,60.7518005 52.358773,58.7640819 55.8066872,55.8650736 C59.4549232,52.8200445 62.2329525,48.8640138 63.8473278,44.419561 C64.1289572,43.6444504 64.8030656,43.0789385 65.6153181,42.9362944 C66.4253176,42.7936502 67.2541704,43.0958212 67.7825404,43.7288523 C75.7854802,53.3098725 87.5272519,58.8048769 99.9977156,58.8048769 C105.538015,58.8048769 110.906699,57.7470075 115.954076,55.6608163 C116.632126,55.3805927 117.403019,55.4396763 118.030985,55.820902 C118.658392,56.2018454 119.066348,56.8585122 119.130491,57.5897336 C119.160874,57.9315703 119.18901,58.263842 119.239652,58.5961137 C119.286353,58.930915 119.338689,59.2229564 119.39102,59.5152744 C119.438286,59.7603267 119.490057,60.03155 119.552511,60.3027675 C119.608783,60.5692026 119.674614,60.7985015 119.738763,61.0188003 C120.743737,64.722461 122.901112,68.1371802 125.824315,70.6740985 C129.167291,73.5424414 133.190565,75.0836623 137.449043,75.1230514 C137.450731,75.1230514 137.452984,75.1230514 137.455231,75.1230514 C137.59647,75.1230514 137.738831,75.1255809 137.891882,75.1373987 C141.546588,75.2474069 144.990291,76.7407974 147.596693,79.3472054 C150.300444,82.0653099 151.786523,85.6629036 151.786523,89.4819197 C151.786523,92.6442689 150.72753,95.7556935 148.804801,98.243652 C146.849436,100.774658 143.821566,102.408446 140.278832,102.843973 C139.541699,102.933439 138.869279,103.040636 138.21993,103.172303 L137.879499,103.242922 C137.405707,103.334077 136.904908,103.455621 136.285948,103.628648 C132.604229,104.631093 129.238746,106.367853 126.267148,108.794757 C119.847353,114.03008 116.166199,121.775585 116.166199,130.046366 C116.166199,134.576067 117.295529,139.061874 119.432086,143.022693 C119.455157,143.062647 119.477663,143.104283 119.500169,143.145925 C119.515364,143.17012 119.532805,143.202756 119.54687,143.22808 C124.768687,152.752828 135.177995,158.288633 146.065596,157.332613 C158.929944,156.193718 169.568834,145.65049 170.811831,132.808647 C170.811831,132.808083 170.811831,132.807524 170.811831,132.806959 C171.870259,121.968312 166.726662,111.843451 157.388159,106.383612 C156.804641,106.042617 156.400626,105.46304 156.282459,104.79822 C156.163733,104.133112 156.342666,103.449721 156.772569,102.92838 C159.881464,99.1543829 161.593748,94.3790643 161.593748,89.4819197 C161.593748,80.5578486 155.951599,72.5475911 147.554492,69.5492688 C146.608037,69.2113676 145.989635,68.2995189 146.026213,67.2953917 C146.520258,53.6280734 141.578666,40.6956411 132.111871,30.8802571 C122.644518,21.0645908 109.921967,15.6590588 96.2872845,15.6590588 C93.8620685,15.6590588 91.4008342,15.8408097 88.9716769,16.1989643 C87.992021,16.3427321 87.0360008,15.8495276 86.5852853,14.9720089 C83.406618,8.78516643 77.1004848,4.9416734 70.1278432,4.9416734 C64.5059479,4.9416734 59.2447425,7.45720309 55.6930086,11.8428546 C54.9887937,12.7133436 53.7598677,12.9508016 52.7827471,12.4072372 C52.7036866,12.363348 52.6243496,12.3157999 52.5452891,12.2674048 L52.4710111,12.2226686 C52.4276808,12.1981916 52.3739444,12.1661203 52.3323081,12.1391081 C52.1224214,12.0023757 51.8649866,11.8600081 51.6641058,11.7514116 C51.3188926,11.5544663 51.0448575,11.4092926 50.7787047,11.2807192 C50.7564807,11.2700307 50.7345332,11.2590541 50.7128681,11.2475186 C50.4973576,11.1346985 50.2812824,11.0322847 50.0657662,10.9298766 C49.8215552,10.8131153 49.5933856,10.7093013 49.3545159,10.6057638 C48.9232068,10.4175422 48.5279161,10.2453562 48.1511905,10.1136887 C48.1320606,10.1069356 48.112925,10.0999002 48.0940775,10.0928706 C47.7817826,9.97442104 47.4804586,9.86694814 47.1684403,9.7591929 C46.8443276,9.64777879 46.5171207,9.54564727 46.1901961,9.45365111 C45.8030585,9.33688985 45.459257,9.24320543 45.1258559,9.15964484 C44.8242496,9.08452559 44.5322139,9.01981253 44.2398902,8.95482288 C43.1336315,8.71483541 41.9750423,8.54377303 40.8085706,8.44895925 C40.7857819,8.44727098 40.7629932,8.44501804 40.7404868,8.44248852 C40.4855872,8.41407031 40.2309643,8.40675833 39.9763471,8.3971934 C39.951023,8.39635215 39.9259871,8.39494046 39.9009455,8.39325219 C39.5104372,8.36596334 39.0765986,8.35273954 38.5749527,8.35273954 C31.0103516,8.35273954 23.7566395,11.5637604 18.6738143,17.1623081 C18.1693566,17.7269729 17.7540889,18.2201775 17.3790516,18.7009994 C15.0734087,21.651497 13.4460919,24.9517022 12.5401493,28.5118833 C12.3190094,29.3654954 12.1366938,30.2489258 11.9957436,31.1469861 C11.7931746,32.4915497 11.6893548,33.8724025 11.6893548,35.238349 C11.6893548,35.6482752 11.6997668,36.0584781 11.7208672,36.4684043 C11.7335263,36.908996 11.76588,37.2933159 11.7971101,37.6782005 C11.799363,37.7077423 11.8013278,37.7378488 11.8024572,37.7676671 C11.8080867,37.8087445 11.8151163,37.8641692 11.8176516,37.8925874 C11.8485993,38.2212003 11.8896767,38.5399716 11.9304716,38.8578902 C11.9358188,38.887432 11.9403189,38.9166914 11.9445367,38.9462332 C12.5851678,43.6064788 14.4569722,48.0393961 17.3573865,51.7655689 C18.2523525,52.9100931 19.2654857,54.0014397 20.3652737,55.0055727 C20.7313338,55.3440098 21.122401,55.6833111 21.5658045,56.0473776 Z M11.9448363,39.3659837 C11.9226123,39.6515544 11.8494579,39.9343075 11.7265082,40.190054 C11.8522755,39.928678 11.9251418,39.6481721 11.9448363,39.3659837 Z" id="Shape" fill="#33475B"></path>
                        </g>
                        <g transform="translate(6.914405, 36.876827)" id="Path">
                            <path d="M2.74667825,2.38340693 C3.46102271,7.58074622 5.54693161,12.3516338 8.62375541,16.3044263 C5.69689353,12.593661 3.657121,8.15694664 2.86175123,3.24770756 C2.81589144,2.95960735 2.76974931,2.67150714 2.74667825,2.38340693 Z" fill="#F4A9AD"></path>
                            <path d="M8.62521319,18.6092625 C7.94378706,18.6092625 7.26883741,18.3085032 6.81417495,17.7317381 C3.5699534,13.6187158 1.41651382,8.73760685 0.586537453,3.61623382 C0.534771608,3.29127983 0.479341127,2.94156075 0.449240418,2.56737044 C0.349644175,1.3238147 1.25755165,0.22683858 2.49773662,0.0920710647 C3.7415747,-0.0415670981 4.86021595,0.833986722 5.03014898,2.0696658 C5.67049779,6.72962906 7.54230213,11.1625463 10.4427164,14.8887192 C11.2226152,15.8908815 11.0450821,17.335318 10.045455,18.1185933 C9.62371666,18.4491768 9.12264125,18.6092625 8.62521319,18.6092625 Z" fill="#33475B"></path>
                        </g>
                        <g transform="translate(36.300626, 61.653445)" id="Path">
                            <path d="M3.36901503,2.75218096 C3.31133737,2.76371649 3.25365971,2.76371649 3.19598781,2.76371649 C2.89663441,2.77518288 2.6085342,2.77518288 2.32043399,2.77518288 C2.67746505,2.77518288 3.02324292,2.76371649 3.36901503,2.75218096 Z" fill="#F4A9AD"></path>
                            <path d="M2.32048585,5.08008827 C1.04767065,5.08008827 0.0156841754,4.0481018 0.0156841754,2.7752866 C0.0156841754,1.5024714 1.04767065,0.470484927 2.32048585,0.470484927 C2.65135165,0.470484927 2.97180551,0.459514071 3.29225937,0.448819791 C4.47954914,0.401271733 5.52053587,1.29511415 5.65867415,2.48690405 C5.79653587,3.67869395 4.99750722,4.77707599 3.82119407,5.012281 C3.57332418,5.06179967 3.36371975,5.06770572 3.24105244,5.06855273 C2.92707507,5.07952359 2.62378046,5.08008827 2.32048585,5.08008827 Z" fill="#33475B"></path>
                        </g>
                        <path d="M38.6211122,66.7287505 C37.348297,66.7287505 36.3163105,65.696764 36.3163105,64.4239488 C36.3163105,63.1511336 37.348297,62.1191471 38.6211122,62.1191471 C53.4447668,62.1191471 65.5047452,50.0591687 65.5047452,35.2355141 C65.5047452,33.9626989 66.5367317,32.9307124 67.8095469,32.9307124 C69.0823621,32.9307124 70.1143486,33.9626989 70.1143486,35.2355141 C70.1143486,52.6008636 55.9864675,66.7287505 38.6211122,66.7287505 Z" id="Path" fill="#33475B"></path>
                        <g transform="translate(17.862213, 74.906054)">
                            <path d="M14.673854,2.52168351 L14.673854,26.6298917 C8.01322497,26.6298917 2.61979315,21.2366615 2.61979315,14.5758251 C2.61979315,7.92644919 8.01322497,2.52168351 14.673854,2.52168351 Z" id="Path" fill="#E8CBC0"></path>
                            <path d="M14.6739059,28.9347279 C6.75649729,28.9347279 0.31504334,22.4932682 0.31504334,14.5758596 C0.31504334,6.65845102 6.75649152,0.216991315 14.6739059,0.216991315 C15.9467211,0.216991315 16.9787076,1.24897779 16.9787076,2.52179299 L16.9787076,26.6299263 C16.9787076,27.9027472 15.9467268,28.9347279 14.6739059,28.9347279 Z M12.3691042,5.1017534 C8.10190221,6.13992827 4.92464092,9.99382747 4.92464092,14.5758596 C4.92464092,19.1578918 8.10190221,23.011791 12.3691042,24.0499658 L12.3691042,5.1017534 Z" id="Shape" fill="#33475B"></path>
                        </g>
                        <g transform="translate(51.281837, 8.066806)" id="Path">
                            <path d="M2.62008701,2.32579841 C5.78319106,4.59351582 9.61208317,6.32282004 13.6459932,7.36707958 C16.6498412,8.14469086 19.7673678,8.54243624 22.8083231,8.49978589" fill="#F4A9AD"></path>
                            <path d="M22.3577977,10.8077682 C19.2927918,10.8077682 16.1703963,10.4015008 13.0682543,9.5985367 C8.70595616,8.46892459 4.62866405,6.60190271 1.27724618,4.19890497 C0.242730188,3.45698931 0.00527223382,2.01733528 0.746905553,0.98281929 C1.48882121,-0.0519790397 2.92903992,-0.289154656 3.96299123,0.452478664 C6.8577818,2.52798138 10.4058569,4.14742146 14.223467,5.13607766 C17.0906806,5.87799332 19.9674649,6.23474205 22.7761596,6.19535299 C22.7868481,6.19507065 22.7978247,6.19507065 22.8087956,6.19507065 C24.0667045,6.19507065 25.0953086,7.20595666 25.1129841,8.467801 C25.1304799,9.74033962 24.1131289,10.7866677 22.840308,10.8043974 C22.6799456,10.8066388 22.5187305,10.8077682 22.3577977,10.8077682 Z" fill="#33475B"></path>
                        </g>
                        <path d="M19.944123,37.5403157 C18.6713078,37.5403157 17.6393213,36.5083293 17.6393213,35.2355141 C17.6393213,23.6662106 27.0518087,14.2537117 38.6211122,14.2537117 C39.8939273,14.2537117 40.9259138,15.2856982 40.9259138,16.5585134 C40.9259138,17.8313286 39.8939273,18.8633151 38.6211122,18.8633151 C29.5935036,18.8633151 22.2489189,26.2078998 22.2489189,35.2355083 C22.2489189,36.5083293 21.2169324,37.5403157 19.944123,37.5403157 Z" id="Path" fill="#FFFFFF"></path>
                        <path d="M123.569596,132.360732 C122.296781,132.360732 121.264795,131.328746 121.264795,130.055931 C121.264795,117.764124 131.265024,107.763895 143.557113,107.763895 C144.829928,107.763895 145.861915,108.795881 145.861915,110.068696 C145.861915,111.341511 144.829928,112.373498 143.557113,112.373498 C133.806719,112.373498 125.874398,120.305819 125.874398,130.055931 C125.874398,131.328752 124.842417,132.360732 123.569596,132.360732 Z" id="Path" fill="#FFFFFF"></path>
                        <g transform="translate(9.795407, 114.663883)" id="Path">
                            <path d="M3.35530722,18.1577692 C2.08300484,12.463555 3.3779058,6.79404251 6.47244777,2.35849779" fill="#F4A9AD"></path>
                            <path d="M3.35303699,20.4630606 C2.29742054,20.4630606 1.34561812,19.7332452 1.10591299,18.6601814 C-0.253280418,12.5768763 1.01362873,6.15455223 4.58224534,1.03992651 C5.31037253,-0.00387206681 6.74749704,-0.260183299 7.79101904,0.468508559 C8.83509996,1.19663574 9.09084651,2.63347791 8.36243699,3.67728225 C5.53151248,7.73487983 4.52653829,12.8295287 5.60466689,17.6552072 C5.88207858,18.8976393 5.10020919,20.129383 3.85777704,20.4067889 C3.68868526,20.4450544 3.51959349,20.4630606 3.35303699,20.4630606 Z" fill="#FFFFFF"></path>
                        </g>
                    </g>
                    <path d="M51.0206743,81.8300934 C50.4832983,81.8300934 49.9439574,81.64356 49.507307,81.2628932 C48.5476279,80.4264461 48.4477493,78.9704683 49.2839141,78.0110773 C54.1830235,72.3900291 62.1575509,70.3963987 69.1276572,73.048943 C70.3174765,73.5016291 70.9147774,74.832969 70.4620913,76.022506 C70.0091228,77.2120429 68.6780653,77.8099085 67.4885284,77.35694 C62.3134131,75.3877866 56.3944174,76.8679591 52.7591228,81.0395003 C52.3033425,81.5625347 51.6635584,81.8300934 51.0206743,81.8300934 Z" id="Path" fill="#33475B"></path>
                    <path d="M119.279606,81.8300934 C118.636445,81.8300934 117.996661,81.5625289 117.540875,81.0395061 C113.905298,76.8685238 107.986867,75.3886337 102.811752,77.3569458 C101.619397,77.8096319 100.29031,77.2120544 99.8379064,76.0227941 C99.384938,74.8329748 99.9825212,73.5016349 101.172058,73.0489488 C108.143858,70.3963987 116.117821,72.3905937 121.016084,78.0110831 C121.852248,78.9704798 121.752652,80.4264519 120.792691,81.262899 C120.35604,81.6432777 119.816417,81.8300934 119.279606,81.8300934 Z" id="Path" fill="#33475B"></path>
                    <path d="M85.1583019,126.809738 C80.9172651,126.809738 76.7150528,125.714733 73.0060449,123.642889 C71.8947214,123.022235 71.4971777,121.618029 72.117832,120.506705 C72.7387686,119.395382 74.1432571,118.998397 75.2540159,119.618492 C78.2773799,121.307422 81.7025111,122.200141 85.1583019,122.200141 C88.6622054,122.200141 92.0822718,121.31024 95.0488051,119.626369 C96.1550638,118.998403 97.5629289,119.386381 98.1908951,120.492922 C98.8194261,121.600028 98.4311649,123.006764 97.3243415,123.635012 C93.6651347,125.711921 89.4584222,126.809738 85.1583019,126.809738 Z" id="Path" fill="#33475B"></path>
                </g>
            </g>
        </g>
    </g>
</svg>