<?xml version="1.0" encoding="UTF-8"?>
<svg width="350px" height="350px" viewBox="0 0 350 350" version="1.1" xmlns="http://www.w3.org/2000/svg" xmlns:xlink="http://www.w3.org/1999/xlink">
    <!-- Generator: Sketch 62 (91390) - https://sketch.com -->
    <title>Group 18</title>
    <desc>Created with Sketch.</desc>
    <g id="Material-Components" stroke="none" stroke-width="1" fill="none" fill-rule="evenodd">
        <g id="Group-18">
            <rect id="Rectangle" fill="#F9F9F9" x="0" y="0" width="350" height="350"></rect>
            <rect id="Rectangle" stroke="#1B223A" stroke-width="3" fill="#FFFFFF" x="74.3735655" y="130" width="100.626434" height="39"></rect>
            <rect id="Rectangle" stroke="#1B223A" stroke-width="3" fill="#FFFFFF" x="175" y="130" width="100.626435" height="39"></rect>
            <rect id="Rectangle" stroke="#1B223A" stroke-width="3" fill="#FFFFFF" x="74.3735655" y="169" width="100.626435" height="39"></rect>
            <rect id="Rectangle" stroke="#1B223A" stroke-width="3" fill="#FFFFFF" x="175" y="169" width="100.626435" height="39"></rect>
            <rect id="Rectangle" stroke="#1B223A" stroke-width="3" fill="#FFFFFF" x="74.3735655" y="208" width="100.626435" height="39"></rect>
            <rect id="Rectangle" stroke="#1B223A" stroke-width="3" fill="#FFFFFF" x="175" y="208" width="100.626435" height="39"></rect>
            <rect id="Rectangle" stroke="#1B223A" stroke-width="3" fill="#FFFFFF" x="74.3735655" y="247" width="100.626435" height="39"></rect>
            <rect id="Rectangle" stroke="#1B223A" stroke-width="3" fill="#FFFFFF" x="175" y="247" width="100.626435" height="39"></rect>
            <g id="smart-key" transform="translate(111.186783, 136.000000)" fill-rule="nonzero">
                <path d="M24.6763125,12.8353887 C27.612457,9.89924414 27.612457,5.13822656 24.6763125,2.20208203 C21.740168,-0.7340625 16.9791504,-0.7340625 14.0430059,2.20208203 C11.5416562,4.70343164 11.1721465,8.52888867 12.9328945,11.4224766 L0.0123398437,24.343084 L2.53531055,26.8660547 L4.05369141,25.3476738 L5.7022207,26.9962031 L8.03576953,24.6626543 L6.38724023,23.014125 L8.80395117,20.5974141 L10.4524805,22.2459434 L12.7860293,19.9123945 L11.1375,18.2638652 L15.455918,13.9454473 C18.3495059,15.706248 22.1749629,15.3367383 24.6763125,12.8353887 Z M19.6068516,7.27149023 C18.8502715,6.51491016 18.8506406,5.2884668 19.6072207,4.53188672 C20.3634316,3.77567578 21.589875,3.77530664 22.3464551,4.53188672 C23.1030352,5.2884668 23.102666,6.51491016 22.3464551,7.27112109 C21.589875,8.02770117 20.3634844,8.02812305 19.6068516,7.27149023 Z" id="Shape" fill="#FF88CE"></path>
                <path d="M15.4558652,13.9454473 L11.1374473,18.2638652 L12.7859766,19.9123945 L10.4524277,22.2459434 L8.80389844,20.5974141 L6.3871875,23.014125 L8.0357168,24.6626543 L5.70216797,26.9962031 L4.05369141,25.3476738 L2.53531055,26.8660547 L1.27385156,25.6045957 L19.6069043,7.27154297 C20.3634844,8.02812305 21.5899277,8.02775391 22.3465078,7.27117383 C23.1027188,6.51496289 23.1030879,5.28851953 22.3465078,4.53193945 L24.6763125,2.20213477 C27.612457,5.1382793 27.612457,9.89929687 24.6763125,12.8354414 C22.1749629,15.3367383 18.3495059,15.706248 15.4558652,13.9454473 Z" id="Path" fill="#FF186E"></path>
            </g>
            <text id="Value" font-family="Roboto-Medium, Roboto" font-size="24" font-weight="400" letter-spacing="2.14285714" fill="#009BB3">
                <tspan x="189.864557" y="158.5">Value</tspan>
            </text>
            <g id="smart-key" transform="translate(111.186783, 175.000000)" fill-rule="nonzero">
                <path d="M24.6763125,12.8353887 C27.612457,9.89924414 27.612457,5.13822656 24.6763125,2.20208203 C21.740168,-0.7340625 16.9791504,-0.7340625 14.0430059,2.20208203 C11.5416563,4.70343164 11.1721465,8.52888867 12.9328945,11.4224766 L0.0123398437,24.343084 L2.53531055,26.8660547 L4.05369141,25.3476738 L5.7022207,26.9962031 L8.03576953,24.6626543 L6.38724023,23.014125 L8.80395117,20.5974141 L10.4524805,22.2459434 L12.7860293,19.9123945 L11.1375,18.2638652 L15.455918,13.9454473 C18.3495059,15.706248 22.1749629,15.3367383 24.6763125,12.8353887 Z M19.6068516,7.27149023 C18.8502715,6.51491016 18.8506406,5.2884668 19.6072207,4.53188672 C20.3634316,3.77567578 21.589875,3.77530664 22.3464551,4.53188672 C23.1030352,5.2884668 23.102666,6.51491016 22.3464551,7.27112109 C21.589875,8.02770117 20.3634844,8.02812305 19.6068516,7.27149023 Z" id="Shape" fill="#FF88CE"></path>
                <path d="M15.4558652,13.9454473 L11.1374473,18.2638652 L12.7859766,19.9123945 L10.4524277,22.2459434 L8.80389844,20.5974141 L6.3871875,23.014125 L8.0357168,24.6626543 L5.70216797,26.9962031 L4.05369141,25.3476738 L2.53531055,26.8660547 L1.27385156,25.6045957 L19.6069043,7.27154297 C20.3634844,8.02812305 21.5899277,8.02775391 22.3465078,7.27117383 C23.1027188,6.51496289 23.1030879,5.28851953 22.3465078,4.53193945 L24.6763125,2.20213477 C27.612457,5.1382793 27.612457,9.89929687 24.6763125,12.8354414 C22.1749629,15.3367383 18.3495059,15.706248 15.4558652,13.9454473 Z" id="Path" fill="#FF186E"></path>
            </g>
            <text id="Value" font-family="Roboto-Medium, Roboto" font-size="24" font-weight="400" letter-spacing="2.14285714" fill="#009BB3">
                <tspan x="189.864557" y="197.5">Value</tspan>
            </text>
            <g id="smart-key" transform="translate(111.186783, 214.000000)" fill-rule="nonzero">
                <path d="M24.6763125,12.8353887 C27.612457,9.89924414 27.612457,5.13822656 24.6763125,2.20208203 C21.740168,-0.7340625 16.9791504,-0.7340625 14.0430059,2.20208203 C11.5416563,4.70343164 11.1721465,8.52888867 12.9328945,11.4224766 L0.0123398437,24.343084 L2.53531055,26.8660547 L4.05369141,25.3476738 L5.7022207,26.9962031 L8.03576953,24.6626543 L6.38724023,23.014125 L8.80395117,20.5974141 L10.4524805,22.2459434 L12.7860293,19.9123945 L11.1375,18.2638652 L15.455918,13.9454473 C18.3495059,15.706248 22.1749629,15.3367383 24.6763125,12.8353887 Z M19.6068516,7.27149023 C18.8502715,6.51491016 18.8506406,5.2884668 19.6072207,4.53188672 C20.3634316,3.77567578 21.589875,3.77530664 22.3464551,4.53188672 C23.1030352,5.2884668 23.102666,6.51491016 22.3464551,7.27112109 C21.589875,8.02770117 20.3634844,8.02812305 19.6068516,7.27149023 Z" id="Shape" fill="#FF88CE"></path>
                <path d="M15.4558652,13.9454473 L11.1374473,18.2638652 L12.7859766,19.9123945 L10.4524277,22.2459434 L8.80389844,20.5974141 L6.3871875,23.014125 L8.0357168,24.6626543 L5.70216797,26.9962031 L4.05369141,25.3476738 L2.53531055,26.8660547 L1.27385156,25.6045957 L19.6069043,7.27154297 C20.3634844,8.02812305 21.5899277,8.02775391 22.3465078,7.27117383 C23.1027188,6.51496289 23.1030879,5.28851953 22.3465078,4.53193945 L24.6763125,2.20213477 C27.612457,5.1382793 27.612457,9.89929687 24.6763125,12.8354414 C22.1749629,15.3367383 18.3495059,15.706248 15.4558652,13.9454473 Z" id="Path" fill="#FF186E"></path>
            </g>
            <text id="Value" font-family="Roboto-Medium, Roboto" font-size="24" font-weight="400" letter-spacing="2.14285714" fill="#009BB3">
                <tspan x="189.864557" y="236.5">Value</tspan>
            </text>
            <g id="smart-key" transform="translate(111.186783, 253.000000)" fill-rule="nonzero">
                <path d="M24.6763125,12.8353887 C27.612457,9.89924414 27.612457,5.13822656 24.6763125,2.20208203 C21.740168,-0.7340625 16.9791504,-0.7340625 14.0430059,2.20208203 C11.5416563,4.70343164 11.1721465,8.52888867 12.9328945,11.4224766 L0.0123398437,24.343084 L2.53531055,26.8660547 L4.05369141,25.3476738 L5.7022207,26.9962031 L8.03576953,24.6626543 L6.38724023,23.014125 L8.80395117,20.5974141 L10.4524805,22.2459434 L12.7860293,19.9123945 L11.1375,18.2638652 L15.455918,13.9454473 C18.3495059,15.706248 22.1749629,15.3367383 24.6763125,12.8353887 Z M19.6068516,7.27149023 C18.8502715,6.51491016 18.8506406,5.2884668 19.6072207,4.53188672 C20.3634316,3.77567578 21.589875,3.77530664 22.3464551,4.53188672 C23.1030352,5.2884668 23.102666,6.51491016 22.3464551,7.27112109 C21.589875,8.02770117 20.3634844,8.02812305 19.6068516,7.27149023 Z" id="Shape" fill="#FF88CE"></path>
                <path d="M15.4558652,13.9454473 L11.1374473,18.2638652 L12.7859766,19.9123945 L10.4524277,22.2459434 L8.80389844,20.5974141 L6.3871875,23.014125 L8.0357168,24.6626543 L5.70216797,26.9962031 L4.05369141,25.3476738 L2.53531055,26.8660547 L1.27385156,25.6045957 L19.6069043,7.27154297 C20.3634844,8.02812305 21.5899277,8.02775391 22.3465078,7.27117383 C23.1027188,6.51496289 23.1030879,5.28851953 22.3465078,4.53193945 L24.6763125,2.20213477 C27.612457,5.1382793 27.612457,9.89929687 24.6763125,12.8354414 C22.1749629,15.3367383 18.3495059,15.706248 15.4558652,13.9454473 Z" id="Path" fill="#FF186E"></path>
            </g>
            <text id="Value" font-family="Roboto-Medium, Roboto" font-size="24" font-weight="400" letter-spacing="2.14285714" fill="#009BB3">
                <tspan x="189.864557" y="275.5">Value</tspan>
            </text>
            <text id="Hash-Tables" font-family="Roboto-Medium, Roboto" font-size="24" font-weight="400" letter-spacing="2.14285714" fill="#1B223A">
                <tspan x="96.8621652" y="75">Hash Tables</tspan>
            </text>
            <text id="Under-the-covers" font-family="Roboto-Regular, Roboto" font-size="14" font-weight="normal" letter-spacing="1.25" fill="#1B223A">
                <tspan x="111.676041" y="103">Under the covers</tspan>
            </text>
        </g>
    </g>
</svg>