<?xml version="1.0" encoding="UTF-8"?>
<svg width="350px" height="350px" viewBox="0 0 350 350" version="1.1" xmlns="http://www.w3.org/2000/svg" xmlns:xlink="http://www.w3.org/1999/xlink">
    <!-- Generator: Sketch 62 (91390) - https://sketch.com -->
    <title>Group 17</title>
    <desc>Created with Sketch.</desc>
    <g id="Material-Components" stroke="none" stroke-width="1" fill="none" fill-rule="evenodd">
        <g id="Group-17">
            <rect id="Rectangle" fill="#F9F9F9" x="0" y="0" width="350" height="350"></rect>
            <g id="jump-rope" transform="translate(54.500000, 54.500000)" fill-rule="nonzero">
                <path d="M200.777947,25.6594395 C185.184023,8.57574023 163.329748,-0.522009766 139.23775,0.0230644531 C133.886797,0.145917969 128.512779,0.7681875 123.225842,1.86492578 C117.008324,0.480117188 110.43166,-0.0404804687 103.640826,0.382681641 C103.541979,0.388800781 103.443131,0.39915625 103.344754,0.413748047 C76.0990449,4.43873047 51.242625,21.9568887 33.3540234,49.7415527 C17.0644004,75.0423164 8.69906445,106.368551 10.9763262,133.538477 C11.1307168,135.381279 12.6736816,136.77409 14.490125,136.77409 C14.5889727,136.77409 14.6887617,136.769854 14.7890215,136.761381 C16.7316133,136.598518 18.1747891,134.891748 18.0119258,132.948686 C15.8603418,107.277008 23.8152246,77.6005879 39.2905313,53.5636621 C56.027793,27.5671992 79.0851855,11.1853184 104.229205,7.42063477 C104.768631,7.38815625 105.302879,7.36226758 105.838539,7.34296875 C105.004453,7.70258594 104.175545,8.07491211 103.353697,8.45947656 C91.635543,13.9441094 81.5808535,21.667877 73.4937031,31.3864844 C56.2198398,51.6921465 37.3592363,92.0544688 60.2857734,113.91957 C72.1324297,125.218328 88.5524375,131.234855 106.516822,130.874768 C123.857055,130.522682 140.437102,124.038275 152.005572,113.084072 C152.01734,113.072775 152.029578,113.061479 152.041346,113.049711 C162.603453,102.762494 169.474777,90.0266797 171.911607,76.2190742 C174.188869,63.3175723 172.571533,50.1345898 167.234701,38.095416 C161.065195,24.1771953 150.788805,13.5303613 138.037457,7.1245625 C138.490744,7.10667578 138.944031,7.09302539 139.39873,7.08219922 C161.413986,6.57666406 181.364738,14.8657461 195.55832,30.4144824 C219.566063,56.81575 222.836508,96.6946602 222.868986,132.222861 C222.870869,134.171572 224.45102,135.74984 226.39926,135.74984 L226.402555,135.74984 C228.352207,135.747957 229.929535,134.165924 229.929535,132.216271 C229.896584,95.3399766 226.407262,53.8427891 200.777947,25.6594395 L200.777947,25.6594395 Z M160.780891,40.9563496 C170.88265,63.7449707 165.525578,90.0478613 147.132854,107.97459 C124.972621,128.935471 86.6738613,129.328979 65.1589629,108.810088 C46.7813008,91.283457 62.1144551,55.6592324 78.8964336,35.9315937 C90.2144902,22.330627 105.766051,12.9824629 123.026264,9.09021875 C139.79318,13.2662969 153.511352,24.5575234 160.780891,40.9563496 Z" id="Shape" fill="#1B223A"></path>
                <path d="M23.2226094,143.266027 L5.76564258,143.266027 L5.76564258,124.912371 C5.76564258,123.546861 6.87273633,122.439768 8.23824609,122.439768 L20.7500059,122.439768 C22.1155156,122.439768 23.2226094,123.546861 23.2226094,124.912371 L23.2226094,143.266027 Z" id="Path" fill="#1B223A"></path>
                <path d="M235.127979,143.266027 L217.671012,143.266027 L217.671012,124.912371 C217.671012,123.546861 218.778105,122.439768 220.143615,122.439768 L232.655375,122.439768 C234.020885,122.439768 235.127979,123.546861 235.127979,124.912371 L235.127979,143.266027 Z" id="Path" fill="#1B223A"></path>
                <path d="M29.0946309,226.222746 L0,226.222746 L0,141.177047 C0,138.86307 1.87575195,136.986848 4.19019922,136.986848 L24.9044316,136.986848 C27.2184082,136.986848 29.0946309,138.8626 29.0946309,141.177047 L29.0946309,226.222746 Z" id="Path" fill="#F583C6"></path>
                <path d="M24.9044316,136.986848 L10.3573516,136.986848 C12.6713281,136.986848 14.5475508,138.8626 14.5475508,141.177047 L14.5475508,226.222746 L29.0946309,226.222746 L29.0946309,141.177047 C29.0946309,138.86307 27.2184082,136.986848 24.9044316,136.986848 Z" id="Path" fill="#F82268"></path>
                <path d="M241,226.222746 L211.905369,226.222746 L211.905369,141.177047 C211.905369,138.86307 213.781121,136.986848 216.095568,136.986848 L236.809801,136.986848 C239.123777,136.986848 241,138.8626 241,141.177047 L241,226.222746 Z" id="Path" fill="#F583C6"></path>
                <path d="M236.809801,136.986848 L222.262721,136.986848 C224.576697,136.986848 226.45292,138.8626 226.45292,141.177047 L226.45292,226.222746 L241,226.222746 L241,141.177047 C241,138.86307 239.124248,136.986848 236.809801,136.986848 Z" id="Path" fill="#F82268"></path>
                <path d="M14.5470801,241 C6.51311914,241 0,234.486881 0,226.45292 L0,220.634088 L29.0946309,220.634088 L29.0946309,226.45292 C29.0946309,234.486881 22.5815117,241 14.5470801,241 Z" id="Path" fill="#0095AE"></path>
                <path d="M14.5470801,220.633617 L14.5470801,226.452449 C14.5470801,231.835881 11.620248,236.533027 7.27330469,239.048936 C9.4140625,240.287355 11.8965508,241 14.5470801,241 C22.5815117,241 29.0941602,234.486881 29.0941602,226.45292 L29.0941602,220.634088 L14.5470801,220.634088 L14.5470801,220.633617 Z" id="Path" fill="#0095AE"></path>
                <path d="M226.45292,241 C218.418488,241 211.90584,234.486881 211.90584,226.45292 L211.90584,220.634088 L241,220.634088 L241,226.45292 C241,234.486881 234.486881,241 226.45292,241 Z" id="Path" fill="#0095AE"></path>
                <path d="M226.45292,220.633617 L226.45292,226.452449 C226.45292,231.835881 223.526088,236.533027 219.179145,239.048936 C221.319432,240.287355 223.80192,241 226.45292,241 C234.486881,241 241,234.486881 241,226.45292 L241,220.634088 L226.45292,220.634088 L226.45292,220.633617 Z" id="Path" fill="#0095AE"></path>
            </g>
        </g>
    </g>
</svg>