<?xml version="1.0" encoding="UTF-8"?>
<svg width="350px" height="351px" viewBox="0 0 350 351" version="1.1" xmlns="http://www.w3.org/2000/svg" xmlns:xlink="http://www.w3.org/1999/xlink">
    <!-- Generator: Sketch 62 (91390) - https://sketch.com -->
    <title>Group 18</title>
    <desc>Created with Sketch.</desc>
    <g id="Material-Components" stroke="none" stroke-width="1" fill="none" fill-rule="evenodd">
        <g id="Group-18" transform="translate(0.000000, 0.094335)">
            <rect id="Rectangle" fill="#F9F9F9" x="0" y="0" width="350" height="350"></rect>
            <rect id="Rectangle" fill="#FFFFFF" x="17.5" y="17.5" width="315" height="315"></rect>
            <g id="frog" transform="translate(92.000000, 108.905665)" fill-rule="nonzero">
                <path d="M0.328987174,182.492187 C0.328987174,185.5325 2.65613855,188 5.5235215,188 L47.1144263,188 C48.6520085,188 50.0337546,187.291328 50.9860859,186.164062 L46.9343491,186.164062 C44.7526447,186.156719 42.1726927,184.232656 41.4108276,182.044219 C32.3342447,155.771953 31.2052992,127.160703 38.0205282,100.308281 C31.0110236,98.1260859 20.9734518,100.275602 14.371545,108.338672 C9.7761136,113.952969 7.70522592,121.392187 8.68872442,128.750625 L15.140336,176.984375 L5.5235215,176.984375 C2.65613855,176.984375 0.328987174,179.451875 0.328987174,182.492187 L0.328987174,182.492187 Z" id="Path" fill="#D4067F"></path>
                <path d="M156.199993,182.492187 C156.199993,185.5325 153.872842,188 151.005459,188 L109.414554,188 C107.876972,188 106.495226,187.291328 105.542895,186.164062 L109.594632,186.164062 C111.776336,186.156719 114.356288,184.232656 115.118153,182.044219 C124.194736,155.771953 125.323681,127.160703 118.508452,100.308281 C125.517957,98.1260859 135.555875,100.275602 142.157436,108.338672 C146.752867,113.952969 148.823755,121.392187 147.840256,128.750625 L141.388645,176.984375 L151.005459,176.984375 C153.872842,176.984375 156.199993,179.451875 156.199993,182.492187 L156.199993,182.492187 Z" id="Path" fill="#D4067F"></path>
                <path d="M116.745774,88.3453125 C115.71033,85.3857812 112.441236,83.0247656 109.594632,83.0210937 L46.9346955,83.0210937 C44.0880906,83.0247656 40.818997,85.3857812 39.7835532,88.3453125 C29.9177473,116.90993 29.3072164,148.095164 37.9509215,176.984375 L33.7156445,176.984375 C30.8468763,176.984375 28.5211102,179.450406 28.5211102,182.492187 C28.5211102,185.533969 30.8468763,188 33.7156445,188 L109.594978,188 C112.445046,187.996328 115.714139,185.631641 116.74612,182.675781 C127.262628,152.224922 127.262628,118.796172 116.745774,88.3453125 Z" id="Path" fill="#FF88CE"></path>
                <path d="M122.813682,176.984375 L118.579098,176.984375 C127.193368,148.201648 126.642747,117.087281 116.745774,88.3456797 C115.71033,85.3861484 112.441236,83.0251328 109.594632,83.0214609 L78.2643172,83.0214609 L78.2643172,188.000367 C81.7796317,188.000367 117.943287,188.000367 122.813682,188.000367 C125.682451,188.000367 128.008217,185.533969 128.008217,182.492188 C128.008217,179.450406 125.682451,176.984375 122.813682,176.984375 L122.813682,176.984375 Z" id="Path" fill="#FF186E"></path>
                <path d="M79.6495263,12.8515625 L79.6495263,92.5496094 C79.1086022,93.1231562 78.8052414,93.4448125 78.2643172,94.0183594 L45.1578184,94.0183594 C31.8750478,94.0183594 21.1071245,82.6010312 21.1071245,68.5171875 L21.1071245,67.8195312 C21.1071245,59.2897656 25.0307294,51.5164062 31.5308234,46.8017187 L31.5308234,38.0259375 C31.5308234,36.5682031 32.074518,35.1692187 33.0476274,34.1374219 L52.9357678,13.0021094 C53.9088772,11.9629687 55.231752,11.3828125 56.6134981,11.3828125 L78.2643172,11.3828125 C78.8055877,11.9567266 79.1086022,12.2780156 79.6495263,12.8515625 Z" id="Path" fill="#FF88CE"></path>
                <path d="M135.421856,67.7354453 L135.421856,68.6277109 C135.421856,80.1316953 128.170286,89.8731797 118.255652,92.9795859 C116.105115,93.6552109 113.829909,94.0187266 111.475053,94.0187266 L78.2643172,94.0187266 L78.2643172,11.3831797 L99.9185993,11.3831797 C101.296882,11.3831797 102.619757,11.9633359 103.592867,12.9951328 L123.512174,34.1194297 C124.485284,35.1512266 125.032441,36.5538828 125.032441,38.0116172 L125.032441,46.7984141 C131.511757,51.4910703 135.421856,59.2350547 135.421856,67.7354453 L135.421856,67.7354453 Z" id="Path" fill="#FF186E"></path>
                <path d="M99.0254857,62.7890625 L57.4692111,62.7890625 C54.6004429,62.7890625 52.2746767,65.2550938 52.2746767,68.296875 C52.2746767,71.3386562 54.6004429,73.8046875 57.4692111,73.8046875 L99.0254857,73.8046875 C101.894254,73.8046875 104.22002,71.3386562 104.22002,68.296875 C104.22002,65.2550938 101.894254,62.7890625 99.0254857,62.7890625 Z" id="Path" fill="#D4067F"></path>
                <path d="M104.219674,68.2972422 C104.219674,71.3375547 101.892522,73.8050547 99.0251394,73.8050547 L78.2643172,73.8050547 L78.2643172,62.7894297 L99.0251394,62.7894297 C101.892522,62.7894297 104.219674,65.2532578 104.219674,68.2972422 Z" id="Path" fill="#D4067F"></path>
                <ellipse id="Oval" fill="#FF88CE" cx="41.9025769" cy="22.0496094" rx="20.7954524" ry="22.0496094"></ellipse>
                <ellipse id="Oval" fill="#1B223A" cx="41.9025769" cy="22.0496094" rx="10.4063838" ry="11.0339844"></ellipse>
                <ellipse id="Oval" fill="#FF186E" cx="114.626057" cy="22.0496094" rx="20.7954524" ry="22.0496094"></ellipse>
                <ellipse id="Oval" fill="#1B223A" cx="114.626057" cy="22.0496094" rx="10.4063838" ry="11.0339844"></ellipse>
                <path d="M72.2490464,188 L60.68255,188 C57.3615111,179.760312 52.3089607,162.7375 52.3089607,135.492188 C52.3089607,132.451875 54.636112,129.984375 57.503495,129.984375 C60.3708779,129.984375 62.6980293,132.451875 62.6980293,135.492188 C62.6980293,171.542656 72.1382297,187.805391 72.2317313,187.966953 C72.2390037,187.977969 72.2459297,187.988984 72.2490464,188 L72.2490464,188 Z" id="Path" fill="#D4067F"></path>
                <path d="M104.219674,135.492188 C104.219674,162.752187 99.1705863,179.763984 95.8460844,188 L84.2795879,188 C84.3114477,187.861203 93.830605,172.001641 93.830605,135.492188 C93.830605,132.451875 96.1577564,129.984375 99.0251394,129.984375 C101.892522,129.984375 104.219674,132.451875 104.219674,135.492188 Z" id="Path" fill="#D4067F"></path>
            </g>
            <text id="Leap-Year-Kata" font-family="Roboto-Medium, Roboto" font-size="24" font-weight="400" letter-spacing="2.14285714" fill="#1B223A">
                <tspan x="74.4765625" y="73.9056646">Leap Year Kata</tspan>
            </text>
        </g>
    </g>
</svg>