<?xml version="1.0" encoding="UTF-8"?>
<svg width="350px" height="350px" viewBox="0 0 350 350" version="1.1" xmlns="http://www.w3.org/2000/svg" xmlns:xlink="http://www.w3.org/1999/xlink">
    <!-- Generator: Sketch 62 (91390) - https://sketch.com -->
    <title>Group 15</title>
    <desc>Created with Sketch.</desc>
    <g id="Material-Components" stroke="none" stroke-width="1" fill="none" fill-rule="evenodd">
        <g id="Group-15" transform="translate(-38.000000, -36.000000)">
            <g id="Group-2" transform="translate(38.000000, 36.000000)" fill="#F9F9F9">
                <rect id="Rectangle" x="0" y="0" width="350" height="350"></rect>
            </g>
            <g id="Group-13" transform="translate(0.500000, 0.000000)">
                <path d="M173.774478,67.0809305 L216.166265,39.5965301 C226.592996,32.8364364 240.525671,35.8088333 247.285764,46.2355644 C249.010723,48.8961317 250.153861,51.8912472 250.64023,55.0245437 L257.619101,99.9839718 C258.07217,102.902739 256.696624,105.802148 254.149395,107.297506 L217.87096,128.594858 C215.525846,129.971564 212.605159,129.909565 210.320579,128.434583 L173.810669,104.862879 C163.371006,98.1227734 160.371923,84.1958192 167.112028,73.7561562 C168.836336,71.0853981 171.107028,68.8103517 173.774478,67.0809305 Z" id="Rectangle" fill="#F5296A" transform="translate(201.481886, 75.770036) scale(-1, -1) rotate(-151.000000) translate(-201.481886, -75.770036) "></path>
                <path d="M173.774478,337.550565 L216.166265,310.066165 C226.592996,303.306071 240.525671,306.278468 247.285764,316.705199 C249.010723,319.365766 250.153861,322.360882 250.64023,325.494178 L257.619101,370.453607 C258.07217,373.372373 256.696624,376.271783 254.149395,377.767141 L217.87096,399.064493 C215.525846,400.441199 212.605159,400.3792 210.320579,398.904218 L173.810669,375.332514 C163.371006,368.592408 160.371923,354.665454 167.112028,344.225791 C168.836336,341.555033 171.107028,339.279986 173.774478,337.550565 Z" id="Rectangle" fill="#F5296A" transform="translate(201.481886, 346.239671) scale(-1, 1) rotate(-151.000000) translate(-201.481886, -346.239671) "></path>
                <path d="M50.7804741,197.049121 L93.1722613,169.564721 C103.598992,162.804627 117.531667,165.777024 124.29176,176.203755 C126.016719,178.864322 127.159857,181.859438 127.646226,184.992734 L134.625098,229.952163 C135.078166,232.870929 133.702621,235.770339 131.155391,237.265696 L94.8769561,258.563049 C92.5318419,259.939755 89.6111552,259.877756 87.3265748,258.402774 L50.8166655,234.83107 C40.3770025,228.090964 37.3779188,214.16401 44.1180245,203.724347 C45.8423323,201.053589 48.1130243,198.778542 50.7804741,197.049121 Z" id="Rectangle" fill="#0095AC" transform="translate(78.487882, 205.738226) scale(-1, 1) rotate(-235.000000) translate(-78.487882, -205.738226) "></path>
                <path d="M319.38225,197.049121 L361.774038,169.564721 C372.200769,162.804627 386.133443,165.777024 392.893537,176.203755 C394.618496,178.864322 395.761633,181.859438 396.248002,184.992734 L403.226874,229.952163 C403.679942,232.870929 402.304397,235.770339 399.757168,237.265696 L363.478732,258.563049 C361.133618,259.939755 358.212932,259.877756 355.928351,258.402774 L319.418442,234.83107 C308.978779,228.090964 305.979695,214.16401 312.719801,203.724347 C314.444109,201.053589 316.714801,198.778542 319.38225,197.049121 Z" id="Rectangle" fill="#0095AC" transform="translate(347.089658, 205.738226) rotate(-235.000000) translate(-347.089658, -205.738226) "></path>
                <path d="M275.37117,99.9592013 L317.762957,72.4748008 C328.189688,65.7147072 342.122363,68.6871041 348.882456,79.1138352 C350.607415,81.7744024 351.750553,84.769518 352.236922,87.9028145 L359.215793,132.862243 C359.668862,135.781009 358.293316,138.680419 355.746087,140.175777 L319.467652,161.473129 C317.122538,162.849835 314.201851,162.787836 311.917271,161.312854 L275.407361,137.74115 C264.967698,131.001044 261.968615,117.07409 268.70872,106.634427 C270.433028,103.963669 272.70372,101.688622 275.37117,99.9592013 Z" id="Rectangle" fill="#E1F1F5" transform="translate(303.078578, 108.648307) rotate(-284.000000) translate(-303.078578, -108.648307) "></path>
                <path d="M89.9825033,301.555462 L132.374291,274.071061 C142.801022,267.310968 156.733696,270.283365 163.49379,280.710096 C165.218749,283.370663 166.361886,286.365779 166.848255,289.499075 L173.827127,334.458503 C174.280195,337.37727 172.90465,340.276679 170.357421,341.772037 L134.078985,363.06939 C131.733871,364.446095 128.813184,364.384097 126.528604,362.909115 L90.0186947,339.33741 C79.5790318,332.597305 76.5799481,318.670351 83.3200538,308.230688 C85.0443615,305.559929 87.3150536,303.284883 89.9825033,301.555462 Z" id="Rectangle" fill="#E1F1F5" transform="translate(117.689911, 310.244567) rotate(-459.000000) translate(-117.689911, -310.244567) "></path>
                <path d="M80.115046,117.231722 L122.506833,89.7473215 C132.933564,82.9872279 146.866239,85.9596248 153.626332,96.3863559 C155.351291,99.0469231 156.494429,102.042039 156.980798,105.175335 L163.95967,150.134763 C164.412738,153.05353 163.037192,155.95294 160.489963,157.448297 L124.211528,178.74565 C121.866414,180.122355 118.945727,180.060357 116.661147,178.585375 L80.1512374,155.013671 C69.7115744,148.273565 66.7124907,134.346611 73.4525964,123.906948 C75.1769042,121.23619 77.4475962,118.961143 80.115046,117.231722 Z" id="Rectangle" fill="#F583C6" transform="translate(107.822454, 125.920827) rotate(-378.000000) translate(-107.822454, -125.920827) "></path>
                <path d="M283.679327,292.566607 L326.071114,265.082207 C336.497845,258.322113 350.43052,261.29451 357.190613,271.721241 C358.915572,274.381808 360.05871,277.376924 360.545079,280.51022 L367.523951,325.469648 C367.977019,328.388415 366.601474,331.287825 364.054244,332.783182 L327.775809,354.080535 C325.430695,355.45724 322.510008,355.395242 320.225428,353.92026 L283.715518,330.348556 C273.275855,323.60845 270.276772,309.681496 277.016877,299.241833 C278.741185,296.571075 281.011877,294.296028 283.679327,292.566607 Z" id="Rectangle" fill="#F583C6" transform="translate(311.386735, 301.255712) rotate(-552.000000) translate(-311.386735, -301.255712) "></path>
                <ellipse id="Oval" fill="#1D243A" cx="212.801776" cy="211.024926" rx="72" ry="72.9"></ellipse>
                <text id="OBSERVATION" font-family="Roboto-Medium, Roboto" font-size="9" font-weight="400" letter-spacing="0.803571421" fill="#FFFFFF">
                    <tspan x="174.992285" y="93.1696348">OBSERVATION</tspan>
                </text>
                <text id="SCIENTIFIC-RESEARCH" font-family="Roboto-Medium, Roboto" font-size="18.9" font-weight="400" letter-spacing="1.6875" fill="#FFFFFF">
                    <tspan x="155.604675" y="193.824926">SCIENTIFIC</tspan>
                    <tspan x="158.321155" y="218.824926">RESEARCH</tspan>
                    <tspan x="165.209582" y="243.824926">PROCESS</tspan>
                </text>
                <text id="THEORY" font-family="Roboto-Medium, Roboto" font-size="9" font-weight="400" letter-spacing="0.803571421" fill="#FFFFFF">
                    <tspan x="311.386735" y="214.738226">THEORY</tspan>
                </text>
                <text id="DATA-ANALYSIS" font-family="Roboto-Medium, Roboto" font-size="9" font-weight="400" letter-spacing="0.803571421" fill="#FFFFFF">
                    <tspan x="81.7379893" y="208.324926">DATA</tspan>
                    <tspan x="70.671618" y="219.324926">ANALYSIS</tspan>
                </text>
                <text id="PREDICTION" font-family="Roboto-Medium, Roboto" font-size="9" font-weight="400" letter-spacing="0.803571421" fill="#FFFFFF">
                    <tspan x="179.492285" y="335.180217">PREDICTION</tspan>
                </text>
                <text id="RESEARCH-QUESTION" font-family="Roboto-Medium, Roboto" font-size="9" font-weight="400" letter-spacing="0.803571421" fill="#1D243A">
                    <tspan x="270.619271" y="124.851527">RESEARCH</tspan>
                    <tspan x="271.803597" y="135.851527">QUESTION</tspan>
                </text>
                <text id="DATA-COLLECTION" font-family="Roboto-Medium, Roboto" font-size="9" font-weight="400" letter-spacing="0.803571421" fill="#1D243A">
                    <tspan x="112.337989" y="289.555712">DATA</tspan>
                    <tspan x="94.6387009" y="300.555712">COLLECTION</tspan>
                </text>
                <text id="HYPOTHESIS" font-family="Roboto-Medium, Roboto" font-size="9" font-weight="400" letter-spacing="0.803571421" fill="#1D243A">
                    <tspan x="265.511256" y="298.555712">HYPOTHESIS</tspan>
                </text>
                <text id="GENERALISE-RESULTS" font-family="Roboto-Medium, Roboto" font-size="9" font-weight="400" letter-spacing="0.803571421" fill="#1D243A">
                    <tspan x="94.5090622" y="127.551527">GENERALISE</tspan>
                    <tspan x="103.356509" y="138.551527">RESULTS</tspan>
                </text>
                <path id="Line" d="M255.28888,101.075147 L261.478298,108.869607 L251.526776,108.697259 L253.208,105.289 L246.793115,102.123158 L246.389592,101.923988 L246.787932,101.116941 L247.191456,101.316111 L253.606,104.482 L255.28888,101.075147 Z" fill="#1D243A" fill-rule="nonzero"></path>
                <path id="Line" d="M170.670264,101.119367 L164.819755,109.171326 L162.993,105.839 L157.308017,108.954274 L156.913378,109.170514 L156.480897,108.381236 L156.875536,108.164996 L162.56,105.049 L160.73521,101.717032 L170.670264,101.119367 Z" fill="#1D243A" fill-rule="nonzero"></path>
                <path id="Line" d="M318.77245,157.104616 L318.960569,157.513408 L322.157,164.459 L325.609236,162.871321 L325.510797,172.823849 L317.887601,166.424679 L321.339,164.836 L318.142984,157.889646 L317.954865,157.480854 L318.77245,157.104616 Z" fill="#1D243A" fill-rule="nonzero"></path>
                <path id="Line" d="M321.752696,250.32982 L322.545177,250.756404 L322.331885,251.152644 L321.177,253.298 L324.522893,255.099511 L316.514786,261.009902 L317.038347,251.070668 L320.384,252.871 L321.539404,250.726061 L321.752696,250.32982 Z" fill="#1D243A" fill-rule="nonzero"></path>
                <path id="Line" d="M253.496209,312.636332 L255.038,316.109 L260.444992,313.709147 L260.856285,313.52656 L261.221459,314.349146 L260.810166,314.531733 L255.403,316.931 L256.945078,320.405199 L246.994784,320.172509 L253.496209,312.636332 Z" fill="#1D243A" fill-rule="nonzero"></path>
                <path id="Line" d="M168.302493,313.899348 L166.682,317.336 L171.215374,319.472831 L171.622439,319.664659 L171.238784,320.478789 L170.831718,320.286962 L166.299,318.151 L164.67908,321.588358 L158.349482,313.907298 L168.302493,313.899348 Z" fill="#1D243A" fill-rule="nonzero"></path>
                <path id="Line" d="M108.97996,166.688041 L102.170804,173.947372 L110.259834,176.558422 L108.97996,166.688041 Z" fill="#1D243A" fill-rule="nonzero"></path>
                <path id="Line" d="M106.252748,249.41335 L114.478488,255.016894 L111.202,256.942 L111.534427,257.506914 L111.76254,257.894811 L110.986746,258.351038 L110.758632,257.96314 L110.426,257.399 L107.151539,259.3257 L106.252748,249.41335 Z" fill="#1D243A" fill-rule="nonzero"></path>
            </g>
        </g>
    </g>
</svg>