<?xml version="1.0" encoding="UTF-8"?>
<svg width="351px" height="350px" viewBox="0 0 351 350" version="1.1" xmlns="http://www.w3.org/2000/svg" xmlns:xlink="http://www.w3.org/1999/xlink">
    <!-- Generator: Sketch 62 (91390) - https://sketch.com -->
    <title>Group 14</title>
    <desc>Created with Sketch.</desc>
    <g id="Page-1" stroke="none" stroke-width="1" fill="none" fill-rule="evenodd">
        <g id="Group-14" transform="translate(0.408778, 0.000000)">
            <rect id="Rectangle" fill="#F9F9F9" x="0" y="0" width="350" height="350"></rect>
            <g id="Wellbeing-Wheel" transform="translate(26.500000, 25.500000)">
                <polygon id="Polygon" stroke="#1D243A" fill="#FFFFFF" points="147.852977 11 230.142912 37.7376208 281.000889 107.737621 281.000889 194.262379 230.142912 264.262379 147.852977 291 65.5630415 264.262379 14.7050645 194.262379 14.7050645 107.737621 65.5630415 37.7376208"></polygon>
                <path d="M147.852977,25 L221.913919,49.0638587 L267.686098,112.063859 L267.686098,189.936141 L221.913919,252.936141 L147.852977,277 L73.792035,252.936141 L28.0198558,189.936141 L28.0198558,112.063859 L73.792035,49.0638587 L147.852977,25 Z" id="Polygon" stroke="#C0C2C8" stroke-dasharray="1,2"></path>
                <polygon id="Polygon" stroke="#C0C2C8" points="147.852977 39 213.684925 60.3900966 254.371307 116.390097 254.371307 185.609903 213.684925 241.609903 147.852977 263 82.0210286 241.609903 41.334647 185.609903 41.334647 116.390097 82.0210286 60.3900966"></polygon>
                <path d="M147.852977,53 L205.455932,71.7163346 L241.056515,120.716335 L241.056515,181.283665 L205.455932,230.283665 L147.852977,249 L90.2500221,230.283665 L54.6494382,181.283665 L54.6494382,120.716335 L90.2500221,71.7163346 L147.852977,53 Z" id="Polygon" stroke="#C0C2C8" stroke-dasharray="1,2"></path>
                <polygon id="Polygon" stroke="#C0C2C8" points="147.852977 67 197.226938 83.0425725 227.741724 125.042572 227.741724 176.957428 197.226938 218.957428 147.852977 235 98.4790156 218.957428 67.9642294 176.957428 67.9642294 125.042572 98.4790156 83.0425725"></polygon>
                <path d="M147.852977,81 L188.997944,94.3688104 L214.426933,129.36881 L214.426933,172.63119 L188.997944,207.63119 L147.852977,221 L106.708009,207.63119 L81.2790207,172.63119 L81.2790207,129.36881 L106.708009,94.3688104 L147.852977,81 Z" id="Polygon" stroke="#C0C2C8" stroke-dasharray="1,2"></path>
                <polygon id="Polygon" stroke="#C0C2C8" points="147.852977 95 180.768951 105.695048 201.112142 133.695048 201.112142 168.304952 180.768951 196.304952 147.852977 207 114.937003 196.304952 94.5938119 168.304952 94.5938119 133.695048 114.937003 105.695048"></polygon>
                <path d="M147.852977,109 L172.539957,117.021286 L187.79735,138.021286 L187.79735,163.978714 L172.539957,184.978714 L147.852977,193 L123.165996,184.978714 L107.908603,163.978714 L107.908603,138.021286 L123.165996,117.021286 L147.852977,109 Z" id="Polygon" stroke="#C0C2C8" stroke-dasharray="1,2"></path>
                <polygon id="Polygon" stroke="#C0C2C8" points="148 123 164.457987 128.347524 174.629582 142.347524 174.629582 159.652476 164.457987 173.652476 148 179 131.542013 173.652476 121.370418 159.652476 121.370418 142.347524 131.542013 128.347524"></polygon>
                <path d="M147.852977,137.5 L156.08197,140.173762 L161.167768,147.173762 L161.167768,155.826238 L156.08197,162.826238 L147.852977,165.5 L139.623983,162.826238 L134.538186,155.826238 L134.538186,147.173762 L139.623983,140.173762 L147.852977,137.5 Z" id="Polygon" stroke="#C0C2C8" stroke-dasharray="1,2"></path>
                <path d="M221.913919,49.0638587 L268.414936,112.5 L227.740856,125.499859 L227.741724,176.957428 L197.239856,218.938 L213.684925,241.609903 L147.852977,263 L147.960743,151 L221.913919,49.0638587 Z M147.960743,151 L147.852977,207 L114.985856,196.32 L73.792035,252.936141 L28.0198558,189.936141 L147.960743,151 Z M106.708009,94.3688104 L147.960743,151 L54.6494382,181.283665 L54.6494382,120.716335 L81.2838558,129.361 L106.708009,94.3688104 Z M147.852977,53 L147.960743,151 L90.2500221,71.7163346 L147.852977,53 Z M147.852977,38.3634419 L213.684925,60.3900966 L147.960743,151 L147.852977,38.3634419 Z" id="Combined-Shape" fill-opacity="0.335418488" fill="#FF186E"></path>
                <text id="Family" transform="translate(291.144814, 150.500000) rotate(90.000000) translate(-291.144814, -150.500000) " font-family="Roboto-Regular, Roboto" font-size="8.16326531" font-weight="normal" letter-spacing="0.060024006" fill="#1D243A">
                    <tspan x="278.644814" y="154">Family</tspan>
                </text>
                <text id="Romance" transform="translate(262.595897, 65.737219) rotate(55.000000) translate(-262.595897, -65.737219) " font-family="Roboto-Regular, Roboto" font-size="8.16326531" font-weight="normal" letter-spacing="0.060024006" fill="#1D243A">
                    <tspan x="244.595897" y="69.2372193">Romance</tspan>
                </text>
                <text id="Friends" transform="translate(261.035071, 234.509120) rotate(-53.000000) translate(-261.035071, -234.509120) " font-family="Roboto-Regular, Roboto" font-size="8.16326531" font-weight="normal" letter-spacing="0.060024006" fill="#1D243A">
                    <tspan x="247.035071" y="238.00912">Friends</tspan>
                </text>
                <text id="Emotional-Health" transform="translate(101.244047, 16.226137) rotate(-18.000000) translate(-101.244047, -16.226137) " font-family="Roboto-Regular, Roboto" font-size="8.16326531" font-weight="normal" letter-spacing="0.060024006" fill="#1D243A">
                    <tspan x="68.7440466" y="19.7261368">Emotional Health</tspan>
                </text>
                <text id="Physical-Health" transform="translate(193.288403, 15.507289) rotate(19.000000) translate(-193.288403, -15.507289) " font-family="Roboto-Regular, Roboto" font-size="8.16326531" font-weight="normal" letter-spacing="0.060024006" fill="#1D243A">
                    <tspan x="163.788403" y="19.0072887">Physical Health</tspan>
                </text>
                <text id="Recreation" transform="translate(99.187539, 283.568306) rotate(18.000000) translate(-99.187539, -283.568306) " font-family="Roboto-Regular, Roboto" font-size="8.16326531" font-weight="normal" letter-spacing="0.060024006" fill="#1D243A">
                    <tspan x="78.6875392" y="287.068306">Recreation</tspan>
                </text>
                <text id="Personal-Growth" transform="translate(193.106469, 284.186641) rotate(-18.000000) translate(-193.106469, -284.186641) " font-family="Roboto-Regular, Roboto" font-size="8.16326531" font-weight="normal" letter-spacing="0.060024006" fill="#1D243A">
                    <tspan x="162.106469" y="287.686641">Personal Growth</tspan>
                </text>
                <text id="Career" transform="translate(32.604749, 233.363772) rotate(54.000000) translate(-32.604749, -233.363772) " font-family="Roboto-Regular, Roboto" font-size="8.16326531" font-weight="normal" letter-spacing="0.060024006" fill="#1D243A">
                    <tspan x="20.104749" y="236.863772">Career</tspan>
                </text>
                <text id="Finance" transform="translate(6.034348, 150.392293) rotate(-90.000000) translate(-6.034348, -150.392293) " font-family="Roboto-Regular, Roboto" font-size="8.16326531" font-weight="normal" letter-spacing="0.060024006" fill="#1D243A">
                    <tspan x="-8.96565233" y="153.892293">Finance</tspan>
                </text>
                <text id="Food" transform="translate(32.604749, 68.277055) rotate(-53.000000) translate(-32.604749, -68.277055) " font-family="Roboto-Regular, Roboto" font-size="8.16326531" font-weight="normal" letter-spacing="0.060024006" fill="#1D243A">
                    <tspan x="23.104749" y="71.7770547">Food</tspan>
                </text>
                <line x1="150.5" y1="151.5" x2="150.5" y2="151.5" id="Line-4" stroke="#979797" stroke-linecap="square"></line>
                <rect id="Rectangle" fill="#C0C2C8" x="149" y="150.5" width="1" height="1"></rect>
                <line x1="66" y1="264.220743" x2="229.791838" y2="38.3634419" id="Line-5" stroke="#1D243A" stroke-linecap="square"></line>
                <line x1="148" y1="290.731216" x2="148.129649" y2="11.7789999" id="Line-5" stroke="#1D243A" stroke-linecap="square"></line>
                <line x1="280.705954" y1="194.210403" x2="15" y2="107.963919" id="Line-5" stroke="#1D243A" stroke-linecap="square"></line>
                <line x1="281" y1="194.5" x2="15" y2="107.963919" id="Line-5" stroke="#1D243A" stroke-linecap="square" transform="translate(148.000000, 151.000000) scale(-1, 1) translate(-148.000000, -151.000000) "></line>
                <line x1="66.8536552" y1="264.220743" x2="230.999282" y2="38.3634419" id="Line-5" stroke="#1D243A" stroke-linecap="square" transform="translate(148.500000, 151.500000) scale(-1, 1) translate(-148.500000, -151.500000) "></line>
                <g id="Group" transform="translate(145.000000, 8.000000)">
                    <rect id="Rectangle" stroke="#1D243A" fill="#1D243A" x="0" y="0" width="6" height="6" rx="1"></rect>
                    <text id="10" font-family="Roboto-Medium, Roboto" font-size="5" font-weight="400" letter-spacing="0.0367647037" fill="#FFFFFF">
                        <tspan x="0.0648245549" y="5">10</tspan>
                    </text>
                </g>
                <g id="Group" transform="translate(145.064825, 22.000000)">
                    <rect id="Rectangle" stroke="#1D243A" fill="#1D243A" x="-5.68434189e-14" y="0" width="6" height="6" rx="1"></rect>
                    <text id="9" font-family="Roboto-Medium, Roboto" font-size="5" font-weight="400" letter-spacing="0.0367647037" fill="#FFFFFF">
                        <tspan x="1.62554377" y="5">9</tspan>
                    </text>
                </g>
                <g id="Group" transform="translate(145.129649, 36.000000)">
                    <rect id="Rectangle" stroke="#1D243A" fill="#1D243A" x="-5.68434189e-14" y="0" width="6" height="6" rx="1"></rect>
                    <text id="8" font-family="Roboto-Medium, Roboto" font-size="5" font-weight="400" letter-spacing="0.0367647037" fill="#FFFFFF">
                        <tspan x="1.62554377" y="5">8</tspan>
                    </text>
                </g>
                <g id="Group" transform="translate(144.852977, 50.000000)">
                    <rect id="Rectangle" stroke="#1D243A" fill="#1D243A" x="-5.68434189e-14" y="0" width="6" height="6" rx="1"></rect>
                    <text id="7" font-family="Roboto-Medium, Roboto" font-size="5" font-weight="400" letter-spacing="0.0367647037" fill="#FFFFFF">
                        <tspan x="1.62554377" y="5">7</tspan>
                    </text>
                </g>
                <g id="Group" transform="translate(145.129649, 64.000000)">
                    <rect id="Rectangle" stroke="#1D243A" fill="#1D243A" x="-5.68434189e-14" y="0" width="6" height="6" rx="1"></rect>
                    <text id="6" font-family="Roboto-Medium, Roboto" font-size="5" font-weight="400" letter-spacing="0.0367647037" fill="#FFFFFF">
                        <tspan x="1.62554377" y="5">6</tspan>
                    </text>
                </g>
                <g id="Group" transform="translate(145.073172, 78.000000)">
                    <rect id="Rectangle" stroke="#1D243A" fill="#1D243A" x="-5.68434189e-14" y="0" width="6" height="6" rx="1"></rect>
                    <text id="5" font-family="Roboto-Medium, Roboto" font-size="5" font-weight="400" letter-spacing="0.0367647037" fill="#FFFFFF">
                        <tspan x="1.62554377" y="5">5</tspan>
                    </text>
                </g>
                <g id="Group" transform="translate(144.895919, 106.000000)">
                    <rect id="Rectangle" stroke="#1D243A" fill="#1D243A" x="-5.68434189e-14" y="0" width="6" height="6" rx="1"></rect>
                    <text id="3" font-family="Roboto-Medium, Roboto" font-size="5" font-weight="400" letter-spacing="0.0367647037" fill="#FFFFFF">
                        <tspan x="1.62554377" y="5">3</tspan>
                    </text>
                </g>
                <g id="Group" transform="translate(144.895919, 120.000000)">
                    <rect id="Rectangle" stroke="#1D243A" fill="#1D243A" x="-5.68434189e-14" y="0" width="6" height="6" rx="1"></rect>
                    <text id="2" font-family="Roboto-Medium, Roboto" font-size="5" font-weight="400" letter-spacing="0.0367647037" fill="#FFFFFF">
                        <tspan x="1.62554377" y="5">2</tspan>
                    </text>
                </g>
                <g id="Group" transform="translate(145.129649, 92.000000)">
                    <rect id="Rectangle" stroke="#1D243A" fill="#1D243A" x="-5.68434189e-14" y="0" width="6" height="6" rx="1"></rect>
                    <text id="4" font-family="Roboto-Medium, Roboto" font-size="5" font-weight="400" letter-spacing="0.0367647037" fill="#FFFFFF">
                        <tspan x="1.62554377" y="5">4</tspan>
                    </text>
                </g>
                <g id="Group" transform="translate(144.895919, 134.500000)">
                    <rect id="Rectangle" stroke="#1D243A" fill="#1D243A" x="-5.68434189e-14" y="0" width="6" height="6" rx="1"></rect>
                    <text id="1" font-family="Roboto-Medium, Roboto" font-size="5" font-weight="400" letter-spacing="0.0367647037" fill="#FFFFFF">
                        <tspan x="1.62554377" y="5">1</tspan>
                    </text>
                </g>
            </g>
        </g>
    </g>
</svg>