<?xml version="1.0" encoding="UTF-8"?>
<svg width="350px" height="350px" viewBox="0 0 350 350" version="1.1" xmlns="http://www.w3.org/2000/svg" xmlns:xlink="http://www.w3.org/1999/xlink">
    <!-- Generator: Sketch 62 (91390) - https://sketch.com -->
    <title>Group 15</title>
    <desc>Created with Sketch.</desc>
    <g id="Material-Components" stroke="none" stroke-width="1" fill="none" fill-rule="evenodd">
        <g id="Group-15">
            <rect id="Rectangle" fill="#F9F9F9" x="0" y="0" width="350" height="350"></rect>
            <g id="Group-13" transform="translate(51.000000, 51.000000)" fill-rule="nonzero">
                <path d="M192,138.916 L192,112 L236,112 C242.616,112 248,106.616 248,100 L248,12 C248,5.384 242.616,0 236,0 L132,0 C125.384,0 120,5.384 120,12 L120,40 L72,40 L72,16 L0,16 L0,72 L72,72 L72,48 L120,48 L120,56 L109.084,56 L105.58,66.936 C102.492,67.928 99.504,69.16 96.664,70.612 L86.468,65.364 L65.372,86.46 L70.62,96.656 C69.172,99.492 67.94,102.476 66.944,105.572 L56,109.084 L56,136 L12,136 C5.384,136 0,141.384 0,148 L0,236 C0,242.616 5.384,248 12,248 L116,248 C122.616,248 128,242.616 128,236 L128,208 L176,208 L176,232 L248,232 L248,176 L176,176 L176,200 L128,200 L128,192 L138.916,192 L142.42,181.064 C145.512,180.068 148.5,178.84 151.336,177.388 L161.532,182.636 L182.628,161.54 L177.38,151.344 C178.828,148.508 180.06,145.524 181.056,142.428 L192,138.916 Z M64,64 L8,64 L8,24 L64,24 L64,64 Z M184,184 L240,184 L240,224 L184,224 L184,184 Z M160,124 C160,142.496 145.972,157.768 128,159.764 L128,148 C128,141.384 122.616,136 116,136 L90.088,136 C88.728,132.16 88,128.14 88,124 C88,105.504 102.028,90.232 120,88.236 L120,100 C120,106.616 125.384,112 132,112 L157.912,112 C159.272,115.84 160,119.86 160,124 L160,124 Z M156.32,104 C157.676,94.588 163.712,86.696 172,82.74 L172,84 C172,90.616 177.384,96 184,96 C190.616,96 196,90.616 196,84 L196,82.74 C204.288,86.696 210.324,94.588 211.68,104 L156.32,104 Z M164,42.42 C164,34.468 170.468,28 178.42,28 L180,28 L180,37.528 L170.632,42.212 C168.14,43.46 166.232,45.48 165.116,47.9 C164.404,46.168 164,44.32 164,42.42 Z M180,80.32 C181.312,80.132 182.64,80 184,80 C185.36,80 186.688,80.132 188,80.32 L188,84 C188,86.204 186.208,88 184,88 C181.792,88 180,86.204 180,84 L180,80.32 Z M202.884,47.896 C201.768,45.476 199.86,43.456 197.368,42.208 L188,37.528 L188,28 L189.58,28 C197.532,28 204,34.468 204,42.42 C204,44.32 203.6,46.168 202.884,47.896 Z M180,72 C175.588,72 172,68.412 172,64 L172,52.944 C172,51.42 172.848,50.048 174.212,49.368 L184,44.472 L193.788,49.368 C195.152,50.048 196,51.42 196,52.944 L196,64 C196,68.412 192.412,72 188,72 L180,72 Z M128,12 C128,9.796 129.792,8 132,8 L236,8 C238.208,8 240,9.796 240,12 L240,100 C240,102.204 238.208,104 236,104 L219.764,104 C218.352,91.304 210.308,80.612 199.188,75.408 C202.152,72.5 204,68.468 204,64 L204,61.212 L208.236,54.86 C210.7,51.164 212,46.86 212,42.424 C212,30.06 201.94,20 189.58,20 L178.424,20 C166.06,20 156,30.06 156,42.42 C156,46.86 157.3,51.16 159.764,54.856 L164,61.212 L164,64 C164,68.468 165.848,72.5 168.812,75.408 C157.692,80.612 149.648,91.304 148.236,104 L132,104 C129.792,104 128,102.204 128,100 L128,12 Z M64,114.916 L73.424,111.896 L74.008,109.828 C75.128,105.872 76.68,102.112 78.616,98.644 L79.668,96.772 L75.148,87.992 L87.996,75.148 L96.772,79.664 L98.648,78.616 C102.128,76.668 105.892,75.116 109.836,74.004 L111.904,73.42 L114.916,64 L120,64 L120,80.204 C97.608,82.232 80,101.088 80,124 C80,128.108 80.604,132.116 81.704,136 L64,136 L64,114.916 Z M120,236 C120,238.204 118.208,240 116,240 L100,240 C100,231.108 96.744,222.976 91.38,216.688 C94.348,213.136 96,208.696 96,204 L96,184 C96,166.356 81.644,152 64,152 C46.356,152 32,166.356 32,184 L32,204 C32,208.696 33.652,213.136 36.62,216.688 C31.256,222.976 28,231.108 28,240 L12,240 C9.792,240 8,238.204 8,236 L8,148 C8,145.796 9.792,144 12,144 L116,144 C118.208,144 120,145.796 120,148 L120,236 Z M174.576,136.1 L173.992,138.168 C172.872,142.124 171.32,145.884 169.384,149.352 L168.332,151.224 L172.852,160.004 L160.004,172.848 L151.224,168.332 L149.352,169.38 C145.88,171.324 142.116,172.88 138.164,173.992 L136.096,174.576 L133.084,184 L128,184 L128,167.796 C150.392,165.768 168,146.912 168,124 C168,119.892 167.396,115.884 166.296,112 L184,112 L184,133.084 L174.576,136.1 Z" id="Shape" fill="#314457"></path>
                <path d="M124,60 L124,84 C101.92,84 84,101.92 84,124 C84,129.68 85.2,135.12 87.32,140 L60,140 L60,112 L70.16,108.76 C71.36,104.52 73.04,100.48 75.12,96.68 L70.24,87.24 L87.24,70.24 L96.68,75.12 C100.48,73.04 104.52,71.36 108.76,70.16 L112,60 L124,60 Z" id="Path" fill="#FF2B6E"></path>
                <path d="M188,108 L188,136 L177.84,139.24 C176.64,143.48 174.96,147.52 172.88,151.32 L177.76,160.76 L160.76,177.72 L151.32,172.88 C147.52,174.96 143.48,176.64 139.24,177.84 L136,188 L124,188 L124,164 C146.08,164 164,146.08 164,124 C164,118.32 162.8,112.88 160.68,108 L188,108 Z" id="Path" fill="#FF2B6E"></path>
                <path d="M116,140 L87.32,140 L60,140 L12,140 C7.6,140 4,143.6 4,148 L4,236 C4,240.4 7.6,244 12,244 L116,244 C120.4,244 124,240.4 124,236 L124,204 L124,188 L124,164 L124,148 C124,143.6 120.4,140 116,140 Z" id="Path" fill="#F9F9F9"></path>
                <path d="M236,4 L132,4 C127.6,4 124,7.6 124,12 L124,44 L124,60 L124,84 L124,100 C124,104.4 127.6,108 132,108 L236,108 C240.4,108 244,104.4 244,100 L244,12 C244,7.6 240.4,4 236,4 Z" id="Path" fill="#F9F9F9"></path>
                <path d="M49.52,211.48 L55.12,224 L64,244 L64,244 L32,244 L32,240 C32,230.76 35.92,222.4 42.2,216.56 C44.36,214.56 46.84,212.84 49.52,211.48 Z M78.48,211.48 C81.16,212.84 83.64,214.56 85.8,216.56 L85.8,216.56 C86.08,216.84 86.36,217.08 86.64,217.36 C92.4,223.16 96,231.16 96,240 L96,244 L64,244 L64,244 L55.12,224 L72.88,224 L64,244 L72.88,224 L78.48,211.48 Z" id="Combined-Shape" fill="#009BB3"></path>
                <path d="M92,204 C92,209.12 89.52,213.64 85.8,216.56 C83.64,214.56 81.16,212.84 78.48,211.48 C74.16,209.24 69.2,208 64,208 L68,208 C74.64,208 80,202.64 80,196 L80,184.96 C80,181.92 78.28,179.16 75.56,177.8 L64,172 L64,156 C79.48,156 92,168.52 92,184 L92,204 Z" id="Path" fill="#FF88CE"></path>
                <path d="M48,196 C48,202.64 53.36,208 60,208 L64,208 C58.8,208 53.84,209.24 49.52,211.48 C46.84,212.84 44.36,214.56 42.2,216.56 C38.48,213.64 36,209.12 36,204 L36,184 C36,168.52 48.52,156 64,156 L64,172 L52.44,177.8 C49.72,179.16 48,181.92 48,184.96 L48,196 Z" id="Path" fill="#FF88CE"></path>
                <path d="M78.48,211.48 L72.88,224 L55.12,224 L49.52,211.48 C53.84,209.24 58.8,208 64,208 C69.2,208 74.16,209.24 78.48,211.48 Z" id="Path" fill="#E7D3CD"></path>
                <path d="M80,184.96 L80,196 C80,202.64 74.64,208 68,208 L64,208 L60,208 C53.36,208 48,202.64 48,196 L48,184.96 C48,181.92 49.72,179.16 52.44,177.8 L64,172 L75.56,177.8 C78.28,179.16 80,181.92 80,184.96 Z" id="Path" fill="#E7D3CD"></path>
                <polygon id="Path" fill="#314457" points="68 44 68 68 4 68 4 20 68 20"></polygon>
                <polygon id="Path" fill="#314457" points="244 180 244 228 180 228 180 204 180 180"></polygon>
                <polygon id="Path" fill="#D4067F" points="192 192 232 192 232 200 192 200"></polygon>
                <polygon id="Path" fill="#D4067F" points="208 208 216 208 216 216 208 216"></polygon>
                <polygon id="Path" fill="#009BB3" points="224 208 232 208 232 216 224 216"></polygon>
                <polygon id="Path" fill="#FF88CE" points="192 208 200 208 200 216 192 216"></polygon>
                <polygon id="Path" fill="#009BB3" points="16 32 56 32 56 40 16 40"></polygon>
                <polygon id="Path" fill="#FF88CE" points="48 48 56 48 56 56 48 56"></polygon>
                <polygon id="Path" fill="#D4067F" points="32 48 40 48 40 56 32 56"></polygon>
                <polygon id="Path" fill="#9E005D" points="16 48 24 48 24 56 16 56"></polygon>
                <g id="miscellaneous" transform="translate(150.500000, 25.250000)" fill="#314457">
                    <path d="M46.574219,40.4160155 C54.75,28.871094 52.015625,12.8847655 40.470703,4.7109375 C28.925781,-3.4628905 12.939453,-0.730469 4.765625,10.816406 C-3.408203,22.361328 -0.675781,38.345703 10.871094,46.519531 C19.111328,52.3535155 30.0058595,52.8027345 38.6972655,47.669922 L57.582031,66.441406 C59.621094,68.5878905 63.013672,68.673828 65.160156,66.6347655 C67.3066405,64.597656 67.392578,61.205078 65.355469,59.058594 C65.2910155,58.9902345 65.2285155,58.9277345 65.160156,58.863281 L46.574219,40.4160155 Z M25.654297,42.1660159 C16.53125,42.167969 9.1347655,34.777344 9.12890561,25.654297 C9.126953,16.53125 16.517578,9.1347655 25.642578,9.13085795 C34.753906,9.126953 42.1464845,16.5058595 42.1640872,25.6171875 C42.1796875,34.7421875 34.792969,42.1503905 25.6660155,42.1660159 C25.6621095,42.1660159 25.660156,42.1660159 25.654297,42.1660159 Z" id="Shape"></path>
                </g>
            </g>
        </g>
    </g>
</svg>